<svg width="200" height="145.22" version="1.1" viewBox="0 0 51.471 40.842" xmlns="http://www.w3.org/2000/svg">
	<path d="m46.778 9.545-1.9832 6.7364-4.7131 4.2824-1.5257 4.577-9.8317 4.9156-2.6386 7.97v2.8167h27.774v-31.298z" style="stroke-linecap:round;stroke-linejoin:round;stroke-width:8.5516"/>
	<path d="m28.756 28.865-2.7093-0.64104-2.0986-1.3308 1.4888 9.6837z" style="stroke-linecap:round;stroke-linejoin:round;stroke-width:8.5516"/>
	<path d="m34.708 25.83-2.416-3.837-7.4605 4.7461 2.2058 1.1444 2.7546 0.40434z" style="stroke-linecap:round;stroke-linejoin:round;stroke-width:8.5516"/>
	<path d="m26.567 24.339-1.0059-4.9293-3.1918 0.63337-3.188 3.9864 3.888 3.0138z" style="stroke-linecap:round;stroke-linejoin:round;stroke-width:8.5516"/>
	<path d="m19.287 23.064-1.6646-4.2694-5.225 2.0244 2.7083 3.322z" style="stroke-linecap:round;stroke-linejoin:round;stroke-width:8.5516"/>
	<path d="m21.892 20.08-2.7483-2.7291-0.50563 0.08413 0.76304 4.5184 0.72119-0.03433z" style="stroke-linecap:round;stroke-linejoin:round;stroke-width:8.5516"/>
	<path d="m15.849 18.064-3.4578-5.4338-2.2125 3.9981 1.1393 2.1908z" style="stroke-linecap:round;stroke-linejoin:round;stroke-width:8.5516"/>
	<path d="m10.132 2.624-6.5863 2.5723 2.6737 6.1877 6.7164 0.72232 0.60644-4.5291z" style="stroke-linecap:round;stroke-linejoin:round;stroke-width:8.5516"/>
	<path d="m37.956 11.75-1.2324 3.333 2.3097 3.9031 1.4251-3.5124 4.9759-3.9739z" style="stroke-linecap:round;stroke-linejoin:round;stroke-width:8.5516"/>
	<path d="m37.018 17.024-2.7118-0.9519-2.3154 4.4182 2.5032 3.7807 4.8581-2.5698 0.30434-0.98835z" style="stroke-linecap:round;stroke-linejoin:round;stroke-width:8.5516"/>
	<path d="m36.382 4.848-1.0285 0.6356-1.1914 5.7105 2.2274 1.8162 2.0476-2.9043z" style="stroke-linecap:round;stroke-linejoin:round;stroke-width:8.5516"/>
	<path d="m41.259 0.76-3.9059 1.1458 0.58771 5.6147 6.5851 3.5528 5.4041-4.4842z" style="stroke-linecap:round;stroke-linejoin:round;stroke-width:8.5516"/>
	<path d="m30.044 18.861-2.9689 2.7353 0.25449 2.3071 3.7303-2.3729 1.208-2.182z" style="stroke-linecap:round;stroke-linejoin:round;stroke-width:8.5516"/>
	<path d="m28.198 15.976-2.074 1.578 0.35387 0.90142 0.02268 2.7097 3.2304-2.4209 0.14251-1.9141z" style="stroke-linecap:round;stroke-linejoin:round;stroke-width:8.5516"/>
	<path d="m29.762 14.09-1.3478 1.2603 1.7534 0.68017-0.01507-0.5592z" style="stroke-linecap:round;stroke-linejoin:round;stroke-width:8.5516"/>
	<path d="m33.976 10.601-2.9105 0.48684-0.49695 2.5105-0.24684 0.17614 0.20474 1.4207-0.26077 2.4651 2.14 0.77698 1.4855-2.0034z" style="stroke-linecap:round;stroke-linejoin:round;stroke-width:8.5516"/>
	<path d="m28.054 5.954-0.45376 0.67275-1.4525 5.1376 1.7312 2.7168 3.1602-3.5522-0.07391-2.5581z" style="stroke-linecap:round;stroke-linejoin:round;stroke-width:8.5516"/>
	<path d="m29.451 0.969-2.2707 1.819 2.0604 3.1735 2.9395-0.25928 4.148-3.2661z" style="stroke-linecap:round;stroke-linejoin:round;stroke-width:8.5516"/>
	<path d="m20.004 1.022 4.6771 2.881 2.3549-2.881z" style="stroke-linecap:round;stroke-linejoin:round;stroke-width:8.5516"/>
	<path d="m25.439 12.393-1.3827-0.79929 0.62904 5.0051 3.1602-0.77594z" style="stroke-linecap:round;stroke-linejoin:round;stroke-width:8.5516"/>
	<path d="m23.56 11.246-3.7721 4.9516 1.9455 1.9317 1.7693-1.8392z" style="stroke-linecap:round;stroke-linejoin:round;stroke-width:8.5516"/>
	<path d="m16.947 7.582-3.4439 5.9553 2.4869 3.241 1.4741-0.38095 0.8696 0.72395 3.3237-5.2632z" style="stroke-linecap:round;stroke-linejoin:round;stroke-width:8.5516"/>
	<path d="m11.224 1.834 2.8909 5.2733 1.7501 1.5766 2.3019-6.4828-0.3416-2.2001z" style="stroke-linecap:round;stroke-linejoin:round;stroke-width:8.5516"/>
	<path d="m18.742 3.094-0.25951 2.2113 4.3175 4.6725 1.2611 0.97986 1.9179-4.9826-4.6771-2.881z" style="stroke-linecap:round;stroke-linejoin:round;stroke-width:8.5516"/>
	<path d="m-2.39 9.545v31.298h27.774v-2.8167l-2.3218-9.5187-3.5963-3.3565-5.0341 0.23984-3.1166-5.9935-5.9935-3.1162-0.23942-6.7364z" style="stroke-linecap:round;stroke-linejoin:round;stroke-width:8.5516"/>
</svg>
