<?xml version="1.0" encoding="UTF-8"?>
<!-- Created with Inkscape (http://www.inkscape.org/) -->
<svg width="232.3" height="234.6" version="1.1" viewBox="0 0 232.3 234.6" xmlns="http://www.w3.org/2000/svg">
 <g transform="translate(-26.54 -7.031)">
  <path d="m51.67 102.8c-13.32-0.1499-16.79 41.37-17.88 73.45-1.095 32.08-10.02 25.36-6.374 43.94 3.65 18.59 88.27 22.69 119.7 21.19 31.39-1.499 78.47-10.49 94.53-9.593 16.06 0.8994 19.76 12.94 15.75-37.12s4.124-58.33 0.1092-76.32c-4.015-17.99-19.4-20.13-26.33-12.64-6.935 7.495 1.095 56.66-25.18 60.56-26.28 3.897-22.63-0.8994-37.96-4.197-15.33-3.298-31.75 9.293-63.51 8.694-31.75-0.5996-28.54-38.12-31.86-56.41-2.573-14.2-7.62-11.39-20.94-11.54z"/>
  <path d="m62.36 7.031-6.699 2.031 22.63 74.59-12.91 3.859c0 1e-6 9.814 40.2 27.16 35.54 17.34-4.662 5.365-45.26 5.365-45.26l-12.91 3.846z"/>
  <path d="m120.9 135.7c-6.685-0.1546-14.44 5.839-14.03 10.93 0.6288 7.756 4.33 11.16 6.845 10.32 0.8329 2.215 1.338 5.494 3.165 4.887 1.827-0.6068 0.4176-4.611 0.4176-4.611s1.94 4.56 3.407 3.722c1.467-0.8385 0.2613-4.613 0.2613-4.613s1.311 4.141 3.407 3.512c2.096-0.6289 0.6814-4.208 0.6814-4.208s8.751-0.6287 4.139-13.62c-1.585-4.467-4.792-6.234-8.294-6.315zm-2.738 8.901c1.25-5e-4 2.263 1.013 2.262 2.262 5.1e-4 1.25-1.013 2.263-2.262 2.262-1.249-1e-3 -2.26-1.014-2.259-2.262-5e-4 -1.249 1.011-2.261 2.259-2.262zm-6.391 1.818c1.2 6.8e-4 2.173 0.9734 2.174 2.174 6.7e-4 1.201-0.9724 2.175-2.174 2.176-1.202 6.7e-4 -2.177-0.9739-2.176-2.176 6.8e-4 -1.201 0.9749-2.174 2.176-2.174z"/>
  <path d="m126.8 155.9s2.606-0.7558 3.126-2.288c0.5198-1.532 4.746 9.291-2.574 12.77-7.32 3.478-8.339 1.849-8.926 0.8057-0.587-1.043-0.7058-3.466 0.0364-3.915 0.7421-0.4491 2.033 1.256 2.033 1.256s-0.6546-1.669 0.603-2.226c1.258-0.5574 1.75 1.076 1.75 1.076s-0.1265-2.147 1.09-2.595c1.217-0.4476 1.836 1.383 1.836 1.383s1.441-0.4609 1.76-2.393c0.3185-1.932-0.7345-3.874-0.7345-3.874z"/>
  <path d="m173.3 147.4 29.97 4.401s4.439-6.225 6.418-3.21c3.911 5.958-4.008 7.645-4.008 7.645s5.681 2.723 0.2359 7.618c-3.54 3.182-6.654-4.408-6.654-4.408l-26.64-5.831s-4.238 7.295-7.64 3.259c-3.401-4.036 2.606-6.725 2.606-6.725s-3.511-4.967 1.456-8.478c3.257-2.302 4.261 5.728 4.261 5.728z"/>
  <path d="m97.91 169.2 4.98 0.6678 0.5188-9.206s3.313-1.45 1.595-3.793c-1.718-2.343-3.804 1.562-3.804 1.562s0.1419-4.552-2.945-2.454c-3.087 2.098 0.2454 4.797 0.2454 4.797z"/>
  <path d="m138.4 164.6c0.7036-7.51 1.239-11.07 4.611-17.1 4.447-7.707 8.597-9.486 8.597-9.486s-3.261 4.743-5.632 13.04c-2.372 8.3-1.865 10.7-1.865 10.7s6.019-8.738 8.39-11.41c2.372-2.668 5.039-4.743 5.039-4.743l1.186 2.668 3.261-1.186s-6.617 4.486-8.913 8.248c-2.373 3.888-2.129 5.794-2.129 5.794-4.137 1.32-8.336 2.399-12.54 3.459z"/>
 </g>
</svg>
