<svg width="175" height="230" version="1.1" viewBox="0 0 175 230" xmlns="http://www.w3.org/2000/svg">
	<path d="m64.16 41.92c-6.685-0.1546-14.44 5.839-14.03 10.93 0.6288 7.756 4.33 11.16 6.845 10.32 0.8329 2.215 1.338 5.494 3.165 4.887 1.827-0.6068 0.4176-4.611 0.4176-4.611s1.94 4.56 3.407 3.722c1.467-0.8385 0.2613-4.613 0.2613-4.613s1.311 4.141 3.407 3.512c2.096-0.6289 0.6814-4.208 0.6814-4.208s8.751-0.6287 4.139-13.62c-1.585-4.467-4.792-6.234-8.294-6.315zm-2.738 8.901c1.25-5e-4 2.263 1.013 2.262 2.262 5.1e-4 1.25-1.013 2.263-2.262 2.262s-2.26-1.014-2.259-2.262c-5e-4 -1.249 1.011-2.261 2.259-2.262zm-6.391 1.818c1.2 6.8e-4 2.173 0.9734 2.174 2.174 6.7e-4 1.201-0.9724 2.175-2.174 2.176-1.202 6.7e-4 -2.177-0.9739-2.176-2.176 6.8e-4 -1.201 0.9749-2.174 2.176-2.174z"/>
	<path d="m70.06 62.12s2.606-0.7558 3.126-2.288c0.5198-1.532 4.746 9.291-2.574 12.77-7.32 3.478-8.339 1.849-8.926 0.8057-0.587-1.043-0.7058-3.466 0.0364-3.915 0.7421-0.4491 2.033 1.256 2.033 1.256s-0.6546-1.669 0.603-2.226c1.258-0.5574 1.75 1.076 1.75 1.076s-0.1265-2.147 1.09-2.595c1.217-0.4476 1.836 1.383 1.836 1.383s1.441-0.4609 1.76-2.393c0.3185-1.932-0.7345-3.874-0.7345-3.874z"/>
	<rect transform="matrix(.9563 -.2924 .2924 .9563 0 0)" x="46.54" y="90.36" width="7" height="5" rx="2" ry="1" style="paint-order:markers fill stroke;stop-color:#000000"/>
	<rect transform="rotate(-17)" x="46.62" y="96.25" width="7" height="5" rx="2" ry="1" style="paint-order:markers fill stroke;stop-color:#000000"/>
	<path d="m43.42 88.89c-0.9961 7.895 33.89 4.118 33.55 1.098-0.3356-3.02-32.56-8.993-33.55-1.098z" style="paint-order:markers fill stroke;stop-color:#000000"/>
	<path d="m84.17 93.56-0.02334 1.691s-26.16 5.604-27.51-1.04c-0.5689-2.799 4.899-2.983 4.899-2.983l0.3456 1.748s-2.166 0.0697-2.1 1.263c0.06587 1.194 24.39-0.6792 24.39-0.6792z" style="paint-order:markers fill stroke;stop-color:#000000"/>
	<path d="m42.26 94.6s1.491-4.598-2.423-3.355-0.8698 5.032-0.8698 5.032l-5.964 29.57s-5.964 1.74-3.976 4.722c1.988 2.982 4.722 0 4.722 0s2.485 3.479 4.97 0.7456c2.485-2.734-0.7456-4.225-0.7456-4.225l5.964-29.08s5.951 0.5493 4.535-3.231c-1.415-3.78-6.213-0.1864-6.213-0.1864z" style="paint-order:markers fill stroke;stop-color:#000000"/>
	<path d="m30.4 133c-0.3668 1e-3 -0.7444 0.1248-1.117 0.4277-1.988 1.615 0.4961 4.102 0.4961 4.102s-4.473 22.12-2.857 28.83c0 0-3.106 0.248-1.863 2.857s3.23 0 3.23 0 0.87 2.858 2.982 1.242-0.125-3.23-0.125-3.23c3.479-3.479 2.982-28.33 2.982-28.33 0 0 4.35-0.9958 3.107-3.232s-3.854-0.3711-3.854-0.3711-1.393-2.298-2.982-2.293zm0.8716 9.996s-7.42e-4 7.456-0.2493 11.68c-0.2485 4.225-1.739 9.567-1.739 9.567s-0.08796-5.152 0.6211-11.68c0.5676-5.225 1.368-9.568 1.368-9.568z" style="paint-order:markers fill stroke;stop-color:#000000"/>
	<path d="m82.7 88.08c0.6566 0.4888 6.855 23.44 6.275 25.47-0.497 1.74-3.293 2.609-4.349 1.491-1.056-1.118-8.269-24.16-7.393-25.04s4.811-2.415 5.467-1.926z" style="paint-order:markers fill stroke;stop-color:#000000"/>
	<rect transform="rotate(-17)" x="46.71" y="102.1" width="7" height="5" rx="2" ry="1" style="paint-order:markers fill stroke;stop-color:#000000"/>
	<rect transform="matrix(.9563 -.2924 .2924 .9563 0 0)" x="46.68" y="136.3" width="7" height="5" rx="2" ry="1" style="paint-order:markers fill stroke;stop-color:#000000"/>
	<rect transform="rotate(-17)" x="46.76" y="142.2" width="7" height="5" rx="2" ry="1" style="paint-order:markers fill stroke;stop-color:#000000"/>
	<rect transform="rotate(-17)" x="46.85" y="148" width="7" height="5" rx="2" ry="1" style="paint-order:markers fill stroke;stop-color:#000000"/>
	<path d="m111.9 68.91c4.972 6.219-27.88 21.7-29.15 18.94-1.267-2.764 24.18-25.16 29.15-18.94z" style="paint-order:markers fill stroke;stop-color:#000000"/>
	<path d="m84.31 97.78-0.02587 1.691s-28.99 5.604-30.49-1.04c-0.6305-2.799 5.43-3.466 5.43-3.466l0.3831 1.748s-2.927-0.0182-2.635 1.659c0.2927 1.677 27.34-0.5913 27.34-0.5913z" style="paint-order:markers fill stroke;stop-color:#000000"/>
	<path d="m83.56 101.6 0.0539 1.69s-28.7 6.966-30.5 0.3986c-0.7618-2.766 5.261-3.718 5.261-3.718l1.476 1.201s-3.935 0.647-3.564 2.308c0.3714 1.661 27.28-1.88 27.28-1.88z" style="paint-order:markers fill stroke;stop-color:#000000"/>
	<path d="m83.09 105.3 0.1555 1.684s-28.22 8.68-30.42 2.234c-0.9269-2.716 5.027-4.028 5.027-4.028l1.545 1.11s-3.889 0.8827-3.419 2.519c0.4707 1.636 27.12-3.518 27.12-3.518z" style="paint-order:markers fill stroke;stop-color:#000000"/>
	<path d="m83.53 108.4 0.275 1.668s-27.53 10.67-30.19 4.394c-1.118-2.643 4.728-4.376 4.728-4.376l1.62 0.9969s-3.817 1.157-3.231 2.756c0.586 1.598 26.8-5.44 26.8-5.44z" style="paint-order:markers fill stroke;stop-color:#000000"/>
	<path d="m84.48 111.4 0.4334 1.634s-26.39 13.25-29.63 7.263c-1.366-2.524 4.287-4.808 4.287-4.808l1.708 0.8373s-3.688 1.517-2.952 3.052c0.7363 1.535 26.15-7.979 26.15-7.979z" style="paint-order:markers fill stroke;stop-color:#000000"/>
	<path d="m85.02 113.8 0.6568 1.558s-24.72 16.53-28.77 11.05c-1.704-2.309 4.455-5.973 4.455-5.973l1.808 0.5913s-3.968 2.368-3.025 3.785c0.9428 1.417 24.87-11.02 24.87-11.02z" style="paint-order:markers fill stroke;stop-color:#000000"/>
	<path d="m78.9 117 1.023 1.122s-13.58 17.37-18.64 13.94c-2.133-1.443 1.792-5.625 1.792-5.625l1.707-0.0417s-2.992 2.781-1.425 4.109c1.567 1.329 15.54-13.51 15.54-13.51z" style="paint-order:markers fill stroke;stop-color:#000000"/>
	<path d="m75.4 121.4 1.045 0.7435s-8.108 16.77-12.9 14.85c-2.02-0.8102 0.4747-4.966 0.4747-4.966l1.402-0.3395s-1.974 2.831-0.4427 3.648c1.531 0.8172 10.42-13.94 10.42-13.94z" style="paint-order:markers fill stroke;stop-color:#000000"/>
	<path d="m71.14 130.6s-2.982 9.195-4.349 8.325-1e-6 -3.231-1e-6 -3.231l-1.615 0.6213s-1.132 2.651 0.8698 3.852c4.349 2.609 6.461-11.31 6.461-11.31z" style="paint-order:markers fill stroke;stop-color:#000000"/>
	<path d="m78.84 94.28 0.881 1.443s25.37-8.496 23.15-14.9c-0.9357-2.699-5.735-0.07228-5.735-0.07228l0.5926 1.68s1.899-1.043 2.45 0.01832c0.5511 1.061-21.33 11.83-21.33 11.83z" style="paint-order:markers fill stroke;stop-color:#000000"/>
	<path d="m80.87 97.99 0.8832 1.442s27.81-9.939 25.71-16.42c-0.8826-2.73-6.438-0.2179-6.438-0.2179l0.5603 1.699s2.51-1.506 3.112 0.0862c0.602 1.592-23.83 13.41-23.83 13.41z" style="paint-order:markers fill stroke;stop-color:#000000"/>
	<path d="m83.47 100.9 0.8142 1.482s28.24-8.616 26.46-15.19c-0.7529-2.769-6.421-0.5213-6.421-0.5213l-0.6585 1.785s3.716-1.447 4.243 0.1721c0.5262 1.619-24.43 12.27-24.43 12.27z" style="paint-order:markers fill stroke;stop-color:#000000"/>
	<path d="m85.74 103.8 0.7235 1.528s28.71-6.901 27.32-13.57c-0.585-2.809-6.378-0.9067-6.378-0.9067l-0.7647 1.742s3.797-1.221 4.225 0.4271c0.4279 1.648-25.13 10.78-25.13 10.78z" style="paint-order:markers fill stroke;stop-color:#000000"/>
	<path d="m86.97 106.8 0.6129 1.576s29.13-4.839 28.22-11.59c-0.3834-2.844-6.297-1.359-6.297-1.359l-0.8868 1.683s3.874-0.9472 4.184 0.7268c0.3097 1.674-25.83 8.962-25.83 8.962z" style="paint-order:markers fill stroke;stop-color:#000000"/>
	<path d="m87.67 109.8 0.4592 1.627s29.46-2.029 29.2-8.836c-0.1095-2.867-6.138-1.955-6.138-1.955l-1.044 1.59s3.947-0.5721 4.095 1.124c0.1479 1.696-26.57 6.449-26.57 6.449z" style="paint-order:markers fill stroke;stop-color:#000000"/>
	<path d="m88.44 112.2 0.2282 1.676s29.7 1.642 30.39-5.135c0.2908-2.855-6.875-2.872-6.875-2.872l-1.255 1.43s4.621 0.0171 4.531 1.717c-0.0897 1.7-27.02 3.185-27.02 3.185z" style="paint-order:markers fill stroke;stop-color:#000000"/>
	<path d="m95.31 111.8-0.3091 1.486s20.53 8.036 23.14 2.51c1.102-2.328-4.407-3.929-4.407-3.929l-1.49 0.8333s3.991 0.8696 3.319 2.811c-0.6719 1.941-20.26-3.711-20.26-3.711z" style="paint-order:markers fill stroke;stop-color:#000000"/>
	<path d="m100.6 113.8-0.5209 1.172s15.52 10.31 18.67 6.21c1.326-1.726-2.937-4.033-2.937-4.033l-1.38 0.4218s3.141 1.432 2.239 2.915c-0.9019 1.483-16.07-6.686-16.07-6.686z" style="paint-order:markers fill stroke;stop-color:#000000"/>
	<path d="m108.9 119.6s7.249 6.395 7.982 4.951c0.7335-1.445-1.645-2.781-1.645-2.781l1.707-0.2878s2.324 1.705 1.213 3.758c-2.414 4.46-11.32-6.442-11.32-6.442z" style="paint-order:markers fill stroke;stop-color:#000000"/>
	<rect x="24.05" y="171.3" width="8" height="4" rx="2" ry="2" style="paint-order:markers fill stroke;stop-color:#000000"/>
	<path d="m24.79 176.5-1.142 5.14" style="fill:none;paint-order:markers fill stroke;stop-color:#000000"/>
	<path d="m31.03 176.2v4.217" style="fill:none;paint-order:markers fill stroke;stop-color:#000000;stroke-dashoffset:3.2;stroke-linecap:round;stroke-linejoin:round;stroke-width:2;stroke:#000"/>
	<path d="m31.12 182.6-0.08786 4.701" style="fill:none;paint-order:markers fill stroke;stop-color:#000000;stroke-dashoffset:3.2;stroke-linecap:round;stroke-linejoin:round;stroke-width:2;stroke:#000"/>
	<path d="m30.94 189.4 0.03107 2.923" style="fill:none;paint-order:markers fill stroke;stop-color:#000000;stroke-dashoffset:3.2;stroke-linecap:round;stroke-linejoin:round;stroke-width:2;stroke:#000"/>
	<path d="m31.04 194.6 0.04393 1.757" style="fill:none;paint-order:markers fill stroke;stop-color:#000000;stroke-dashoffset:3.2;stroke-linecap:round;stroke-linejoin:round;stroke-width:2;stroke:#000"/>
	<path d="m28.57 176.6-0.1318 3.998" style="fill:none;paint-order:markers fill stroke;stop-color:#000000;stroke-dashoffset:3.2;stroke-linecap:round;stroke-linejoin:round;stroke-width:2;stroke:#000"/>
	<path d="m26.16 176.5-0.3954 3.866" style="fill:none;paint-order:markers fill stroke;stop-color:#000000;stroke-dashoffset:3.2;stroke-linecap:round;stroke-linejoin:round;stroke-width:2;stroke:#000"/>
	<path d="m24.18 175.8-1.054 3.339" style="fill:none;paint-order:markers fill stroke;stop-color:#000000;stroke-dashoffset:3.2;stroke-linecap:round;stroke-linejoin:round;stroke-width:2;stroke:#000"/>
	<path d="m22.42 181.2-0.4833 2.768" style="fill:none;paint-order:markers fill stroke;stop-color:#000000;stroke-dashoffset:3.2;stroke-linecap:round;stroke-linejoin:round;stroke-width:2;stroke:#000"/>
	<path d="m21.41 186.1-0.2197 1.538" style="fill:none;paint-order:markers fill stroke;stop-color:#000000;stroke-dashoffset:3.2;stroke-linecap:round;stroke-linejoin:round;stroke-width:2;stroke:#000"/>
	<path d="m20.71 189.8-0.2197 1.23" style="fill:none;paint-order:markers fill stroke;stop-color:#000000;stroke-dashoffset:3.2;stroke-linecap:round;stroke-linejoin:round;stroke-width:2;stroke:#000"/>
	<path d="m25.32 182.5-0.659 3.383" style="fill:none;paint-order:markers fill stroke;stop-color:#000000;stroke-dashoffset:3.2;stroke-linecap:round;stroke-linejoin:round;stroke-width:2;stroke:#000"/>
	<path d="m28.26 182.8-0.3515 5.535" style="fill:none;paint-order:markers fill stroke;stop-color:#000000;stroke-dashoffset:3.2;stroke-linecap:round;stroke-linejoin:round;stroke-width:2;stroke:#000"/>
	<path d="m27.87 190.6 0.03106 3.203" style="fill:none;paint-order:markers fill stroke;stop-color:#000000;stroke-dashoffset:3.2;stroke-linecap:round;stroke-linejoin:round;stroke-width:2;stroke:#000"/>
	<path d="m28.02 196.1 0.04393 1.757" style="fill:none;paint-order:markers fill stroke;stop-color:#000000;stroke-dashoffset:3.2;stroke-linecap:round;stroke-linejoin:round;stroke-width:2;stroke:#000"/>
	<path d="m24.36 188.1-0.1864 2.703" style="fill:none;paint-order:markers fill stroke;stop-color:#000000;stroke-dashoffset:3.2;stroke-linecap:round;stroke-linejoin:round;stroke-width:2;stroke:#000"/>
	<path d="m23.98 192.9-0.09319 1.74" style="fill:none;paint-order:markers fill stroke;stop-color:#000000;stroke-dashoffset:3.2;stroke-linecap:round;stroke-linejoin:round;stroke-width:2;stroke:#000"/>
	<path d="m32.81 174.8 1.864 2.609" style="fill:none;paint-order:markers fill stroke;stop-color:#000000;stroke-dashoffset:3.2;stroke-linecap:round;stroke-linejoin:round;stroke-width:2;stroke:#000"/>
	<path d="m35.67 179.3 0.5902 2.951" style="fill:none;paint-order:markers fill stroke;stop-color:#000000;stroke-dashoffset:3.2;stroke-linecap:round;stroke-linejoin:round;stroke-width:2;stroke:#000"/>
	<path d="m36.38 184.5 0.04393 1.757" style="fill:none;paint-order:markers fill stroke;stop-color:#000000;stroke-dashoffset:3.2;stroke-linecap:round;stroke-linejoin:round;stroke-width:2;stroke:#000"/>
	<path d="m175 18.58-84 17v194.4h84zm-62.55 151.6c3.688-5e-5 6.678 4.249 6.678 9.49-2.8e-4 5.24-2.99 9.488-6.678 9.488-2.482-7e-3 -4.757-1.969-5.906-5.096h-4.635c-1.615-0.7456-1.677-7.255 0-8.436h4.514c1.099-3.318 3.446-5.439 6.027-5.447z" style="paint-order:markers fill stroke;stop-color:#000000"/>
	<path d="M 175,7.4994717 7.5,7.5 V 230" style="fill:none;paint-order:markers fill stroke;stop-color:#000000;stroke-dashoffset:3.2;stroke-width:15;stroke:#000"/>
</svg>
