<svg width="250" height="307" version="1.1" viewBox="0 0 250 307" xmlns="http://www.w3.org/2000/svg" xmlns:xlink="http://www.w3.org/1999/xlink">
	<defs>
		<pattern id="d" xlink:href="#e" patternTransform="matrix(0 3.16 -9.56 0 0 0)"/>
		<pattern id="e" xlink:href="#a" patternTransform="matrix(0 3.16 -9.56 0 9.37e-8 0)"/>
		<pattern id="a" xlink:href="#b" patternTransform="matrix(0 3.16 -9.56 0 9.37e-8 0)"/>
		<pattern id="b" xlink:href="#c" patternTransform="matrix(0 3.16 -9.56 0 0 0)"/>
		<pattern id="c" xlink:href="#g" patternTransform="matrix(0 2.66 -8.67 0 0 0)"/>
		<pattern id="g" width="2" height="1" patternTransform="translate(0) scale(10)" patternUnits="userSpaceOnUse">
			<rect y="-.5" width="1" height="2"/>
		</pattern>
		<mask id="f">
			<path id="h" d="m-67.8-53.5h346v308h-346z" style="fill:#fff"/>
			<path d="m47.9 187 15.5 36.6h83l15.5-36.6z" style="fill:url(#d);"/>
		</mask>
	</defs>
	<g transform="translate(66.8 52.5)">
		<g transform="matrix(.538 0 0 .538 -30.8 -24.2)">
			<path d="m7.65-52.5c-15.6 0-28.1 12.5-28.1 28.1v36.3h-19.3s0.136-14.3-8.27-14.3c-11.9 0-18.8-0.165-18.8 32.6 0 32.7 4.07 27.5 15.9 27.5 11.8 0 10.8-11.2 11.8-29.4 0.337-6.19 9.85-5.74 18.6-4v201c0 15.6 12.5 28.1 28.1 28.1h195c15.6 0 28.1-12.5 28.1-28.1v-203c8.78-1.61 18.3-2.02 18.6 3.7 0.991 16.8-7.3e-4 27.2 11.8 27.2 11.8 0 15.9 4.82 15.9-25.4 0-30.2-6.93-30.1-18.8-30.1-8.41 0-8.27 13.2-8.27 13.2h-19.3v-35.2c0-15.6-12.5-28.1-28.1-28.1zm-9.88 39.8h104v161h-104zm110 0h104v161h-104zm-87.2 207c10.2-6e-5 18.4 7.57 18.4 16.9-1.4e-4 9.34-8.26 16.9-18.4 16.9-10.2 6e-5 -18.4-7.57-18.4-16.9-1.92e-4 -9.34 8.26-16.9 18.4-16.9zm168 0c10.2-6e-5 18.4 7.57 18.4 16.9-1.4e-4 9.34-8.26 16.9-18.4 16.9-10.2 6e-5 -18.4-7.57-18.4-16.9-1.9e-4 -9.34 8.26-16.9 18.4-16.9z" mask="url(#f)"/>
			<path d="m-2 256v24c0 7.41 5.98 13.4 13.4 13.4h20.4c7.43 0 13.4-5.97 13.4-13.4v-24z"/>
			<path d="m165 256v24c0 7.41 5.98 13.4 13.4 13.4h20.4c7.43 0 13.4-5.97 13.4-13.4v-24z"/>
		</g>
		<path d="m103 105c-6.01-0.0786-5.35 7.16-6.13 8.89-0.787 1.73-1.98-4.24-4.09-2.83-1.3 0.864 0.695 3.79 0.926 7.58l-0.621-0.0137s-5.03 32.7-8.81 35.6c-0.713 0.535-1.86 1.54-3.14 2.69a18.5 18.5 0 0 0 0.404-3.62 18.5 18.5 0 0 0-18.5-18.5 18.5 18.5 0 0 0-18.5 18.5 18.5 18.5 0 0 0 18.5 18.5 18.5 18.5 0 0 0 3.01-0.27c-0.894 1.63-7.84 13.7-19.9 16.3-12.9 2.76-21.5 1.23-21.5 1.23l-0.176 1.08c-2.22-2.3-2.08-4.65-3.06-4.08-1.96 1.13 3.28e-4 5.98-0.629 5.51-0.629-0.472-9.33-3.54-10.1 1.85-0.516 3.58-1.04 8.22 11.9 8.07l-0.123 0.75s15.3 3.37 31-3.06c15.6-6.44 11-6.43 16.2-6.74 5.21-0.306 32.1 18.5 33.3 27.9 1.26 9.44-2.2 34-2.2 34l26.1-0.629s-2.52-5.35-5.35-6.61-5.66-2.2-5.66-2.2 3.15-22 0.945-30.8c-2.2-8.81-6.29-16.4-6.29-16.4s22.7 0.313 27.7 5.98c5.03 5.66 15.7 24.9 15.7 24.9l19.2-14.5s-5.98-4.09-9.12-4.09-5.03 2.2-5.03 2.2-9.12-19.5-13.2-23.3c-4.09-3.78-26.1-4.4-32.1-9.44-5.98-5.03-12.9-12.3-12.6-23.3 0.315-11 6.61-37.1 6.61-37.1l-1.07-0.0234c0.447-3.62 1.27-13.8-3.79-13.9zm-39.5 33.3a4.4 4.4 0 0 1 4.4 4.4 4.4 4.4 0 0 1-4.4 4.4 4.4 4.4 0 0 1-4.4-4.4 4.4 4.4 0 0 1 4.4-4.4zm0.268 2.83a1.5 1.5 0 0 0-1.5 1.5 1.5 1.5 0 0 0 1.5 1.5 1.5 1.5 0 0 0 1.5-1.5 1.5 1.5 0 0 0-1.5-1.5zm-9.95 8.41a4.4 4.4 0 0 1 4.4 4.4 4.4 4.4 0 0 1-4.4 4.41 4.4 4.4 0 0 1-4.4-4.41 4.4 4.4 0 0 1 4.4-4.4zm21.6 1.24a4.09 6.45 25.7 0 1 1.15 0.266 4.09 6.45 25.7 0 1 0.885 7.58 4.09 6.45 25.7 0 1-6.48 4.04 4.09 6.45 25.7 0 1-0.885-7.59 4.09 6.45 25.7 0 1 5.33-4.3zm-21.4 1.59a1.5 1.5 0 0 0-1.5 1.5 1.5 1.5 0 0 0 1.5 1.5 1.5 1.5 0 0 0 1.5-1.5 1.5 1.5 0 0 0-1.5-1.5z"/>
		<path d="m141 120c-4.55 0.0792 0.0335 18.3 0.0335 18.3s-3.03-5.12-4.67-2.64c-1.18 1.8 1.66 3.76 4.04 8.67 1.09 2.26 7.75 1.67 11.1 1.5 0.935-0.0494 1.95-0.0979 3.01-0.146l0.203 1.79 29-2.22v-13.5s-3.26 0.717-14.3 3.71c-13 3.53-15.8 2.22-15.8 2.22l0.153 1.35c-1.29 0.0211-2.25-0.138-2.76-0.53-4.09-3.15-0.347-15.5-9.23-18.4-0.27-0.0884-0.515-0.129-0.739-0.125z"/>
		<path d="m121 144c0.718 9.89 0.783 13.7 9.59 12.5 1.05-0.138 2.27-0.199 6.41-0.215l-0.0308 1.77 45.9-1.21v-10.4s-31.2 2.51-38.2 2.48c-7-0.0257-7.55-0.974-7.55-0.974l-0.0286 1.66c-4.01-0.0522-4.69-0.392-4.64-1.18 0.222-3.56 3.56-8.91 2.34-9.9-1.22-0.988-2.89 9e-5 -3.89 4 0 0 0.12-12.5-4.96-12.1-5.08 0.362-5.14 10.5-4.94 13.5z"/>
	</g>
</svg>
