<?xml version="1.0" encoding="UTF-8"?>
<svg width="218" height="86.3" version="1.1" viewBox="0 0 218 86.3" xmlns="http://www.w3.org/2000/svg">
	<path d="m15.2 59.2q-2.94 0-4.61-2.3t-1.66-6.27q0-4.1 2.18-7.94 2.3-3.84 5.5-6.53 3.2-2.82 6.4-5.5 7.55-6.53 7.55-14.7 0-4.22-3.07-6.78-2.94-2.56-7.42-2.56-8.96 0-8.96 6.66 0 2.18 1.41 4.61-2.56 3.71-6.14 3.71-6.4 0-6.4-6.78t5.89-10.1q5.89-3.46 14.6-3.46t14.5 3.97q5.76 3.84 5.76 12.3 0 4.86-2.18 9.22-2.05 4.22-5.12 7.17-2.94 2.94-6.02 5.76-7.3 6.53-7.3 11.9 0 2.56 0.768 5.63-2.56 2.05-5.63 2.05zm-5.5 19.5q0-7.42 6.78-7.42t6.78 7.42-6.78 7.42-6.78-7.42zm38.8-21.2h77.9l7.06-8.75-7.19-8.88h-77.8v-8.31h71.4l-10-11.9 4.06-3.44 30.6 30.6v4l-30.6 30.6-4.06-3.44 10.1-12.1h-71.4zm-4.44-8.81m131-48.8-0.768 4.61q-6.27 0.896-10.2 3.46l15.6 24.6 15.4-24.6q-3.97-2.3-10.2-3.46 0.128-1.54 0.64-4.61h27.8l-0.64 4.61q-4.61 0.64-8.19 3.33l-20 32 24.1 37.6q3.07 2.18 9.47 3.07-0.512 3.07-0.64 4.74h-34q0.512-3.46 0.64-4.74 7.68 0 11-3.33l-17.9-28.2-17.5 28.4q2.3 3.07 11.9 3.07l-0.512 4.74h-32.5q0.512-3.46 0.64-4.74 7.3-0.512 11.3-3.07l22.3-35.6-21.9-34q-2.82-2.05-7.81-3.33l0.64-4.61z" aria-label="?⇒X"/>
</svg>
