<svg width="263" height="262" version="1.1" viewBox="0 0 263 262" xmlns="http://www.w3.org/2000/svg">
	<defs>
		<marker id="a" style="overflow:visible" markerHeight="1.5" markerWidth="1.5" orient="auto" preserveAspectRatio="xMidYMid" viewBox="0 0 5.6666667 5.6666667">
			<path transform="scale(.5)" d="m5 0c0 2.76-2.24 5-5 5s-5-2.24-5-5 2.3-5 5-5c2.76 0 5 2.24 5 5z" style="stroke-width:1pt"/>
		</marker>
	</defs>
	<g transform="translate(-121 -71.7)">
		<path d="m327 107-0.0254 0.119c-7.3 0-20.5 9.13-25.5 16.3-10.7 15.4-33.8 21.2-50.3 14.7-16.5-6.49-1.44 21-27.9 30.5-25.2 9-29-11.8-34.8-21.6-2.81-4.8-3.58-9-10.3-14 1.33-0.7 2.28-2 2-4-0.264-3.7-1.31-4.81-2.82-4.82-1-9e-3 -2.28 0.5-3.63 1-1.84 0.7-2.51 2.74-2.75 4-1.56-0.563-3-0.93-4.6-0.93-10.5 0-15 9.8-17 10.7s-16.5-0.91-22 3.34c-5.56 4.23-3.56 8-3.56 8s-4.45 8.23-2.22 10.7c2.23 2.47 3.56 0 3.56 0s2e-5 3 6 3.78c5.78 0.667 2.23-4.9 9-5 7-0.2 8.68 3 13.6 4.45 5 1.33 9.34 0.201 9.34 0.201s14.7 38 40 42.3c17.8 3 37-1 37-1s2.2-2.83 16.2 20.5c4.05 20.7-3.62 33.2-4.32 38-0.6 4.72-7.8e-4 10 2.2 12.6 2.36 2.52 3.3 2 4.25 15 0.9 13 13 18.7 12.8 20.3 0 1.57 1 1.73 1.26 3.62 0.3 1.9-2.25 7-2.25 7s-4.45-2.67-9.35-0.91c-4.9 1.78-9 11.1-9 11.1h32s-4.2e-4 -2.67-0.982-5.01c-0.9-2.52-3-4.61-3.22-5.55 0-0.9 0.3-5 2.2-6.45 2-1.26 2.36-2 0.6-6.3-1.73-4.25-17.8-25-13-31.8 4.88-7 1-13-3-19.5-4-6.45 5.62-26.4 5.62-26.4l15-5.68s0.47 11.7 18.4 8.91c18-2.83 25.6-25.1 25.6-25.1s-0.3 3.78 0 8c0.3 4.4-1.73 6.61 16.4 28.6 18 22 12.6 22.5 17.5 29.4 4.88 7-6.65 28.7-9.03 31.7-2.52 3-1 6-1 5.98l-4 9s-1-2-7.4-0.9c-6.3 1-10.7 11.1-10.7 11.1h31v-5.33c-0.3-2-3-5.35-3-5.35l2-4s0.6 0.3 1.9-0.6c1.26-0.9 1.57-3.3 0.787-7.4-0.787-4 12-27 14.5-31.3 2.52-4.4 6-9.75 2.52-13.5-3.46-3.78-20.6-24-9.33-55.7 1.65-4.63 2-9.34 2-14 2.44 7 4 16 0.932 24.6-8.2 23 3 27 3 27s4.78-4 2.52-13.2c-1.37-5.47-5.35-3.77-1.26-15.7 4-12-2-33-9.6-46.7-7.5-13.6-17-28.6-17-28.6s-0.6-7.24-7.24-23.3c-3.51-8.52-11.5-13-19.7-13zm-166 27.8 2.51 2.51 2.51-2.51 1.78 1.78-2.51 2.51 2.51 2.51-1.78 1.78-2.51-2.51-2.51 2.51-1.78-1.78 2.51-2.51-2.51-2.51z"/>
		<path d="m288 219-20.2 3.42c9.51 18.2 22.5 38.6 22 42.8-0.6 4.72 0 10 2.2 12.6 2.36 2.52 3.3 4 4.25 17 0.9 13-7.86 16.7-8.02 18.3 0 1.57 1 1.73 1.26 3.62s-2.25 7-2.25 7-4.45-2.67-9.34-1c-4.9 1.78-9 10.5-9 10.5h32s0-1.82-1-4.28c-1-2.52-3-4.61-3.22-5.55s0.3-5 2.2-6.45c1.9-1.26 2.36-2 0.63-6.3-1.73-4.25 3-25 7.86-31.8 4.87-6.8 1-13-3-19.5-3.78-6-15.6-30.4-16.4-40.4z"/>
		<path d="m352 202-43.7 10.7v7c0.3 4.4-4.33 6.61 13.8 28.6 10.6 17.2-4.4 22.5 0.5 29.4 4.88 7 13 28.7 10.6 31.7-2.52 3-1 6-1 5.98l-4 9s-1-2-7.4-0.9c-6.3 1-10.7 9.88-10.7 9.88h31v-4.13c-0.3-2-3-5.35-3-5.35l2-4s0.6 0.3 1.9-0.6c1.26-0.9 1.57-3.3 0.787-7.4-0.787-4-7.6-27-5.1-31.3s6-9.75 2.52-13.5c-3.46-3.78-1-24 10.3-55.7 1-3 1.7-6 2-9.2z"/>
		<path d="m236 115c8.45-27.8 74.4-41.3 85.6-25.5 11.2 15.8 13 107 7.35 117-5.61 10.6-81.7 23.5-90 17.3-8.24-6.22-11.5-81.2-3.03-109z" style="stroke-linecap:round;stroke-width:2;stroke:#fff"/>
		<path d="m252 85.2 29-0.865 26.8-11.7" style="fill:none;marker-mid:url(#a);stroke-width:2;stroke:#000"/>
		<path d="m300 75.7 7.53-0.683" style="fill:none;stroke:#000"/>
		<path d="m256 85-4.27 2.07" style="fill:none;stroke:#000"/>
		<path d="m259 84.8-7.75-2.47" style="fill:none;stroke:#000"/>
	</g>
</svg>
