<?xml version="1.0" standalone="no"?>
<!DOCTYPE svg PUBLIC "-//W3C//DTD SVG 20010904//EN"
 "http://www.w3.org/TR/2001/REC-SVG-20010904/DTD/svg10.dtd">
<svg version="1.0" xmlns="http://www.w3.org/2000/svg"
 width="700.000000pt" height="700.000000pt" viewBox="0 0 700.000000 700.000000"
 preserveAspectRatio="xMidYMid meet">
<metadata>
Created by potrace 1.14, written by Peter Selinger 2001-2017
</metadata>
<g transform="translate(0.000000,700.000000) scale(0.100000,-0.100000)"
fill="#000000" stroke="none">
<path d="M3300 6554 c-19 -2 -84 -9 -145 -15 -332 -32 -707 -143 -1025 -302
-586 -294 -1048 -749 -1351 -1332 -317 -608 -417 -1318 -283 -2007 149 -771
619 -1478 1279 -1927 402 -274 838 -439 1340 -507 181 -25 579 -25 760 0 362
49 693 150 992 301 l124 63 52 -23 c290 -128 926 -215 1562 -215 l180 0 -80
46 c-430 248 -717 484 -866 712 -67 102 -67 105 -25 155 344 401 589 909 685
1417 42 224 54 379 48 650 -5 254 -17 369 -62 580 -66 317 -222 697 -399 978
-490 776 -1297 1290 -2207 1407 -117 15 -503 28 -579 19z m415 -3054 l0 -1395
-220 0 -220 0 -3 1385 c-1 762 0 1391 3 1398 3 10 53 12 222 10 l218 -3 0
-1395z"/>
</g>
</svg>
