<?xml version="1.0" encoding="UTF-8"?>
<!-- Created with Inkscape (http://www.inkscape.org/) -->
<svg width="989" height="978" version="1.1" viewBox="0 0 989 978" xmlns="http://www.w3.org/2000/svg">
 <g transform="translate(-24 -32)">
  <path d="m335 343c0.8-9.9 5.8-39 9.8-56 7-31 37-21 31 9.7-1.2 5.9-3 16-4.1 22s-3.2 16-4.6 22l-2.6 11h-30l0.63-7.8"/>
  <path d="m558 351c-2.8-0.78-6.4-1.2-8.2-0.87-4.5 0.78 3.7-65 9.3-74 8.1-13 32-4.1 30 11-1.9 16-11 61-13 62-2.2 1.8-13 2.2-18 0.69"/>
  <path d="m286 377c-0.53-11-32 1.7-41-12-8.5-13-20-31-22-35-49-82-143-108-181-50-5 7.5-5 7.6 7.9 8.9 5.5 0.56 7 0.99 5.5 1.6-14 6.1-22 31-25 47-1.2 7.1-1.5 16-5.5 23-1.8 2.9-0.84 2.2 3.4 0.037 6.1-3.2 7.5-6.8 11-5.7 4.2 1.2 6.6 2 7.7 27 0.94 22 2.8 37 7 57 1.1 5.4 2 11 2 12 0 15 45-48 54-75 1.1-3.5 3.1-7.6 7.8-16 14-25 39-15 64 26 3 5 11 18 17 28 6.6 10 12 20 13 20 0.3 0.7-2.4 5.6-6 11-31 46-34 73-16 142 17 64 17 70-0.31 106-18 39-24 71-27 160-0.55 16-1.2 33-1.5 38-4 60-1.3 98 7.5 104 8.7 6.3 31 10 60 10 31 0.15 33-2 36-48 1.1-17-1.3-21-15-24-5.9-1.6-5.8-0.42-1.7-28 1.7-11 3.7-25 4.5-31 4.2-29 12-75 12-75 0.18 0.18 1.4 9.9 2.8 22 1.4 12 3.1 25 3.9 29 0.78 4.1 1.9 11 2.5 14 3.7 23 11 47 19 66 4.9 11 4.9 11 4.9 29 0.042 38 5 47 28 50 19 2.4 71-0.33 75-4 9-8.5 4.3-48-7.2-61-35-37-42-97-23-191 2.5-12 5.1-25 5.8-28 1.6-7.9 1.4-7.7 6.7-5.4 47 21 119 22 161 1.5 3.8-1.8 7.2-3.4 7.6-3.4 1.2 0 9.3 37 14 64 2.8 16 4.4 31 5.3 45 2.8 43 4.8 95 16 110 0.67 0.87 1.3 11 1.7 26 1.1 44 2.9 45 57 45 51-0.052 52-0.92 48-33-2.3-19-3.6-21-18-41-20-26-18-61-16-87 1.4-26 1.6-32 1.6-38 0.016-6.8 0.27-12 0.56-12 0.78 0.78 4.2 13 4.9 37 0.72 24 27 70 31 117 4.3 49 7.1 52 40 53 5.8 0.15 14 0.37 18 0.48 9.5 0.27 32-2.2 38-4 10-3.3 13-21 9.5-55-1.2-11-1.4-12-9.6-14-14-4.6-44-0.37-32-74 1.2-7.6 3.6-20 3-63-0.66-44-9-78-23-102-14-23-17-45-12-82 8.3-62 24-114 45-150s52-56 79-50c7.1 1.5 7.2 1.6 15 18 9.4 19 12 22 24 31 23 19 59 14 87-11 6.7-6 9.8-9.7 18-21 19-27 21-64 4.9-87-7.8-11-14-15-34-22-11-3.8-19-7.7-19-9.1-13-30-29-48-49-78-5.3-8.3-7.1-10-3.7-14 41-51 36-140-10-182-2-1.8-3.1-3.2-3.9-2.9-1.4 0.46-1.9 5.5-4.2 21-2.6 18-5.4 25-16 43-22 35-25 46-25 78l-0.018 19-4-6e-3c-23-0.036-29-3.9-29-17 0-47-42-122-67-120-32 3.1-29 75 5.2 138 11 21 11 20 1.9 26-8 5.3-12 9.6-14 14-1.5 3.5-2.6 3.6-5.9 0.51-10-9-24 7.7-28 19-0.2 0.6-21-4-22 1.8-0.47 4.8-5.7 14-13 16-19 6.3-22 11-16 22 5.5 9.1 5.5 8.9 1.3 8.2-8.1-1.3-22 1.5-25 5.1l-3.1 3.4 5.8 7.3c3.2 4 5.8 7.8 5.8 8.4 0.013 1.9-2.3 3.4-5.1 3.4-11 0-18 8.5-12 13 16 13 21 28 21 58-0.51 41-6.3 60-16 89-52 158-290 139-325-17-5.2-24-7.6-65-9-95zm16 41c4.6 1.2 4.1 15 4.2 19 2.2 88 87 166 184 144 69-15 118-59 122-138 0.83-19 2.5-24 10-25 7-1.4 7.4-24 6.2-43-1.2-18-5.9-23-22-22-32 2.2-123 2.9-220 1.7-83-1.1-83-1.8-86 1-10 11-8.2 60 1.5 62z"/>
  <circle cx="865" cy="266" r="17" fill="#fff"/>
  <ellipse cx="870" cy="267" rx="8.3" ry="12"/>
 </g>
</svg>
