<?xml version="1.0" encoding="UTF-8" standalone="no"?>
<!-- Created with Inkscape (http://www.inkscape.org/) -->

<svg
   width="807.67023"
   height="1095.4285"
   viewBox="0 0 807.67027 1095.4285"
   version="1.1"
   id="svg8"
   sodipodi:docname="foot-with-icicles.svg"
   inkscape:version="1.2.1 (9c6d41e410, 2022-07-14)"
   xml:space="preserve"
   xmlns:inkscape="http://www.inkscape.org/namespaces/inkscape"
   xmlns:sodipodi="http://sodipodi.sourceforge.net/DTD/sodipodi-0.dtd"
   xmlns="http://www.w3.org/2000/svg"
   xmlns:svg="http://www.w3.org/2000/svg"
   xmlns:rdf="http://www.w3.org/1999/02/22-rdf-syntax-ns#"
   xmlns:cc="http://creativecommons.org/ns#"
   xmlns:dc="http://purl.org/dc/elements/1.1/"><defs
     id="defs2" /><sodipodi:namedview
     id="base"
     pagecolor="#ffffff"
     bordercolor="#666666"
     borderopacity="1.0"
     inkscape:pageopacity="0.0"
     inkscape:pageshadow="2"
     inkscape:zoom="0.49497475"
     inkscape:cx="474.7717"
     inkscape:cy="406.08132"
     inkscape:document-units="px"
     inkscape:current-layer="layer1"
     showgrid="false"
     units="px"
     inkscape:window-width="1920"
     inkscape:window-height="1017"
     inkscape:window-x="1272"
     inkscape:window-y="505"
     inkscape:window-maximized="1"
     inkscape:showpageshadow="2"
     inkscape:pagecheckerboard="0"
     inkscape:deskcolor="#d1d1d1" /><metadata
     id="metadata5"><rdf:RDF><cc:Work
         rdf:about=""><dc:format>image/svg+xml</dc:format><dc:type
           rdf:resource="http://purl.org/dc/dcmitype/StillImage" /></cc:Work></rdf:RDF></metadata><g
     inkscape:label="Layer 1"
     inkscape:groupmode="layer"
     id="layer1"
     transform="translate(1.6088519,-95.128113)"><path
       style="fill:#000000"
       d="m 565.15233,988.01062 c -5.97076,-1.42911 -13.73499,-6.5854 -19.83169,-13.1704 -6.17792,-6.67273 -6.17792,-6.67273 -9.80385,-3.34981 -12.71523,11.65264 -43.59714,8.12316 -61.6206,-7.04259 -3.13958,-2.64177 -3.13958,-2.64177 -14.41074,0.17931 -23.09859,5.78141 -49.33213,3.86593 -84.03445,-6.13588 -39.58961,-11.41042 -48.82308,-11.73937 -89.73671,-3.19694 -63.72075,13.30436 -75.419,15.56137 -91.08189,17.57292 C 82.401848,987.28077 20.474328,951.78974 20.285948,872.94822 c -0.072,-30.11958 5.20046,-47.93887 31.9554,-108 25.09867,-56.34302 30.60814,-120.24378 19.65798,-228 -2.87837,-28.325 -6.1316,-60.65974 -7.2294,-71.85498 -2.38423,-24.31434 -8.2653,-71.10098 -10.9541,-87.14502 -1.06,-6.325 -2.63564,-16.45 -3.50143,-22.5 C 42.908308,304.39403 33.368228,267.35138 17.248888,227.44823 -3.8873417,175.12585 -6.8460017,140.82226 6.3167783,100.69823 8.2675883,94.75158 294.9203,92.783869 297.67334,98.698227 c 10.06063,21.613243 12.51506,54.394703 6.68236,89.250003 -4.43325,26.4924 -4.49669,27.14459 -5.59372,57.5 -2.26604,62.70241 -3.81545,84.72931 -9.63683,136.99999 -11.90211,106.87004 -3.90971,175.49692 28.18374,242 12.69564,26.30752 22.70321,36.89824 58.4054,61.80876 5.225,3.64564 13.325,9.58651 18,13.20193 11.41516,8.82793 26.45141,17.76964 36.91169,21.95054 15.59895,6.23478 43.33273,15.56708 60.08831,20.21947 24.34153,6.75872 24.89825,6.92731 32.5,9.84195 11.62874,4.45864 12.80139,4.95879 18.21676,7.76961 2.86921,1.48926 6.07661,2.70774 7.12755,2.70774 1.05094,0 2.47971,0.6855 3.17505,1.52332 1.36598,1.64591 20.63938,11.28999 27.98068,14.00107 11.431,4.22139 14.7708,4.75934 34,5.47656 25.883,0.96541 35.5091,4.08953 49.5115,16.06879 24.7934,21.21114 30.8018,22.0045 69.9481,9.23604 31.0374,-10.12355 54.6985,-3.56571 66.2441,18.36004 18.7082,35.52767 -3.6403,72.40011 -47.6752,78.65881 -8.3147,1.18176 -8.3147,1.18176 -8.1332,10.17856 0.802,39.76554 -32.3828,63.17276 -61.7902,43.58432 -4.3949,-2.92745 -4.3949,-2.92745 -10.5477,3.24252 -16.8363,16.8832 -45.5336,20.96879 -57.5372,8.19148 -2.3092,-2.45805 -2.3092,-2.45805 -7.9147,2.66558 -14.4086,13.17 -27.613,17.99989 -40.6675,14.87531 z"
       id="path300"
       sodipodi:nodetypes="ssssssssssssscsssssssssssssssssssssssssss" /><path
       style="fill:#000000;fill-opacity:1;stroke:none;stroke-width:1px;stroke-linecap:butt;stroke-linejoin:miter;stroke-opacity:1"
       d="m 41.248291,952.3424 26.428571,238.2142 25,-209.99992 c 0,0 -13.214285,-2.85714 -24.285714,-8.21428 -10.367598,-5.01657 -27.142857,-20 -27.142857,-20 z"
       id="path405"
       sodipodi:nodetypes="cccsc" /><path
       style="fill:#000000;fill-opacity:1;stroke:none;stroke-width:1px;stroke-linecap:butt;stroke-linejoin:miter;stroke-opacity:1"
       d="m 122.67686,986.98525 20,107.85715 12.85715,-107.14286 z"
       id="path407"
       sodipodi:nodetypes="cccc" /><path
       style="fill:#000000;fill-opacity:1;stroke:none;stroke-width:1px;stroke-linecap:butt;stroke-linejoin:miter;stroke-opacity:1"
       d="m 199.81972,985.69954 40,-8.57143 -21.42857,164.28569 z"
       id="path409"
       sodipodi:nodetypes="cccc" /><path
       style="fill:#000000;fill-opacity:1;stroke:none;stroke-width:1px;stroke-linecap:butt;stroke-linejoin:miter;stroke-opacity:1"
       d="m 252.10544,973.69954 30,-7.14286 -15.71428,145.71432 z"
       id="path411"
       sodipodi:nodetypes="cccc" /><path
       style="fill:#000000;fill-opacity:1;stroke:none;stroke-width:1px;stroke-linecap:butt;stroke-linejoin:miter;stroke-opacity:1"
       d="m 307.31972,965.55668 c 0,0 6.42857,-4.28571 19.28572,-4.28571 12.85714,0 30,7.14286 30,7.14286 l -20,183.57147 z"
       id="path413"
       sodipodi:nodetypes="csccc" /><path
       style="fill:#000000;fill-opacity:1;stroke:none;stroke-width:1px;stroke-linecap:butt;stroke-linejoin:miter;stroke-opacity:1"
       d="m 391.96258,971.44954 c 0,0 7.69826,2.38644 16.24999,3.92858 l 10.89286,1.96431 -10.71428,102.85707 z"
       id="path415"
       sodipodi:nodetypes="csccc" /><path
       style="fill:#000000;fill-opacity:1;stroke:none;stroke-width:1px;stroke-linecap:butt;stroke-linejoin:miter;stroke-opacity:1"
       d="m 497.37605,984.85786 15.20305,2.31617 -6.53009,66.20087 z"
       id="path468"
       sodipodi:nodetypes="cccc" /><path
       style="fill:#000000;fill-opacity:1;stroke:none;stroke-width:1px;stroke-linecap:butt;stroke-linejoin:miter;stroke-opacity:1"
       d="m 563.04612,997.19434 c 0,0 9.09137,4.04056 17.17259,2.0203 8.08122,-2.02031 20.20305,-9.59645 20.20305,-9.59645 l -18.18275,167.18021 z"
       id="path470"
       sodipodi:nodetypes="csccc" /><path
       style="fill:#000000;fill-opacity:1;stroke:none;stroke-width:1px;stroke-linecap:butt;stroke-linejoin:miter;stroke-opacity:1"
       d="m 629.73649,989.11311 28.28427,-5.05076 -13.13198,116.16755 z"
       id="path472" /><path
       style="fill:#000000;fill-opacity:1;stroke:none;stroke-width:1px;stroke-linecap:butt;stroke-linejoin:miter;stroke-opacity:1"
       d="m 757.01571,913.94341 c 10.35654,-2.11543 24.64166,-9.23085 35.35534,-16.34628 l -16.94851,158.13527 z"
       id="path474"
       sodipodi:nodetypes="cccc" /><path
       style="fill:#000000;fill-opacity:1;stroke:none;stroke-width:1px;stroke-linecap:butt;stroke-linejoin:miter;stroke-opacity:1"
       d="m 701.43702,977.0522 c 0,0 11.11167,2.0203 24.24366,-7.07107 13.13198,-9.09137 14.14213,-14.14214 14.14213,-14.14214 l -19.85642,137.40181 z"
       id="path476"
       sodipodi:nodetypes="csccc" /><path
       style="fill:#000000;fill-opacity:1;stroke:none;stroke-width:1px;stroke-linecap:butt;stroke-linejoin:miter;stroke-opacity:1"
       d="m 451.94964,979.01159 16.16244,-4.04061 11.11168,5.05076 -15.44815,122.34236 z"
       id="path478"
       sodipodi:nodetypes="ccccc" /></g></svg>
