<?xml version="1.0" encoding="UTF-8"?>
<svg xmlns="http://www.w3.org/2000/svg" xmlns:xlink="http://www.w3.org/1999/xlink" xml:space="preserve" width="317" height="264">
  <path fill="none" stroke="#000" stroke-width="2" d="m125 241 73.1-73.1M153 259l73.1-79.1M200 263l73.9-83.4M117 114l64.5-76.5M86.1 94.9l59.4-84.7M49.1 92.4l52-91.9"/>
  <g id="a" fill="none" stroke="#000" stroke-width="2">
    <g stroke-linecap="round" stroke-linejoin="bevel" transform="translate(41.9 69.8)">
      <circle cx="178" cy="95.9" r="6.2"/>
      <circle cx="188" cy="81.3" r="7.8"/>
      <circle cx="207" cy="71" r="9.9"/>
    </g>
    <path stroke-linejoin="round" d="M255.9 121.4s-10 11.3-18.1 4c-6.8-6 3.4-17.1 3.4-17.1S225 108 227.5 95s18.4-7.4 18.4-7.4-1-14.6 9.8-13.9 10 10.9 10 10.9 4-11.7 13.1-10.3 7 13.1 7 13.1 12.2-11.5 18.5-4c6.4 7.6-3.6 16.1-3.6 16.1s14-2 14 9.8c0 11.7-15.8 7.9-15.8 7.9s6.5 11.9-4 15.8-14-10.3-14-10.3-1 13.5-7.9 14.6c-14.9 2.4-17-16-17-16z"/>
  </g>
  <use xlink:href="#a" transform="matrix(-1 0 0 1 317 24.6)"/>
</svg>
