<svg width="309" height="300.5" version="1.1" viewBox="0 0 79.52 84.52" xmlns="http://www.w3.org/2000/svg">
	<g transform="translate(-10.97 -12.43)">
		<path d="m10.36 95.44c-5.703-2.914-3.517-16.1 7.564-16.69 7.804-0.4146 7.786 3.56 7.786 3.56s0.2225-11.35 7.564-12.46 7.786 5.117 7.786 5.117 1.557-11.79 12.68-10.01 8.454 10.68 8.454 10.68 6.791-3.919 12.46-0.2225c5.117 3.337 3.337 10.46 3.337 10.46s2.15-8.287 10.46-4.894 5.913 13.71 2.892 14.46-75.28 2.914-80.98 0z"/>
		<path d="m51.53 12.43c-36.42-0.1448-33.83 29.17-33.83 29.17l-0.3538 35.54c0.1608-0.01947 0.3201-0.04264 0.4823-0.05878 0.3272-0.03256 0.6566-0.05738 0.9871-0.07361 0.1653-0.0081 0.331-0.01424 0.4966-0.01758 0.1656-0.0033 0.3311-0.0041 0.4966-0.0022 0.1655 0.0019 0.3309 0.0067 0.496 0.01428 0.1651 0.0076 0.33 0.0181 0.4944 0.03186 0.1644 0.01376 0.3283 0.03071 0.4916 0.05109s0.3264 0.04395 0.4883 0.07141 0.3227 0.05893 0.4828 0.09393 0.3198 0.07345 0.4779 0.1165c0.1581 0.04301 0.3151 0.09025 0.4708 0.1417 0.1557 0.05147 0.3096 0.1071 0.4625 0.1675 0.1529 0.0604 0.3045 0.1258 0.4543 0.1956 0.1498 0.06978 0.2981 0.1445 0.4444 0.2241 0.071-0.3419 0.1526-0.6816 0.2422-1.019 0.08965-0.3374 0.1873-0.6729 0.2889-1.007 0.05956-0.1874 0.1226-0.3744 0.189-0.5614 0.06641-0.187 0.1359-0.3739 0.2093-0.5598 0.07343-0.1859 0.1507-0.371 0.2313-0.5548 0.0806-0.1838 0.1647-0.3662 0.2527-0.5471 0.08795-0.1809 0.1798-0.3601 0.2752-0.5372 0.09545-0.1771 0.1946-0.3521 0.2977-0.5246 0.1031-0.1725 0.2098-0.3428 0.3208-0.5098s0.226-0.331 0.345-0.4916c0.1189-0.1606 0.242-0.3179 0.3691-0.4713 0.1271-0.1534 0.2584-0.3029 0.3939-0.4482 0.1354-0.1453 0.2747-0.2861 0.4186-0.4224s0.2924-0.2684 0.4449-0.395c0.1526-0.1265 0.3094-0.2478 0.4708-0.3636 0.1614-0.1158 0.3273-0.2259 0.4977-0.3301 0.1703-0.1043 0.3451-0.2026 0.5246-0.2944 0.1795-0.09185 0.3638-0.1774 0.5526-0.256 0.1878-0.07811 0.3783-0.1509 0.5718-0.2181 0.1936-0.06722 0.39-0.1286 0.5883-0.1846 0.1984-0.05599 0.3988-0.1066 0.601-0.1511 0.2022-0.04442 0.4059-0.08286 0.6108-0.1154 0.2049-0.0325 0.4113-0.05887 0.618-0.0791s0.4139-0.03413 0.6213-0.04175c0.2074-0.0076 0.4147-0.0092 0.6218-0.0038 0.2071 0.0053 0.4138 0.01763 0.6196 0.03625 0.2058 0.01863 0.4112 0.04353 0.6147 0.07581 0.2035 0.03227 0.4057 0.07184 0.6059 0.1181 0.2002 0.04626 0.3985 0.09926 0.5944 0.1599 0.1959 0.0606 0.389 0.1285 0.5795 0.2038 0.1905 0.07527 0.3783 0.158 0.5625 0.2483 0.1842 0.09029 0.3649 0.1882 0.5416 0.2939s0.3496 0.2192 0.518 0.3406 0.3321 0.2504 0.4911 0.3878c0.08153 0.0899 0.158 0.1741 0.2291 0.2395 0.03554 0.03272 0.06997 0.06104 0.1027 0.08295 0.03275 0.02191 0.06408 0.03762 0.09393 0.04559 0.02985 8e-3 0.05831 8e-3 0.08514-0.0011s0.05211-0.02732 0.07581-0.05658c0.02369-0.02926 0.04548-0.06937 0.06592-0.1219 0.02044-0.05258 0.03951-0.1176 0.05658-0.1967 0.1087-0.2377 0.2255-0.4717 0.3505-0.7015 0.1249-0.2298 0.258-0.4553 0.3983-0.6762s0.288-0.4375 0.4427-0.6487c0.1548-0.2113 0.3166-0.4173 0.485-0.618 0.1684-0.2007 0.3434-0.3963 0.5246-0.5856 0.1812-0.1893 0.3683-0.3723 0.5614-0.5493 0.1931-0.1771 0.3919-0.348 0.596-0.512 0.2041-0.164 0.4136-0.3213 0.6279-0.4713 0.2143-0.15 0.4334-0.2927 0.657-0.4279 0.2236-0.1352 0.4519-0.2628 0.6839-0.3823s0.4679-0.2305 0.7075-0.3334c0.2396-0.103 0.4826-0.1979 0.7289-0.2834 0.2463-0.08557 0.4955-0.1623 0.7476-0.2296 0.2521-0.06733 0.5075-0.1254 0.7646-0.1736 0.2571-0.04823 0.516-0.08653 0.7773-0.1148 0.1306-0.01414 0.2618-0.02562 0.3933-0.03461 0.1315-9e-3 0.2633-0.01549 0.3955-0.01923 0.3457-0.0084 0.6926-0.0081 1.039 0.0016 0.3467 0.0097 0.6938 0.02898 1.04 0.05768 0.3461 0.02869 0.6911 0.06686 1.035 0.1154 0.1719 0.02425 0.3436 0.0514 0.5147 0.08075s0.3419 0.06102 0.512 0.09558c0.17 0.03457 0.3394 0.07163 0.5081 0.1115 0.1688 0.03988 0.337 0.08269 0.5043 0.128 0.1673 0.0453 0.3337 0.09309 0.4993 0.1439 0.1657 0.05083 0.3306 0.1045 0.4944 0.161 0.1638 0.05646 0.3266 0.1158 0.4883 0.178 0.1618 0.0622 0.3222 0.1275 0.4818 0.1956 0.1595 0.06804 0.3181 0.1391 0.4752 0.2131 0.1571 0.07399 0.313 0.1507 0.4675 0.2307 0.1957 0.08908 0.3868 0.1856 0.574 0.2889 0.1872 0.1033 0.3705 0.2134 0.5488 0.3301s0.3519 0.2399 0.5208 0.3691c0.1689 0.1292 0.3332 0.2645 0.4922 0.4054s0.3127 0.2878 0.4614 0.4395c0.1487 0.1517 0.2927 0.3081 0.4307 0.4697s0.2703 0.3281 0.3972 0.4988 0.2479 0.3457 0.3631 0.5246c0.1152 0.1789 0.2243 0.3615 0.3274 0.5477 0.1031 0.1862 0.2 0.3758 0.2906 0.5685 0.09058 0.1927 0.1751 0.3889 0.2527 0.5872 0.07761 0.1983 0.1484 0.399 0.2126 0.602 0.06419 0.2031 0.1216 0.4083 0.1719 0.6152 0.05033 0.207 0.09363 0.4157 0.1296 0.6257 0.03601 0.21 0.06499 0.4212 0.08624 0.6334s0.0346 0.4254 0.04065 0.6389c0.1934-0.06328 0.3887-0.1231 0.585-0.1796 0.1963-0.05657 0.394-0.1097 0.5927-0.1593 0.1987-0.04956 0.3985-0.09563 0.5993-0.1379 0.2008-0.04225 0.4024-0.08071 0.6048-0.1154 0.2024-0.03464 0.4056-0.06555 0.6092-0.09229 0.2036-0.02674 0.4075-0.04958 0.6119-0.06812 0.2044-0.01853 0.4093-0.03282 0.6141-0.04285 0.2049-0.01003 0.4098-0.0158 0.6147-0.01703 0.2049-0.0012 0.4097 2e-3 0.6141 0.0099 0.2045 0.0079 0.4088 0.02063 0.6125 0.0379 0.2037 0.01727 0.4068 0.03895 0.6092 0.06592 0.2024 0.02697 0.404 0.05916 0.6048 0.09613 0.2008 0.03697 0.4005 0.07907 0.5993 0.1263 0.1988 0.04727 0.3969 0.09979 0.5933 0.1577 0.1964 0.05786 0.391 0.1208 0.5845 0.1895 0.1935 0.06876 0.386 0.1431 0.5762 0.223 0.1905 0.07172 0.3776 0.1505 0.5614 0.2351 0.1838 0.0846 0.3643 0.1751 0.5411 0.2719 0.1768 0.0968 0.3502 0.1998 0.5197 0.3082 0.1694 0.1083 0.3349 0.2219 0.4966 0.3411 0.1616 0.1192 0.3189 0.2441 0.4724 0.3735 0.1535 0.1294 0.3032 0.2637 0.4482 0.4026s0.2857 0.2823 0.4219 0.4301 0.2675 0.2999 0.3944 0.4559c0.1269 0.156 0.2491 0.316 0.3664 0.4796 0.1173 0.1635 0.2299 0.3306 0.3373 0.501s0.21 0.3442 0.3071 0.5208c0.09707 0.1766 0.1888 0.3557 0.2752 0.5378 0.08639 0.1821 0.1675 0.3673 0.2428 0.5543 0.07534 0.187 0.1448 0.3757 0.2087 0.5669 0.06393 0.1911 0.122 0.3843 0.1741 0.579 0.05216 0.1947 0.09841 0.3908 0.1384 0.5883 0.1369-0.09788 0.2765-0.1905 0.4186-0.278 0.1421-0.0875 0.2866-0.1698 0.4334-0.2472 0.1468-0.07739 0.2961-0.15 0.4471-0.2175 0.151-0.06757 0.3039-0.1298 0.4587-0.1879 0.1548-0.05802 0.3117-0.1116 0.4697-0.1604 0.158-0.04875 0.3172-0.09262 0.4779-0.1324 0.1607-0.03976 0.3226-0.07552 0.4856-0.1066 0.163-0.03105 0.3269-0.05759 0.4916-0.0802s0.3301-0.04102 0.496-0.05548c0.1659-0.01446 0.3327-0.02473 0.4993-0.03131 0.1667-0.0066 0.3335-0.0093 0.5004-0.0082 0.1669 1e-3 0.3338 0.0054 0.5004 0.01373 0.1666 0.0083 0.3329 0.02031 0.4988 0.03571 0.1659 0.01539 0.3314 0.03442 0.496 0.05658 0.1646 0.02216 0.3282 0.04771 0.4911 0.07636 0.1629 0.02865 0.325 0.06018 0.4856 0.09503 0.1793 0.02632 0.3569 0.05928 0.5334 0.09833 0.01145 0.0025 0.02262 0.0062 0.03406 0.0088l0.529-43.05s3.114-22.47-35.15-23.58c-0.5979-0.01738-1.186-0.02736-1.764-0.02966zm-17.68 16.43c3.729 0.1395 5.91 8.5 5.91 8.5l30.75-0.4724s4.798-10.38 10.54-4.641c5.742 5.742-6.135 8.259-6.135 8.259s10.38 5.363 3.775 9.989-9.203-5.034-9.203-5.034l-28.47-0.7866s-3.859 7.401-9.517 2.91c-5.658-4.491 2.517-8.023 2.517-8.023s-8.416-3.697-2.989-9.281c1.018-1.047 1.961-1.453 2.821-1.421z"/>
	</g>
</svg>
