<svg width="420" height="240" version="1.1" viewBox="0 0 108.1 67.5" xmlns="http://www.w3.org/2000/svg">
	<g transform="translate(-16.81 -22.82)">
		<path d="m66.87 25.89c-7.928 0.7262-11.96-7.079-33.82 2.359-21.87 9.439-19.24 19.51-19.35 23.84-0.1049 4.333 16.2 38.38 55.69 38.07 39.48-0.3146 49.71-38.54 49.55-41.22-0.1573-2.674-3.586-18.51-20.32-23.78-16.73-5.269-23.83-8e-3 -31.75 0.7182zm14.73 7.399c3.745 0.02842 8.771 0.5291 15.95 1.906 16.92 3.244 18.58 10.55 18.88 13.44 0.2972 2.885 1.101 23.28-50.81 23.28-51.91 0-48.92-17.05-49.08-19.98-0.1601-2.924-0.9438-9.505 19.82-15.33 20.76-5.82 22.5-1.192 29.89-1.506 5.083-0.2163 7.118-1.877 15.36-1.815z"/>
		<path d="m51.24 31.5s-1.125 11.11 0.4219 13.5c0.8263 1.277 12.36 1.142 12.94-0.1406 1.266-2.812 0.5625-11.67 0.5625-11.67z"/>
		<path d="m49.7 32.2s1.496 9.628 0.1406 11.39c-1.406 1.828-6.75 2.391-8.719 0.4219-1.134-1.134-0.9844-10.12-0.9844-10.12z"/>
		<path d="m80.4 31.36s1.132 11.11-0.4244 13.5c-0.8312 1.277-12.43 1.142-13.01-0.1406-1.273-2.812-0.5658-11.67-0.5658-11.67z"/>
		<path d="m92.21 32.34s-1.133 11.31 0.3174 12.14c1.451 0.8304 3.968-0.5949 5.079-1.705 1.111-1.11 1.587-9.955 1.587-9.955z"/>
		<path d="m81.9 31.64s-1.472 9.628-0.1384 11.39c1.384 1.828 6.642 2.391 8.579 0.4219 1.116-1.134 0.9686-10.12 0.9686-10.12z"/>
		<path d="m39.06 33.05s1.127 11.31-0.3156 12.14c-1.442 0.8304-3.944-0.5949-5.049-1.705-1.104-1.11-1.578-9.955-1.578-9.955z"/>
		<path d="m31.64 36.22s1.392 6.762 0.3977 7.955c-0.9944 1.193-5.966 2.188-7.358 0.9944-1.392-1.193-1.193-5.568-1.193-5.568z"/>
		<path d="m99.99 33.84s-1.413 7.896-0.4038 9.289c1.01 1.393 6.058 2.554 7.471 1.161 1.413-1.393 1.212-6.502 1.212-6.502z"/>
		<path d="m64.06 73.01s0.7955-7.557 0-9.347c-0.7955-1.79-7.557-1.79-8.552-0.5966-0.9944 1.193-0.5966 10.14-0.5966 10.14z"/>
		<path d="m53.92 72.42s0.7955-7.557 0-9.347c-0.7955-1.79-7.557-1.79-8.552-0.5966-0.9944 1.193-0.5966 10.14-0.5966 10.14z"/>
		<path d="m43.57 72.22s0.7188-8.923-0.1406-10.68c-1.217-2.493-7.065-0.1024-8.059 1.091-0.9944 1.193-0.9482 9.791-0.9482 9.791z"/>
		<path d="m33.31 71.24s0.6138-6.872 0-8.5c-0.6138-1.628-5.832-1.628-6.599-0.5426-0.7673 1.085-0.4604 9.224-0.4604 9.224z"/>
		<path d="m65.33 73.01s-0.7941-7.557 0-9.347c0.7941-1.79 7.544-1.79 8.536-0.5966 0.9926 1.193 0.5955 10.14 0.5955 10.14z"/>
		<path d="m75.45 72.42s-0.7941-7.557 0-9.347 7.544-1.79 8.536-0.5966c0.9926 1.193 0.5955 10.14 0.5955 10.14z"/>
		<path d="m85.77 72.22s-0.7175-8.923 0.1404-10.68c1.215-2.493 7.052-0.1024 8.045 1.091 0.9926 1.193 0.9465 9.791 0.9465 9.791z"/>
		<path d="m96.02 71.24s-0.6127-6.872 0-8.5c0.6127-1.628 5.821-1.628 6.587-0.5426s0.4596 9.224 0.4596 9.224z"/>
		<path d="m77.23 43.43-2.324 15.91 29.15 2.851s11.96-0.6213 25.56-4.614c-13.97-7.404-23.75-10.5-23.75-10.5z"/>
	</g>
</svg>
