<?xml version="1.0" encoding="UTF-8"?>
<svg width="156" height="182" version="1.1" viewBox="0 0 156 182" xml:space="preserve" xmlns="http://www.w3.org/2000/svg"><g transform="translate(-65.9 -48.6)"><path d="m177 49.5c-5.1 1.65-8 2.07-11.8 1.68-8.17-0.833-10.8 1.37-8.97 7.62 1.22 4.24 0.687 7.83-2.87 19.4-2.77 9.02-4.27 15.3-5.05 21.2-2.22 6.59-1.19 10.6-0.723 16.7-0.0736 0.249-3.05-0.249-6.18-1.03-3.81-0.955-4.6-1.03-8.65-0.768-1.99 0.127-18.2-0.505-21.4-1.06-27.2-4.6-46.1 49.5-13.2 86 3.56 4.07 4.09 4.27 9.63 3.69 8.75-0.928 11 0.453 10.1 6.11-0.48 2.97-0.725 3.48-1.46 3.05-0.483-0.277-0.417-0.0682 0.551 1.72 0.389 0.72 2.05 9.02 4.64 9.52 1.61 1.7 5.26 3.85 5.87 3.82-0.169-0.969 0.042-0.954 2.29 0.16 2.43 1.21 4.91 2.09 2.36-0.514-0.0193-0.0435 0.45-0.0902 1.04-0.104 2.63-0.0593 10.1-2.14 8.71-2.43 0.908-0.829 6.69-6.14 6.16-6.37-0.534-0.236-0.468-0.319 1.1-1.36 4.36-2.89-3.39-1.83-3.39-2.98 0.264-2.92-0.643-5.58-1.62-8.26 9.22 4.18 19.5 8.43 25.5 17 2.21 3.66 3.41 5.1 5.17 6.22 0.813 0.515 1.69 1.09 1.94 1.29 2.16 1.63 1.91-1.44-0.256-3.17-1.17-0.94-1.71-2.8-0.652-2.27 0.209 0.104 1.61 1.14 3.11 2.3 3.63 2.81 5.01 3.19 5.59 1.51 0.355-1.03 0.14-1.35-0.867-1.26-0.479 0.0401-1.02-0.124-1.21-0.369-0.957-1.2-4.02-3.13-3.33-3.43 0.221-0.0984 1.63 1.04 3.52 2.84 1.46 1.4 4.36-1.58 2.93-3.01-0.311-0.311-1.2 0.0182-1.26 0.467-0.0808 0.596-0.482 0.493-1.13-0.293-0.961-1.17-1.09-1.58-0.359-1.14 0.394 0.237 0.867 0.26 1.31 0.0605 0.787-0.35 1.12-1.39 0.727-2.27-0.168-0.377-0.388-0.486-0.699-0.348-1.19 0.531-7.16-6.5-11.5-7.22-0.849-0.139-1.95-0.374-2.44-0.521-0.966-0.288-5.72-4.11-11-8.82-8.84-7.94-11.6-9.52-19.7-11.5-1.13-0.27-2.03-0.536-2-0.59 0.171-0.367 4.04-1.03 4.89-0.844 3.09 0.693 7.15 1.28 10.7 1.56 8.47 0.652 14.2 1.62 23.3 3.97 2.78 0.488 5.32 1.32 7.81 2.65 3.8 2.12 7.37 3.46 8.23 3.09 0.181-0.0779 1.2-0.118 2.26-0.0898 2.26 0.0593 2.93-0.331 5.1-2.97 2.25-2.73 0.907-3.81-1.8-1.46-1.54 1.33-3.55 1.73-5.03 0.996 1.99-0.108 5.31-1.38 7.51-3.38 0.92-0.955-0.495-2.53-1.77-1.96-1.23 0.546-6.44 0.613-6.67 0.0859-0.133-0.298-0.17-0.281 1.88-0.861 1.4-0.395 1.78-0.615 2.72-1.54 1.97-1.97 0.534-2.79-2.51-1.43-2.05 0.911-2.79 0.907-7.99-0.0391-2.29-0.418-3.31-0.449-4.88-0.152-6.31 1.19-14.9-6.03-32.2-9.85-5.34-1.18-6-1.23-9.16-0.723-5.4 0.875-8.41-0.113-14.6 1.17-2.8 0.574-2.43 0.891-3.91-3.41-2.37-6.9-3.68-9.93-4.96-11.5-7.87-9.47-0.175-21.8 4.64-20.1 7.7 0.801 40.8-4.45 44.5-13 2.55-6.65 22.8-35.9 30.8-41.3 3.18-2.17 14.6-3.67 19.3-2.54 6.78 1.65 9.38-1.73 3.55-4.62-1.5-0.743-3.28-1.85-3.97-2.46-4.94-4.36-7.99-0.733-15.1-6.07-7.03-5.29-10.6-4.75-12.5 1.92-1.53 5.39-2.41 6.6-10.3 14.2-4.81 4.64-11.4 9.78-12.1 9.5 0.0735-19.4 1.3-38.6 22.3-45.4 2.95-0.73 3.81-1.27 3.58-2.25-0.185-0.795-6.22-5.15-14.3-2.53z"/><g><path d="m98.1 214s-11.3 0.238-12.5-3.86c-1.2-4.1 5.13-3.08 5.13-3.08s-1.03-5.98 3.42-5.64c4.44 0.342 3.96 12.6 3.96 12.6z"/><path d="m84.4 195s2.39-8.89-1.37-13c-3.76-4.1-5.13 3.42-5.13 3.42s-6.19-2.72-5.17 3.78 11.7 5.79 11.7 5.79z"/><path d="m145 173s-3.76-8.2-0.342-13.3c3.42-5.13 5.47 4.79 5.47 4.79s6.49-5.81 6.49 0.342c0 6.15-11.6 8.2-11.6 8.2z"/><path d="m77.2 214s2.73-9.91-1.37-13.3c-4.1-3.42-5.13 4.44-5.13 4.44s-6.15-2.22-4.44 3.76c1.51 5.27 10.9 5.13 10.9 5.13z"/><path d="m136 160s-6.52-7.15-4.61-11.1c2.05-4.27 5.47 1.2 5.47 1.2s4.44-3.42 5.98-0.171c1.54 3.25-6.84 10.1-6.84 10.1z"/><path d="m128 173s-5.13-5.47-3.76-8.55 4.1 0 4.1 0 2.39-2.73 4.1 0c1.71 2.73-4.44 8.55-4.44 8.55z"/></g></g></svg>
