<svg width="200" height="200" version="1.1" viewBox="0 0 200 200" xmlns="http://www.w3.org/2000/svg">
	<path d="m71.1 95.4-9.89-4.95v-7.15l3.31-4.97 0.421 0.176c0.231 0.0967 4.69 2.31 9.91 4.92 5.22 2.61 9.51 4.74 9.54 4.74 0.0324 0 0.059-0.727 0.059-1.62v-1.62l6.57-3.28v-5.4l8.27-4.14c4.55-2.27 8.3-4.14 8.33-4.14 0.0317 0 0.771 1.07 1.64 2.38l1.59 2.38v-6.16h0.176c0.097 0 3.45-1.64 7.45-3.64 4-2 7.31-3.64 7.36-3.63 0.0486 0.0011 1.21 1.69 2.58 3.75l2.49 3.75v15.3l-10 5.01-3.2-1.6c-3.75-1.87-3.31-1.75-3.32-0.923-2e-3 0.918 0.373 0.666-5.01 3.36-5.62 2.81-4.81 2.61-6.72 1.66l-1.52-0.764v1.53l-10 5.02-3.23-1.62v3.29l-3.29 1.64c-1.81 0.903-3.36 1.64-3.43 1.63-0.0767-3e-3 -4.59-2.23-10-4.96zm-44.7-12.4-4.96-2.49v-15.4l2.48-3.73c1.37-2.05 2.53-3.73 2.58-3.73 0.161 0 14.8 7.32 14.9 7.45 0.0477 0.0645 0.0741 3.55 0.0587 7.75l-0.028 7.63-4.93 2.49c-5.87 2.96-4.22 2.96-10.1 3.2e-5zm19.9-0.793-3.26-1.64 2.34e-4 -3.61 2.35e-4 -3.61 6.64-3.32c3.65-1.83 6.65-3.31 6.67-3.29 0.0138 0.0198 0.149 0.221 0.301 0.447 0.152 0.226 0.29 0.43 0.308 0.453 0.0174 0.0234 1.22-0.571 2.68-1.32 1.46-0.751 5.79-2.92 9.62-4.81l6.97-3.45 3.3 4.97v4.28l-1.35 0.672c-1.5 0.749-1.58 0.861-0.821 1.23 0.775 0.376 0.691 0.479-1.14 1.4l-1.67 0.836-1.65-0.817-2.96 1.48c-3.19 1.59-3.32 1.7-2.49 2.07 0.764 0.345 0.63 0.511-1.12 1.38-1.84 0.916-1.73 0.898-2.67 0.424l-0.725-0.366-3.24 1.61v1.65l-4.99 2.49c-2.74 1.37-5.03 2.49-5.08 2.49-0.0482-0.0033-1.55-0.743-3.34-1.64zm-43-18.2-3.31-1.65v-10.1l4-1.99-2.35-1.17v-7.84c0-4.94 0.0414-7.82 0.112-7.77 0.0616 0.038 0.801-0.276 1.64-0.698l1.53-0.767v-11.7h0.164c0.0902 0 3.43-1.64 7.41-3.64 3.99-2 7.29-3.64 7.35-3.64 0.0543 0 1.21 1.66 2.56 3.7l2.47 3.7v2.23c0 1.23 0.0269 2.23 0.0597 2.23 0.227 0 5.22-2.61 5.22-2.73 0-0.0821-0.448-0.371-0.995-0.643l-0.995-0.493-0.0318-2.32-0.0318-2.32 2.05-3.1v-3.37l1.37-0.653 0.842 0.424c0.478 0.241 0.842 0.5 0.842 0.599 0 0.119 1.31-0.48 4.11-1.88l4.11-2.05 10 5.03 3.29 5-0.0636 4.64-6.63 3.31-6.63-3.32-6.62 3.31-0.985-0.489c-1.27-0.632-1.27-0.65-0.0283 1.21l1.07 1.59v4.29l-1.35 0.672c-1.5 0.748-1.58 0.866-0.821 1.23 0.775 0.376 0.693 0.474-1.17 1.4l-1.69 0.845-1.61-0.838-6.62 3.31v11.6l-6.57 3.28-0.0613 9.14-2.58 1.31c-1.42 0.718-3.3 1.65-4.17 2.07l-1.59 0.768zm79.5-2.47-4.96-2.51-0.0619-7.52 3.3-4.96c1.82-2.73 3.32-4.98 3.33-5 0.0164-0.0198 3.79 1.84 8.37 4.14l8.34 4.17v7.51l-13.4 6.69zm-44.8-9.13-9.89-4.95v-7.57l8.21-4.11c4.52-2.26 8.27-4.11 8.33-4.11 0.154 0 6.69 9.8 6.69 10 0 0.252-0.459 0.466 6.69-3.11l6.57-3.29 3.29 4.92v7.22l-9.92 4.96c-5.45 2.73-9.96 4.95-10 4.95-0.0483-0.0033-4.54-2.23-9.97-4.96zm71.2 2.49-4.9-2.46v-7.16l1.64-2.46c0.904-1.35 1.7-2.46 1.76-2.46s2.28 1.08 4.93 2.41c2.65 1.32 4.84 2.41 4.87 2.41 0.0327 0 0.0592-1.85 0.0592-4.11v-4.11l2.47-3.7c1.36-2.03 2.5-3.7 2.53-3.7s3.34 1.64 7.33 3.64c3.99 2 7.34 3.64 7.44 3.64h0.181v15.6l-9.97 4.99-6.63-3.32-3.23 1.62c-3.89 1.96-2.67 2.08-8.48-0.838zm33.9-9.56-4.08-2.05v-9.97l-0.205-0.0065c-0.113-0.0033 2.04-1.14 4.78-2.52l4.99-2.51 5.46-0.013v0.883l1.76 1.76c1.03 1.03 1.74 1.82 1.7 1.91-0.0328 0.0855-0.0624 2.25-0.0658 4.81-8e-3 5.57 0.759 4.45-5.02 7.34-5.76 2.88-4.42 2.83-9.33 0.363zm-75.2-11.1-6.64-3.3v-6.78l1.65-2.16c0.907-1.19 1.69-2.16 1.75-2.16 0.0551 0 0.857 0.244 1.78 0.541l1.68 0.541 4.78 2.39c2.63 1.32 4.81 2.39 4.84 2.39 0.0326 0 0.0593-1.65 0.0593-3.67l1.17e-4 -3.67 1.52-2.28c1.85-2.78 2.17-2.73-2.51-0.394l-3.94 1.97-6.69-3.34v-5l-0.824-0.393 2.53-5.03 5.01-3.76 3.33 1.66 2.46 1.87c3.44 2.6 5.67 4.75 4.52 4.35l-0.358-0.125v1.4c0 1.68-0.0774 1.65 0.821 0.287 0.897-1.36 0.067-1.55 5.9 1.37 2.73 1.37 5.26 2.63 5.63 2.81l0.677 0.327 1.81-2.72 9.98-4.98 8.21 4.06 0.0742-0.2c0.0408-0.11 0.441-0.377 0.889-0.594l0.815-0.394 1.22 0.616v3.29l1.99 2.99v-5.22l8.33-4.16 6.69 3.34v1.58c0 0.871 0.0228 1.58 0.0506 1.58s0.758-0.348 1.62-0.772l1.57-0.772 6.73 3.36v10l-8.33 4.17-6.69-3.34v-3.29l-3.29 1.65-6.62-3.31-1.03 0.506c-0.723 0.354-1.03 0.569-1.03 0.715 0 0.287-1.48 1.03-1.89 0.953-0.208-0.0398-0.666 0.126-1.49 0.54l-1.19 0.597-6.65-3.32-9.85 4.95c-5.42 2.72-9.92 4.95-10 4.95-0.0789 0-1.57-0.713-3.31-1.58-1.74-0.871-3.19-1.58-3.23-1.58-0.0328 0-0.0595 1.47-0.0595 3.26v3.26l-6.66 3.33z" style="stroke-width:.117"/>
	<path d="m15 61.4 0.0614-9.14 6.57-3.28v-11.6l6.62-3.31 1.61 0.838 3.31-1.81-0.914-0.784 2.64-1.56v-4.29l-1.99-3.16 1.94 0.844 6.62-3.31 6.63 3.32 6.63-3.31 0.0636-4.64-3.29-5-10-5.03-8.21 3.93-1.68-1.02-1.37 0.653v3.37l-2.05 3.1 0.0637 4.64 1.99 1.14-5.22 2.73-0.0597-4.46-5.03-7.39-14.8 7.28-0.164 11.7-3.17 1.47-0.112 15.6 2.35 1.17-4 1.99v10.1l6.62 3.31z"/>
	<path d="m26.5 57.6 14.9 7.45 0.0306 15.4-9.86 4.71-10.1-4.7v-15.4z"/>
	<path d="m28.2 47.3v-7.57l16.5-8.21 6.81 10.2 13.1-6.56 3.29 4.92v7.22l-19.9 9.91z"/>
	<path d="m43.1 80.5 4.58e-4 -7.22 13.3-6.61 0.609 0.9 19.3-9.58 3.3 4.97v4.28l-2.84 1.53 1.39 0.743-3.57 1.9-1.58-0.928-6.08 3.2 1.35 0.835-3.71 1.86-1.49-0.882-3.3 1.65v1.65l-10.1 4.98z"/>
	<path d="m77.8 51.4 6.64-9.95 16.7 8.31v7.51l-13.4 6.69-9.93-5.03z"/>
	<path d="m81.3 27.6-0.0595 6.51-6.66 3.33-13.3-6.6v-6.78l3.4-4.33 3.46 1.08 9.63 4.78 0.0595-7.33 2.78-4.35-7.71 3.65-6.69-3.34v-5l-0.824-0.393 2.53-5.03 5.01-3.76 3.33 1.66 4.58 3.53 2.71 2.64-0.658-0.0805 0.0853 2.69 1.54-2.12 11.4 5.63 1.81-2.72 9.98-4.98 8.21 4.06 0.0741-0.2 1.7-0.988 1.22 0.616v3.29l1.99 2.99v-5.22l8.33-4.16 6.69 3.34 0.0506 3.17 3.2-1.54 6.73 3.36v10l-8.33 4.17-6.69-3.34v-3.29l-3.29 1.65-6.62-3.31-2.24 1.13 0.263 0.279-1.8 0.837-0.197-0.246-2.69 1.33-6.62-3.34-19.9 9.89z"/>
	<path d="m139 43.2v-9.97l9.56-5.03 5.46-0.0127 3.46 4.56 1e-3 9.66-10.2 5.02z"/>
	<path d="m123 29.4 15 7.28v15.6l-9.97 4.99-6.63-3.32-6.62 3.3-10-4.99v-7.15l3.41-4.99 9.82 4.88 0.0592-8.22z"/>
	<path d="m126 59.3 5.08 7.51v15.3l-10 5.01-6.49-3.18v1.38l-10.1 5.19-3.15-1.71v1.58l-10.1 5.02-3.23-1.62v3.29l-6.73 3.28-19.9-9.91v-7.15l3.31-4.97 19.9 9.84 0.059-3.23 6.57-3.28v-5.4l16.6-8.27 3.23 4.75-0.0357-5.97z"/>
	<path d="m179 43.5c-1.86-0.0841-5.3 3.6-6.06 5.44-5.26 6.67-0.672-3.23-3.9-4.78-3.28 1.53-4.75 6.19-6.7 9.09-0.57-5.44-4.8-3.22-6.32 1.73-1.39 4.73-3.05 5.31-2.87-0.23-4.21 3.26-4.26 9.17-6.22 13.7-1.97 4.01-3.7 7.98-7.01 11.2-4.03 4.6 0.746 10.8-5.1 14.4-4.03 4.94-9.49 8.59-11.6 14.7-2.6 5.61-5.02 1.22-11.8-1.86-3.06-1.38-5.58-2.99-12.5 0.414-3.02 1.48-5.81 6.68-3.69 6.82 1.65 0.106 1.25-1.21 3.14-0.0625 0.75 0.455 1.83 1.03 1.98 1.44 1.27 3.33 4.86 10.1 4.67 15.3-5.29 4.48-11.9 6.95-18 10.3-7.98 2.67-12.9 9.82-18.1 15.9-2.47 3.43-7.89 7.23-7.03 11.5 4.48-0.0791-5.47 8.04 1.52 7.42 1.09 1.85-2.31 6.46-2.24 9.68 1.29 5.23 5.51-2.8 5.95-4.97-0.313 4.1-2.9 8.47-2.19 12.9 1.24 2.97 3.15 0.0254 4.08-1.99 3.07-7.39 1.13 2.76 1.03 5.79 0.263 6.54 5.27-3.3 4.89-0.713 0.873-1.37 2.23 1.22 3.07 3.29 0.984 0.092 2.12-0.636 2.49-1.54 1.24-1.23 2.93-7.13 3.23-2.6 1.29 3.09 4.36 3.07 6.04-0.904 1.06 0.122 5.79-1.03 6.79-1.74 4.56 3.31 4.61-0.909 6.81-1.76 2.03 2.09 4.95 1.42 6.27-0.533 1.04-1.21 1.53-0.949 3.78-1.07 2.05-5.17 8.83-4.01 10.6-9.92 2.11-2.66 2.86-4.44 5.18-5.31 1.56-1.5 3.69-4.09 6.18-5.46 1.73-3.02 3.57-6.03 4.45-9.18 1.65-2.01 1.26-7.47 2.91-10.6 3.77 5.41 3.07 12.8 4.46 19.1 1.24 7.88 3.96 15.5 6.2 23.1 4.92 0.686 5.39-4.22 9.89-2.51 1.37-4.2 7.7 0.0559 8.48-4.97 4.2 1.51 4.4-4.94 8.37-4.44 3.39 1 1.46-4.38 5.46-1.7 2.9-1.93-1.36-7.61 0.211-9.29 2.64 3.48 10.9 3.75 7.69-2.56 5.09-0.707 1.48-5.53 3.67-7.61 4-4.76-2.56-8.08 1.45-13.1 3.56-3.38-1.62-4.71-1.8-6.39 2.95-3.69 4.14-10.3-2.8-7.28-9.23 0.987-18.4 3.31-27.9 2.17-1.95-0.532-3.07 0.333-5.77-1.38 1.02-1.05 5.9-3.93 8.54-5.34 4.07-2.27 7.71-6.29 10.7-8.92 2.74-2.66 6.52-6.77 5.63-11.2 2.38-2.67 0.312-6.64 1.69-9.46 0.728-4.35 2.49-9.22 1.24-14-0.445-1.58 3.76-6.19 1.2-8.1 0.851-1.98 7.69-8.47 1.59-8.79-3.64 1.2-3.87-0.262-2.21-2.11 2.66-2.16 11.2-11.6 3.65-10.7-2.78 1.54-3.98 3-6.32 4.3-1.78 1.19-2.06-0.515 0.152-3.02 1.38-2.59 6.02-6.61 3.24-9.51-4.6 0.353-7.71 6.41-11.2 9.39-2.13 2.38-0.903-1.23-3.24 1.21 1.8-3.15 4.11-6.13 5.16-9.7 0.214-2.12-0.304-2.94-1.15-2.97zm-74.6 64.8a1.68 1.68 0 0 1 1.68 1.68 1.68 1.68 0 0 1-1.68 1.68 1.68 1.68 0 0 1-1.68-1.68 1.68 1.68 0 0 1 1.68-1.68z"/>
	<circle cx="105" cy="110" r=".839"/>
</svg>
