<?xml version="1.0" encoding="UTF-8" standalone="no"?>
<!-- Created with Inkscape (http://www.inkscape.org/) -->

<svg
   width="200"
   height="200"
   viewBox="0 0 200 200"
   inkscape:document-units="px"
   version="1.1"
   id="svg5"
   xml:space="preserve"
   inkscape:version="1.2.2 (732a01da63, 2022-12-09)"
   sodipodi:docname="hawk-flying-over-a-village.svg"
   xmlns:inkscape="http://www.inkscape.org/namespaces/inkscape"
   xmlns:sodipodi="http://sodipodi.sourceforge.net/DTD/sodipodi-0.dtd"
   xmlns="http://www.w3.org/2000/svg"
   xmlns:svg="http://www.w3.org/2000/svg"><sodipodi:namedview
     id="namedview7"
     pagecolor="#ffffff"
     bordercolor="#666666"
     borderopacity="1.0"
     inkscape:showpageshadow="2"
     inkscape:pageopacity="0.0"
     inkscape:pagecheckerboard="0"
     inkscape:deskcolor="#d1d1d1"
     showgrid="false"
     inkscape:zoom="2.5284424"
     inkscape:cx="184.10544"
     inkscape:cy="63.675565"
     inkscape:window-width="1920"
     inkscape:window-height="1017"
     inkscape:window-x="-8"
     inkscape:window-y="239"
     inkscape:window-maximized="1"
     inkscape:current-layer="layer1" /><defs
     id="defs2" /><g
     inkscape:label="Layer 1"
     inkscape:groupmode="layer"
     id="layer1"><path
       style="fill:#000000;fill-opacity:1;stroke-width:0.11735"
       d="M 71.143594,95.362818 61.256837,90.41165 v -3.576793 -3.576794 l 1.653646,-2.485928 1.653648,-2.485929 0.420883,0.17586 c 0.231482,0.0967 4.688766,2.309916 9.905062,4.918228 5.216303,2.608301 9.510721,4.74238 9.543154,4.74238 0.03241,0 0.05897,-0.726862 0.05897,-1.615243 v -1.615243 l 3.285809,-1.639547 3.285808,-1.639559 v -2.70112 -2.70112 l 8.273411,-4.136202 c 4.550382,-2.274918 8.299332,-4.136213 8.331012,-4.136213 0.0317,0 0.77088,1.069152 1.64268,2.375894 l 1.58509,2.375894 V 69.610228 66.53022 h 0.17641 c 0.097,0 3.45013,-1.637032 7.45136,-3.637849 4.00123,-2.000827 7.31476,-3.636389 7.36334,-3.634604 0.0486,0.0011 1.21055,1.691511 2.58208,3.75493 l 2.4937,3.751662 v 7.660705 7.660706 l -5.01672,2.503808 -5.01672,2.503798 -3.19836,-1.597657 c -3.75107,-1.873751 -3.31416,-1.752173 -3.31639,-0.922899 -0.002,0.918195 0.37323,0.666482 -5.01436,3.359838 -5.62095,2.810012 -4.81435,2.611252 -6.72054,1.656044 L 101.15593,88.8251 v 0.763341 0.763351 l -5.017289,2.509177 -5.017283,2.509167 -1.613004,-0.808139 -1.612997,-0.808149 v 1.645253 1.645264 l -3.293041,1.641366 c -1.811163,0.902754 -3.355791,1.638419 -3.432494,1.634809 -0.0767,-0.003 -4.588503,-2.234584 -10.026217,-4.957722 z M 26.433148,82.923962 21.475099,80.437522 v -7.685239 -7.685239 l 2.482665,-3.727717 c 1.365465,-2.050253 2.527122,-3.727717 2.581458,-3.727717 0.161421,0 14.818981,7.323872 14.913449,7.451732 0.04768,0.06446 0.07409,3.549843 0.05868,7.745118 l -0.02803,7.627766 -4.928711,2.487704 c -5.865491,2.960521 -4.218181,2.96051 -10.12146,3.2e-5 z m 19.890869,-0.792904 -3.25647,-1.636989 2.34e-4,-3.608099 2.35e-4,-3.608111 6.642928,-3.321769 c 3.653606,-1.826983 6.65421,-3.305599 6.668003,-3.285814 0.0138,0.01982 0.149298,0.2208 0.301121,0.446706 0.151824,0.225896 0.290327,0.429904 0.307785,0.453348 0.01744,0.02341 1.223436,-0.571484 2.679969,-1.322052 1.456532,-0.750578 5.785696,-2.915517 9.620369,-4.810981 l 6.972124,-3.446308 1.651531,2.482738 1.651523,2.482738 v 2.139577 2.139578 l -1.349527,0.671752 c -1.503969,0.74864 -1.57925,0.861299 -0.821448,1.229461 0.774689,0.376373 0.691278,0.478524 -1.139801,1.395805 l -1.667871,0.835536 -0.82582,-0.408714 -0.825821,-0.408713 -2.963092,1.479836 c -3.185788,1.591112 -3.315024,1.698316 -2.493589,2.068732 0.764355,0.344685 0.630259,0.510614 -1.115936,1.380887 -1.838209,0.916115 -1.727183,0.898464 -2.666905,0.424089 l -0.725033,-0.365996 -1.618624,0.802716 -1.618616,0.802716 v 0.825441 0.825453 l -4.987747,2.49305 c -2.743267,1.371162 -5.027195,2.490186 -5.075403,2.486713 -0.04821,-0.0033 -1.55306,-0.742978 -3.344119,-1.643326 z M 3.3116875,63.903484 2.3837181e-6,62.248866 v -5.04978 -5.049791 L 1.9983674,51.155648 3.9967331,50.161991 2.8198196,49.576808 1.6429053,48.991625 V 41.14894 c 0,-4.944515 0.041358,-7.817128 0.1119125,-7.773528 0.061552,0.038 0.8008583,-0.276062 1.6429037,-0.698017 l 1.5309912,-0.767173 v -5.866663 -5.866685 h 0.1639715 c 0.090184,0 3.4250366,-1.637032 7.4107838,-3.637849 3.985746,-2.000827 7.291234,-3.63787 7.345525,-3.63787 0.05429,0 1.208087,1.662828 2.563989,3.695158 l 2.465275,3.695148 v 2.231046 c 0,1.227066 0.02686,2.231024 0.05969,2.231024 0.226575,0 5.221066,-2.613516 5.221066,-2.732088 0,-0.08211 -0.447745,-0.371419 -0.99499,-0.64282 l -0.994989,-0.493464 -0.03182,-2.31976 -0.03183,-2.31976 1.026815,-1.551792 1.026814,-1.551781 V 11.458962 9.7758585 l 0.683623,-0.32674 0.683622,-0.32674 0.841931,0.423991 c 0.478013,0.2407157 0.841931,0.4995725 0.841931,0.5988595 0,0.119139 1.30912,-0.4798846 4.107199,-1.8793805 l 4.107201,-2.05425 5.016781,2.5166579 5.016787,2.5166576 1.642907,2.500368 1.642896,2.500357 -0.03182,2.319183 -0.03182,2.319183 -3.314014,1.655794 -3.314017,1.655783 -3.313786,-1.65771 -3.313785,-1.6577 -3.311653,1.656632 -3.311654,1.656644 -0.985276,-0.48864 c -1.27459,-0.632137 -1.274165,-0.650355 -0.02827,1.21119 l 1.065236,1.591591 v 2.147102 2.147102 l -1.349528,0.671763 c -1.502684,0.747997 -1.581073,0.865829 -0.821451,1.234884 0.774704,0.376384 0.693064,0.474484 -1.166553,1.401674 l -1.69463,0.844933 -0.804464,-0.419124 -0.804462,-0.419123 -3.309745,1.655674 -3.309724,1.655696 v 5.780769 5.78078 l -3.284469,1.638872 -3.28447,1.638894 -0.03067,4.571616 -0.03067,4.571616 -2.581707,1.305435 c -1.419938,0.717987 -3.2961652,1.651144 -4.1693933,2.073687 l -1.5876892,0.768252 z m 79.5127785,-2.473951 -4.962569,-2.514872 -0.03095,-3.759916 -0.03095,-3.759916 3.303289,-4.959444 c 1.81681,-2.72769 3.316745,-4.975625 3.33318,-4.9954 0.01642,-0.01982 3.785037,1.841748 8.37468,4.136757 l 8.344794,4.172714 v 3.754852 3.754842 l -6.68444,3.342622 -6.684447,3.342622 z M 38.050823,52.295264 28.164064,47.344107 v -3.7847 -3.784711 l 8.214187,-4.107422 c 4.517804,-2.259086 8.266832,-4.107422 8.331174,-4.107422 0.153598,0 6.68999,9.802058 6.68999,10.032407 0,0.252367 -0.459249,0.465805 6.688252,-3.108396 l 6.570077,-3.285443 1.644028,2.461961 1.644029,2.461951 v 3.610887 3.610888 l -9.916285,4.957723 c -5.453946,2.726753 -9.955801,4.954772 -10.004105,4.951168 -0.0483,-0.0033 -4.53687,-2.234585 -9.974588,-4.957734 z m 71.172937,2.491155 -4.89938,-2.461515 v -3.578252 -3.578253 l 1.64426,-2.462321 c 0.90435,-1.354273 1.69672,-2.46231 1.76082,-2.46231 0.0641,0 2.28116,1.082556 4.92679,2.405676 2.64563,1.32313 4.83689,2.405686 4.86946,2.405686 0.0327,0 0.0592,-1.848891 0.0592,-4.108641 v -4.108642 l 2.46527,-3.695147 c 1.35592,-2.032341 2.49616,-3.695159 2.53386,-3.695159 0.0377,0 3.33546,1.637043 7.32831,3.63786 3.99282,2.000817 7.34124,3.63786 7.4409,3.63786 h 0.18121 v 7.801317 7.801328 l -4.98577,2.496001 -4.9858,2.496012 -3.31743,-1.657504 -3.31744,-1.657503 -3.22643,1.621994 c -3.89467,1.957913 -2.67106,2.078936 -8.47787,-0.838487 z m 33.91421,-9.561973 -4.07792,-2.047586 v -4.987059 -4.987059 l -0.20536,-0.0065 c -0.11295,-0.0033 2.03895,-1.136 4.78203,-2.516636 l 4.98738,-2.510233 2.72839,-0.0065 2.7284,-0.0065 v 0.441522 0.441544 l 1.7616,1.758653 c 1.03308,1.031367 1.73692,1.822954 1.70194,1.914118 -0.0328,0.08548 -0.0624,2.251746 -0.0658,4.813866 -0.008,5.567092 0.75871,4.446739 -5.01503,7.335011 -5.75775,2.880269 -4.41642,2.828055 -9.32564,0.363045 z M 67.900122,34.111845 61.256837,30.809862 v -3.388063 -3.388041 l 1.648881,-2.163141 c 0.906881,-1.189727 1.693948,-2.163142 1.749034,-2.163142 0.0551,0 0.85672,0.243613 1.781409,0.541366 l 1.681248,0.541365 4.78367,2.392391 c 2.63102,1.315812 4.81033,2.392391 4.842909,2.392391 0.03255,0 0.05926,-1.650241 0.05934,-3.667196 l 1.17e-4,-3.667195 1.521361,-2.282628 c 1.85293,-2.780121 2.168859,-2.73039 -2.505725,-0.39434 l -3.944291,1.97109 -3.344624,-1.671083 -3.344625,-1.671093 V 11.690989 9.189423 L 65.773622,8.9929936 65.361701,8.7965641 66.624409,6.2792529 67.88711,3.7619307 70.389728,1.8809708 72.892344,0 l 1.663317,0.828142 1.663318,0.8281311 2.46436,1.8668258 c 3.435874,2.6027476 5.669,4.7508293 4.523981,4.3516765 L 82.849279,7.7499639 v 1.4020876 c 0,1.6774525 -0.07738,1.6503925 0.82145,0.2872776 0.896561,-1.3596634 0.067,-1.5525321 5.897394,1.3710429 2.726632,1.367231 5.262092,2.632823 5.634369,2.812418 l 0.676858,0.326544 0.90491,-1.358716 0.904917,-1.358716 4.989843,-2.4914061 4.98983,-2.4913842 4.10663,2.0298909 4.10661,2.0299014 0.0742,-0.200088 c 0.0408,-0.1100457 0.44093,-0.3773635 0.88921,-0.5940468 l 0.81504,-0.3939478 0.60765,0.3079235 0.60764,0.3079126 v 1.6429555 1.642956 l 0.99747,1.493491 0.99748,1.493491 v -2.610566 -2.610566 l 4.16575,-2.0818864 4.16575,-2.0818866 3.34467,1.671115 3.34467,1.6711041 v 1.5844919 c 0,0.871481 0.0228,1.584503 0.0506,1.584503 0.0278,0 0.75816,-0.347615 1.62293,-0.772488 l 1.57231,-0.772487 3.36446,1.680991 3.36445,1.681002 v 5.016264 5.016274 l -4.16741,2.082682 -4.16741,2.082681 -3.343,-1.670276 -3.34301,-1.670277 v -1.643958 -1.643957 l -1.64253,0.822828 -1.64253,0.822828 -3.31015,-1.655881 -3.31014,-1.655903 -1.03218,0.505943 c -0.72251,0.354137 -1.03219,0.568664 -1.03219,0.715015 0,0.287245 -1.47917,1.032248 -1.89254,0.953225 -0.20835,-0.03985 -0.66636,0.125999 -1.4911,0.539863 l -1.19037,0.597357 -3.32319,-1.660389 -3.32321,-1.660389 -9.854722,4.945799 c -5.420096,2.720176 -9.919293,4.945789 -9.998214,4.945789 -0.07894,0 -1.568559,-0.712902 -3.310287,-1.58423 -1.741721,-0.871318 -3.19356,-1.584231 -3.226293,-1.584231 -0.03276,0 -0.05948,1.465844 -0.05948,3.257436 v 3.257426 l -3.331487,1.664516 -3.331488,1.664527 z"
       id="path365" /><path
       style="fill:#000000;fill-opacity:1;stroke-width:1.1735;stroke-linejoin:round"
       d="m 14.962158,61.410717 0.06136,-9.143232 6.568939,-3.277766 V 37.42817 l 6.619468,-3.31137 1.608925,0.838247 3.306221,-1.813436 -0.914315,-0.784117 2.640259,-1.555701 v -4.294204 l -1.99126,-3.158334 1.939568,0.844193 6.623307,-3.313276 6.62757,3.31541 6.628038,-3.311577 0.06364,-4.638366 -3.28581,-5.000725 L 41.424501,6.2115985 33.2101,10.145229 31.526238,9.1223785 l -1.367244,0.65348 v 3.3662075 l -2.053629,3.103573 0.06366,4.63952 1.989978,1.136284 -5.221065,2.732088 -0.05969,-4.46207 L 19.848975,12.901155 5.0926662,20.176874 4.9286947,31.910222 1.7547999,33.375412 1.6428874,48.991625 3.9967153,50.161991 -2.680881e-5,52.149295 V 62.248866 L 6.6233425,65.558091 Z"
       id="path422" /><path
       style="fill:#000000;fill-opacity:1;stroke-width:1.1735;stroke-linejoin:round"
       d="m 26.539222,57.61161 14.913449,7.451732 0.03064,15.372884 -9.863694,4.705367 -10.144525,-4.704071 V 65.067044 Z"
       id="path424" /><path
       style="fill:#000000;fill-opacity:1;stroke-width:1.1735;stroke-linejoin:round"
       d="m 28.164064,47.344107 v -7.569411 l 16.545361,-8.214844 6.807979,10.193577 13.14034,-6.555009 3.288057,4.923912 v 7.221775 l -19.92039,9.908891 z"
       id="path426" /><path
       style="fill:#000000;fill-opacity:1;stroke-width:1.1735;stroke-linejoin:round"
       d="m 43.067547,80.494069 4.58e-4,-7.21621 13.310928,-6.607583 0.608905,0.900054 19.272462,-9.579341 3.303061,4.965476 v 4.279155 l -2.844213,1.529632 1.392359,0.742597 -3.573727,1.902901 -1.578009,-0.928246 -6.079979,3.202435 1.34595,0.835405 -3.712967,1.856492 -1.485185,-0.881825 -3.296318,1.648716 v 1.650894 l -10.063151,4.979763 z"
       id="path477" /><path
       style="fill:#000000;fill-opacity:1;stroke-width:1.1735;stroke-linejoin:round"
       d="m 77.799979,51.394829 6.63647,-9.954844 16.719471,8.309471 v 7.509694 l -13.368885,6.685244 -9.925138,-5.029733 z"
       id="path479" /><path
       style="fill:#000000;fill-opacity:1;stroke-width:1.1735;stroke-linejoin:round"
       d="m 81.265892,27.569935 -0.05948,6.514862 -6.662968,3.329043 -13.286577,-6.603978 v -6.776104 l 3.397915,-4.326283 3.462657,1.082731 9.626579,4.784782 0.05948,-7.334391 2.781179,-4.353092 -7.709834,3.647214 -6.689249,-3.342176 V 9.189423 L 65.361759,8.7965641 67.887168,3.7619307 72.892402,0 l 3.326634,1.6562731 4.575856,3.5305798 2.712563,2.6435383 -0.658124,-0.080471 0.08527,2.6880208 1.53973,-2.1169717 11.405068,5.6283207 1.809828,-2.717432 9.979683,-4.98279 8.21323,4.059793 0.0741,-0.200088 1.70425,-0.9879953 1.2153,0.6158361 v 3.2859112 l 1.99495,2.986983 v -5.221132 l 8.33149,-4.1637737 6.68934,3.3422301 0.0506,3.1689836 3.19523,-1.544975 6.72891,3.361994 v 10.032537 l -8.33482,4.165364 -6.68601,-3.340554 v -3.287915 l -3.28505,1.645657 -6.62029,-3.311784 -2.23643,1.133648 0.26254,0.278958 -1.805,0.836875 -0.19691,-0.246138 -2.6911,1.329141 -6.61789,-3.34186 -19.852931,9.891589 z"
       id="path481" /><path
       style="fill:#000000;fill-opacity:1;stroke-width:1.1735;stroke-linejoin:round"
       d="m 139.06005,43.17686 v -9.974118 l 9.56405,-5.03325 5.45679,-0.01274 3.46354,4.555848 0.001,9.657428 -10.15873,5.021196 z"
       id="path483" /><path
       style="fill:#000000;fill-opacity:1;stroke-width:1.1735;stroke-linejoin:round"
       d="m 122.58408,29.447541 14.95042,7.27572 v 15.602645 l -9.97157,4.992013 -6.63487,-3.315007 -6.62195,3.299403 -10.00958,-4.988376 v -7.154393 l 3.41311,-4.988376 9.81607,4.88396 0.0592,-8.217283 z"
       id="path485" /><path
       style="fill:#000000;fill-opacity:1;stroke-width:1.1735;stroke-linejoin:round"
       d="m 125.88711,59.257767 5.07578,7.506592 V 82.08577 l -10.03344,5.007606 -6.49208,-3.175419 v 1.378371 l -10.10802,5.185285 -3.15055,-1.706548 v 1.575279 l -10.057452,5.019792 -3.226001,-1.616288 v 3.290506 l -6.725536,3.276186 -19.912974,-9.90889 v -7.153587 l 3.307294,-4.971857 19.869099,9.836468 0.05897,-3.230486 6.571617,-3.279106 v -5.40224 l 16.604423,-8.272415 3.22777,4.751788 -0.0357,-5.969043 z"
       id="path487" /><path
       id="path3951"
       style="fill:#000000;fill-opacity:1;stroke-width:0.186545"
       d="M 179.1543 43.523438 C 177.29653 43.439338 173.8511 47.121226 173.0957 48.962891 C 167.83684 55.62936 172.42385 45.732609 169.19531 44.179688 C 165.91829 45.706025 164.4424 50.37048 162.49609 53.273438 C 161.92586 47.837535 157.70099 50.053712 156.17578 55 C 154.78451 59.726017 153.12193 60.305776 153.30664 54.769531 C 149.10132 58.034428 149.0483 63.936427 147.08398 68.509766 C 145.11196 72.523729 143.38112 76.494416 140.07422 79.697266 C 136.04629 84.299282 140.82002 90.477209 134.97852 94.142578 C 130.94509 99.08466 125.48525 102.72776 123.39453 108.80859 C 120.7956 114.42182 118.37567 110.0246 111.58398 106.95117 C 108.52805 105.56826 106.00479 103.95631 99.066406 107.36523 C 96.049215 108.84761 93.252994 114.04427 95.378906 114.18164 C 97.025512 114.28805 96.626775 112.967 98.523438 114.11914 C 99.273192 114.57457 100.35287 115.14911 100.50781 115.55664 C 101.77577 118.89146 105.36338 125.69857 105.17578 130.85938 C 99.885529 135.33705 93.240922 137.80939 87.203125 141.14258 C 79.221882 143.81706 74.297525 150.96262 69.109375 157.08789 C 66.634616 160.51963 61.219677 164.31906 62.076172 168.54297 C 66.558199 168.46391 56.608131 176.58652 63.59375 175.96094 C 64.683276 177.81371 61.282526 182.41665 61.353516 185.63672 C 62.645673 190.86776 66.862627 182.83687 67.300781 180.66211 C 66.988231 184.76681 64.397163 189.13539 65.109375 193.61133 C 66.351544 196.57705 68.25511 193.63678 69.1875 191.62305 C 72.256878 184.23103 70.316923 194.38365 70.214844 197.41406 C 70.477545 203.95016 75.483097 194.11141 75.103516 196.70117 C 75.976506 195.33477 77.333534 197.91758 78.173828 199.99219 C 79.158307 200.0842 80.29221 199.35609 80.664062 198.44727 C 81.902604 197.21541 83.593693 191.31656 83.896484 195.84375 C 85.190476 198.92987 88.255714 198.91487 89.939453 194.93945 C 91.002374 195.06101 95.728914 193.90598 96.728516 193.20312 C 101.28484 196.50887 101.3407 192.29401 103.53906 191.44141 C 105.56773 193.53093 108.48655 192.85773 109.80664 190.9082 C 110.84283 189.69505 111.3364 189.95872 113.58789 189.83984 C 115.6384 184.66655 122.42233 185.82581 124.14648 179.92188 C 126.25908 177.25747 127.00636 175.48631 129.32812 174.61328 C 130.89216 173.11789 133.0133 170.5186 135.51172 169.15234 C 137.24256 166.13576 139.08385 163.12591 139.96484 159.96875 C 141.61948 157.95493 141.22688 152.49401 142.875 149.3418 C 146.6486 154.74823 145.94768 162.10681 147.33984 168.39258 C 148.57679 176.27155 151.30231 183.85537 153.54102 191.49805 C 158.4657 192.18358 158.92936 187.28095 163.42969 188.98438 C 164.80291 184.7835 171.13381 189.04031 171.90625 184.01758 C 176.11107 185.52544 176.30678 179.07953 180.2793 179.58008 C 183.67413 180.58501 181.74208 175.20122 185.73828 177.87891 C 188.63459 175.9461 184.38023 170.27334 185.94922 168.58594 C 188.587 172.06385 196.8693 172.33478 193.63672 166.0293 C 198.72669 165.32265 195.11562 160.50363 197.30469 158.41602 C 201.30936 153.65248 194.74123 150.34102 198.75391 145.33984 C 202.31264 141.96356 197.13457 140.63046 196.95312 138.94531 C 199.90707 135.25401 201.09038 128.64871 194.14844 131.66992 C 184.92015 132.65665 175.7014 134.97799 166.28711 133.84375 C 164.34188 133.31175 163.21611 134.1766 160.51562 132.45898 C 161.53784 131.40994 166.41145 128.52529 169.05664 127.12109 C 173.12629 124.85054 176.7679 120.83279 179.75 118.19727 C 182.4936 115.53579 186.26515 111.42696 185.37891 106.95117 C 187.76237 104.2813 185.69127 100.30706 187.07227 97.490234 C 187.8006 93.139733 189.56323 88.271829 188.3125 83.525391 C 187.86771 81.942455 192.06852 77.338617 189.50781 75.421875 C 190.35928 73.437332 197.19718 66.952302 191.09766 66.634766 C 187.4528 67.839421 187.22692 66.372303 188.88281 64.521484 C 191.54256 62.36429 200.09533 52.899051 192.5293 53.837891 C 189.75078 55.375292 188.54549 56.840213 186.21094 58.134766 C 184.43485 59.325567 184.15257 57.619368 186.36328 55.111328 C 187.73906 52.524851 192.37857 48.499797 189.60547 45.597656 C 185.00188 45.95043 181.89576 52.003791 178.38477 54.986328 C 176.25673 57.366561 177.48173 53.755105 175.14648 56.195312 C 176.95024 53.04219 179.25771 50.061522 180.30273 46.498047 C 180.51666 44.376975 179.99874 43.561665 179.1543 43.523438 z M 104.59375 108.36914 A 1.6779661 1.6779661 0 0 1 106.27148 110.04688 A 1.6779661 1.6779661 0 0 1 104.59375 111.72461 A 1.6779661 1.6779661 0 0 1 102.91602 110.04688 A 1.6779661 1.6779661 0 0 1 104.59375 108.36914 z " /><circle
       style="fill:#000000;fill-opacity:1;stroke-width:1.93549;stroke-linejoin:round"
       id="circle7067"
       cx="104.59322"
       cy="110.0466"
       r="0.83898306" /></g></svg>
