<svg width="1820" height="1425" version="1.1" viewBox="0 0 468 401" xmlns="http://www.w3.org/2000/svg" xmlns:xlink="http://www.w3.org/1999/xlink">
	<defs>
		<marker id="a" style="overflow:visible" markerHeight="4.1550002" markerWidth="3.594075" orient="auto-start-reverse" preserveAspectRatio="xMidYMid" viewBox="0 0 5.3244081 6.1553851">
			<path transform="scale(.5)" d="m5.77 0-8.65 5v-10z" style="fill-rule:evenodd;fill:context-stroke;stroke-width:1pt;stroke:context-stroke"/>
		</marker>
	</defs>
	<path id="b" d="m44.2 270c-2.63-0.379-4.03-0.718-11.6-2.8-7.35-2.03-15-2.64-22.1-1.74-3.36 0.426-3.52 0.422-4.08-0.0824-1.95-1.79-6.31-3.16-12.7-3.99-6.98-0.913-7.67-1.66-5.23-5.7 2.97-4.91 3.54-6.68 2.67-8.3-0.465-0.866-1.96-3.66-3.33-6.21-2.87-5.36-4.06-7.2-6.23-9.63-2.39-2.68-2.68-3.43-3.01-7.66-0.451-5.83-0.399-6.72 0.592-10.3 1.63-5.83 1.66-8.65 0.173-16.9-1.15-6.35-1.15-7.1 0.0385-11.7 3.38-13 3.38-13 5.78-27.8 1.22-7.53 1.94-10.1 3.44-12.4 0.524-0.782 1.3-2.05 1.73-2.83 0.43-0.773 2.11-3.81 3.74-6.75 6.13-11 14.8-24.4 18.7-29 3.36-3.86 7.19-8.86 10.6-13.8 3.12-4.57 4.84-6.79 7.71-9.97 1.05-1.16 3.43-3.88 5.3-6.04 11.5-13.3 14.1-16 18.1-18.7 3.73-2.55 2.73-4.8-1.44-3.23-4.07 1.53-6.56 1.5-12.6-0.177-3.95-1.09-4.01-1.13-4.31-2.41-0.25-1.06-0.25-1.06-4.88-1.24-8.77-0.349-11.7-0.97-15.9-3.34-2.04-1.16-3.23-1.66-4.32-1.8-2.98-0.38-5.78-1.87-6.64-3.54-1.37-2.65 0.235-4.75 6.74-8.81 4.01-2.5 4.14-2.66 3.91-4.67-0.214-1.9-0.105-2.15 1.97-4.48 2.25-2.54 4.95-4.78 7.71-6.39 1.49-0.875 3.64-2.24 4.77-3.02 4-2.78 4.2-2.85 5.47-1.85 1.03 0.81 1.33 0.7 1.34-0.492 0.0226-3.55 1.2-4.89 4.18-4.78 2.1 0.0753 2.1 0.0753 2.61-1.33 0.683-1.89 0.999-2.08 2.79-1.72 1.35 0.276 1.55 0.242 2.84-0.476 1.32-0.735 1.46-0.758 2.99-0.452 1.56 0.314 1.71 0.285 6.1-1.14 3.28-1.07 4.72-1.41 5.34-1.28 2.27 0.49 3.56 0.464 5.46-0.112 4.25-1.29 4.42-1.02 2.89 4.43-1.51 5.36-1.73 6.9-1.73 12.1-9.99e-4 2.39-0.149 5.05-0.329 5.92-0.464 2.24 1.75 5.34 3.82 5.34 2.49 0 2.36 8.42-0.217 14-0.686 1.49-1.33 3.2-1.43 3.79-0.102 0.593-0.674 2.33-1.27 3.86s-0.998 2.84-0.892 2.9c0.106 0.0656 1.71 0.521 3.56 1.01 5.18 1.37 7.31 2.31 10.8 4.76 3.73 2.59 10.8 7.13 14.6 9.43 5.07 3.05 6.47 4.12 7.67 5.9 1.23 1.82 3.7 4.69 7.55 8.77 3.25 3.44 8.95 11.8 8.95 13 0 0.429 2.06 2.54 4.36 4.46 4.21 3.52 6.13 5.76 11.1 12.9 1.52 2.2 3.38 4.27 7.31 8.15 5.01 4.95 5.39 5.4 7.78 9.28 3.15 5.1 4.98 7.57 8.12 11 8.45 9.13 9.56 14.5 7.26 35-0.441 3.95-0.441 3.95 0.96 7.59 2.54 6.59 4.15 14.2 4.44 20.9 0.0864 2.04 0.393 4.56 0.73 5.99 1.1 4.68 0.96 5.19-5.3 19.7-4.15 9.62-3.9 10.3 5.51 15.6 8.76 4.93 7.88 7.66-2.99 9.26-6.8 1-11 1.98-16.7 3.86-5.03 1.66-6.33 1.68-15.7 0.267-12-1.82-12.8-1.9-20.5-2.06-7.52-0.152-13.4 0.163-22.5 1.2-11.2 1.28-13.9 1.94-18.9 4.58-9.22 4.86-23.2 7.29-33.4 5.82z"/>
	<path d="m141 273 60.3 104" style="fill:none;marker-end:url(#a);stroke-width:11.2;stroke:#000"/>
	<path d="m259 398 60.3-104" style="fill:none;marker-end:url(#a);stroke-width:11.2;stroke:#000"/>
	<use transform="translate(309)" xlink:href="#b"/>
</svg>
