<svg width="261" height="252" version="1.1" viewBox="0 0 261 252" xmlns="http://www.w3.org/2000/svg">
	<g transform="translate(-122 -83)">
		<path d="m317 107c-7.31 0-15 3.51-20 10.7-10.7 15.4-24.5 11.6-36.8 17.3-12.3 5.66-10.2 24.5-36.7 34-25.2 9-29-11.8-34.8-21.6-2.81-4.8-3.58-9-10.3-14 1.33-0.7 2.28-2 2-4-0.264-3.7-1.31-4.81-2.82-4.82-1-9e-3 -2.28 0.5-3.63 1-1.84 0.7-2.51 2.74-2.75 4-1.56-0.563-3-0.93-4.6-0.93-10.5 0-15 9.8-17 10.7-2 0.9-16.5-0.91-22 3.34-5.56 4.23-3.56 8-3.56 8s-4.45 8.23-2.22 10.7 3.56 0 3.56 0 0 3 6 3.78c5.78 0.667 2.23-4.9 9-5 7-0.2 8.68 3 13.6 4.45 5 1.33 9.34 0.2 9.34 0.2s14.7 38 40 42.3c17.8 3 37-1 37-1s2.2-2.83 16.2 20.5c14 23.3 12 33.2 11.3 38-0.6 4.72-0 10 2.2 12.6 2.36 2.52 3.3 4 4.25 17 0.9 13-2.67 18.7-2.83 20.3-0 1.57 1 1.73 1.26 3.62 0.3 1.9-2.25 7-2.25 7s-4.45-2.67-9.35-0.91c-4.9 1.78-9 10.7-9 10.7h32s-0-2.24-0.982-4.58c-0.9-2.52-3-4.61-3.22-5.55-0-0.9 0.3-5 2.2-6.45 2-1.26 2.36-2 0.6-6.3-1.73-4.25-2.2-27 2.67-33.8 4.88-7 1-13-3-19.5-4-6.45-10-26.4-10-26.4l15.4-11.3s0.471 2.2 18.4-0.6c18-2.83 25.2-10 25.2-10s-0.3 3.78 0 8c0.3 4.4-1.73 6.61 16.4 28.6 18 22 9.6 22.5 14.5 29.4 4.88 7-3.62 30.7-6 33.7-2.52 3-1 6-1 5.98l-4 9s-1-2-7.4-0.9c-6.3 1-10.7 10.8-10.7 10.8h31s0-3-0-5c-0.3-2-3-5.35-3-5.35l2-4s0.6 0.3 1.9-0.6c1.26-0.9 1.57-3.3 0.787-7.4-0.787-4 9-29 11.5-33.3 2.52-4.4 6-9.75 2.52-13.5-3.46-3.78-17.6-24-6.3-55.7 1.65-4.63 2-9.34 2-14 2.44 7 4 16 0.93 24.6-8.2 23 3 27 3 27s4.78-4 2.52-13.2c-1.37-5.47-5.35-3.77-1.26-15.7 4-12-4-33-11.6-46.7-7.5-13.6-25.2-29-25.2-29s-0.6-7.24-7.24-23.3c-3.51-8.52-11.5-13-19.7-13zm-156 28.4c2 4e-5 4 1.77 4 4-4e-5 2-1.77 4-4 4-2-3e-5 -4-1.77-4-4 4e-5 -2 1.77-4 4-4zm-1 1.4c-1 5e-5 -2 1.25-2 2.8-1e-5 1.54 0.865 2.8 2 2.8 1-5e-5 2-1.25 2-2.8 1e-5 -1.54-0.865-2.8-2-2.8z"/>
		<path d="m288 219-20.2 3.42c9.51 18.2 17.3 38.6 16.7 42.8-0.6 4.72-0 10 2.2 12.6 2.36 2.52 3.3 4 4.25 17 0.9 13-2.67 18.7-2.83 20.3-0 1.57 0.9 1.73 1.26 3.62s-2.25 7-2.25 7-4.45-2.67-9.34-0.9c-4.9 1.78-9 10.7-9 10.7l32-0s-0-2-0.982-4.46c-0.9-2.52-3-4.61-3.22-5.55s0.3-5 2.2-6.45c1.9-1.26 2.36-2 0.63-6.3-1.73-4.25-2.2-27 2.67-33.8s1-13-3-19.5c-3.78-6-10.4-30.4-11.2-40.4z"/>
		<path d="m352 202-43.7 10.7c-0 1.44-0 4 0 7 0.3 4.4-1.73 6.61 16.4 28.6 18 22 9.6 22.5 14.5 29.4 4.88 7-3.62 30.7-6 33.7-2.52 3-1 6-1 5.98l-4 9s-1-2-7.4-0.9c-6.3 1-10.7 10-10.7 10l31 5e-5s0-2.2-0-4.25c-0.3-2-3-5.35-3-5.35l2-4s0.6 0.3 1.9-0.6c1.26-0.9 1.57-3.3 0.787-7.4-0.787-4 9-29 11.5-33.3s6-9.75 2.52-13.5c-3.46-3.78-17.6-24-6.3-55.7 1-3 1.7-6 2-9.2z"/>
		<path d="m237 88.6c0.9-1 9.84-11.7 35-0.5 25 11.2 30.4 54.2 30.4 54.2l-48-0.33s4.3-18.2-6-25.8c-10.3-7.61-7.61-7.61-7.61-7.61s-1.32 5.62-6 5.62c-4.63 0-17.2 0.8-17.5-11.6-0.3-12.4 15.2-6 17.2-8.27 2-2.32 1-4.2 2.4-5.8z"/>
		<path d="m257 128-18.5-7.55s-2 0.6-6.43-1.68c-4.43-2.21-7.55-7-7.55-7l9.8-5.6s5.87 6 5.87 8.4 18.2 4.75 18.2 4.75z"/>
	</g>
</svg>
