<svg width="380" height="370" version="1" viewBox="0 0 380 370" xmlns="http://www.w3.org/2000/svg">
	<path d="m318 79c-7.36 0.388-13 4.56-13 4.56s-0.281 0.56 8.67 2.24c9 1.7 11.5 4.47 14.3 9 3 4.61 3 11.6 1.54 12-1.26 0.28-5-4.76-7-7.55s-14.7-17-31.5-17c-17 0-21.5 13-21.5 13s5.45-0.419 10-2c4.61-1.54 18-6 24 4.33 6 10.5 4.62 13.7 3.22 14.5-1.4 0.84-4.48-1.26-6.71-3.78-2.24-2.52-6-9.23-18.5-9-12.6 0-15.5 1.26-18 4.2-2.24 3 0.558 11.6 11.7 17.3 11.2 5.73 18.5 2 23 5.45 4.33 3.64-30 28-39 34-9 6-22.4 15.4-32.4 17-10 1.4-36-3.78-38.6-4-2.66-0.28-16.6-9-38.3-7.27-21.7 1.68-28 10.5-33 11-7.63-0-28.2-17-38.5-21.5 0 0 0.8 17.4 7 20.2 6 2.77 11.7 2.47 11.7 2.47 1e-6 0-4 2-7.7 1-3.76-0.7-7.7-1.7-7.7-1.7s1.48 3.26 4 5.44c2.67 2 9.3 4 9.3 4s-2-0.3-4.35-0.2c-2.47 0-4.55 0.8-4.55 0.8 0 0 2 4 5 5 3 1 10.5 1.48 10.5 1.48s-1.58 4.65-3 8c-1.3 3.36-4.45 16.7-6 30-1.38 13.2 4.45 25.4 7.52 29.3 3 4 4 7.5 2.73 16.3-1.3 8.77 0 9.75 0 10.9 0 1-0.735 8-0.525 9.7 0.21 1.7 2 4 2 4s1.5-2.38 2-3.57c0.56-1 0.77-3.6 2-3.25 1 0.35 2 9 2 9l2 0.3s0.2 28 0 29c-0 1.33-2.62 6-3.71 8.75-1 3-3.21 7.52-2 9.7 1.2 2.2 6 3.31 6 3.31s-2.32 1.38-2.77 4.7c-0.445 3.31-2 9.6 13 9.69 15 0 15-2.42 15-7.27 0.2-5-4.79-5.44-6.77-7.61-2-2-0.248-4.45-0.545-6.68-0.3-2.22-4.6-10.8-4.6-17 0-6 0-18.7 4.75-28 4.6-9 13.2-13 13.2-13s1 1 3 5.6c2 4.5 8 20.6 9.44 25 1.43 4.2 0.7 8-0 10.8-0.8 3-3.41 12.7-2 14.4 1.24 1.7 6 1 6 1s-1.3 3.5-1.3 5.24c0 1.73 0.741 5.78 2 7s13.5 1.58 21.3-0.643c7.76-2.22 2-12 0-12-2 0-4-3-4-3s0.3-2 0-4.33c-0-2.38-3-4.76-6.43-13-3.5-8-3.36-27.3-3.36-27.3s4.47-4 5.73-9.37c1.26-5.45 5-9.79 5-9.79s-2 1 11.6 0.84 15-4 20.4 1c5.31 5 1.54 26 2 30.6 0.42 4.47 2 17 2 18.7 0 1.68-7 15-6.3 18.7 0.7 3.64 7 5.6 7 5.6s-2 3-2.79 6c-0.7 3-0.701 8 12.4 8 13-1e-5 16.5-1 16.4-8-0-7-9-6.57-9-6.57 0 0 1.26-7 0.561-8-0.7-1-3-5-5-17-2-12.2 3.78-18.2 5.31-19.3 1.54-1 4-9 6.57-16.2 2.66-7.41 1.4-10.8 4.47-10.6 3 0 7 5.6 9.65 9.23 2.66 3.64 2 15.4 2.66 18.6 0.7 3.22 3.22 13 3.22 15.4s-6 14.4-4.47 17.3c1.54 3 5.73 3 5.73 3s-1.7 2-1.54 5.6c0 3.5 2.52 6.71 2.52 6.71s6.3 2.38 13.4 2c7-0.56 11.7-1.54 12.4-6.43 0.7-5-8.53-9.79-8.53-9.79s0.7-7-2-10.6c-2.52-3.64-3.78-3.78-5.31-15-1.54-11.3 2-26.6 2-33.6 0-7-1.4-17.2-0.42-20.4 1-3.22 4.2-5 6-7.55s6-7 6.3-12.4c0-5.31 27-64.5 29.6-65.7 2.73-1.26 14 3 14 3s-4.41 7.2-5.66 14c-1.26 7 1.47 9.6 1.5 9.6s0.838-0 1.26-1.26c0.42-0.77 0.7-2.6 0.7-2.6-1e-5 0-0 4 1 7 1 3 4 4.47 4 4.47s1.75-3 2.38-5c0.63-2 0.561-4.47 0.561-4.47s0.3 0.839 0.56 1.4 0.84 1 0.84 1 0.418-1 0.838-2.24 0-4 0-4 4e-5 0.7 0.35 1.47c0.35 0.77 1 1.33 1 1.33s1.68-2 2.52-3.5c0.839-1.7 2.24-8.39 3.36-9.51 1-1 3-0.561 4.75-0.561s4-0.838 12-6.71 9.65-12.6 8.53-15.7c-1-3-3.78-5-3.78-5s-0.56-0.701-1-3.36c-0.56-2.66-0.56-10.9-1.26-18-0.7-7-4.62-15-4.62-15s12.2-3 16.5-9c4.33-6 3-19 0.42-20.8-2.38-2-6 2-7 3.78-1 2-9 7.7-13 8.39-4 0.7-6 3-6 3s-1-0-2.24-1.4c-1-1.26-3.22-6-6.57-14-3.36-8-12.6-16-21.5-17-1-0-2.21-0-3.26-0zm3.6 45.6a9 9 0 0 1 9 9 9 9 0 0 1-9 9 9 9 0 0 1-9-9 9 9 0 0 1 9-9zm-2.57 7c-1 0-2 1-2 2v0.9c0 1 0.845 2 2 2h6c1 0 2-1 2-2v-0.9c0-1-0.843-2-2-2z"/>
	<path d="m80 0s30 18.7 42 22.4c12 3.64 15.5 4.55 20 7.63s21.4 19 32 24.5c20.7 10.9 28.2 47 19.6 50s-11.5-20-16.2-24c-4.75-4-5.36-5.22-5.36-5.22 1.32 8 1 10.7-0 16.4-1.36 5.66-3 16-9.47 14.4-6.44-1.57-5.77-9.42-4.52-18.2 1-7 1.72-17-4.71-22-6.43-5-4.75-3-4.75-3s6 14.7 0.826 23.7c-5 9-9.33 13.4-13.5 10.3-4-3 0-1 2-14.7 1.68-5-2.36-17.6-2.36-17.6 1 14.2-15 32.4-19 24-3-6.7 1.64-10 4.44-15s2-12.5 2-12.5-18.5 4.67-23 16.4c-4.47 11.7 14 50.6 0 53-14 2.52-17-31.6-32-58.6-15-27-12.3-40.7-31-52-18.7-11.2-37-20-37-20z"/>
</svg>
