<svg width="143" height="168" version="1" viewBox="0 0 143 168" xmlns="http://www.w3.org/2000/svg" xmlns:xlink="http://www.w3.org/1999/xlink">
	<defs>
		<clipPath id="b">
			<path d="m49.4 173c-0.478 0.276-0.642 0.888-0.366 1.37l54.8 94.8 1.73-1-54.8-94.8c-0.276-0.478-0.888-0.642-1.37-0.366z" style="display:none;"/>
			<path class="powerclip" d="m-5 155h153v178h-153zm54.4 17.6c-0.478 0.276-0.642 0.888-0.366 1.37l54.8 94.8 1.73-1-54.8-94.8c-0.276-0.478-0.888-0.642-1.37-0.366z"/>
		</clipPath>
	</defs>
	<g transform="translate(0,-160)" clip-path="url(#b)">
		<g id="a" transform="rotate(30 59.9 239)">
			<path d="m56.1 150-11.1 15 4.39e-4 110-20-1e-4 -5.25e-4 7.5 23 3.1e-4 1 42.5 14.2 5.1e-4 1-42.5 23 3e-4 5.25e-4 -7.5-20-9e-5 -4.39e-4 -110zm-0.389 14.6c0.12-0.0506 0.251-0.08 0.39-0.08 0.552 0 1 0.45 1 1l1.48e-4 110-2-7.9e-4 -1.48e-4 -110c3e-6 -0.414 0.251-0.769 0.61-0.92z"/>
			<circle cx="56.1" cy="332" r="10" d="m 66.125,332 a 10,10 0 0 1 -10,10 10,10 0 0 1 -10,-10 10,10 0 0 1 10,-10 10,10 0 0 1 10,10 z"/>
		</g>
		<use transform="rotate(-60 71.6 211)" xlink:href="#a"/>
	</g>
</svg>
