<svg width="347" height="347" version="1.1" viewBox="0 0 347 347" xmlns="http://www.w3.org/2000/svg" xmlns:xlink="http://www.w3.org/1999/xlink">
	<defs>
		<radialGradient id="a" cx="384" cy="332" r="173" gradientTransform="translate(.11 .11)" gradientUnits="userSpaceOnUse">
			<stop offset="0"/>
			<stop offset=".25"/>
			<stop style="stop-opacity:.85" offset="1"/>
		</radialGradient>
	</defs>
	<g transform="translate(-210 -159)">
		<path d="m384 159a173 173 0 0 0-173 173 173 173 0 0 0 173 173 173 173 0 0 0 173-173 173 173 0 0 0-173-173zm0 138a48.4 48.4 0 0 1 48.4 48.4 48.4 48.4 0 0 1-48.4 48.4 48.4 48.4 0 0 1-48.4-48.4 48.4 48.4 0 0 1 48.4-48.4z" style="fill:url(#a);"/>
		<path d="m376 334c-2.85 0.119-3.63 4.05-3.63 4.05s-6.15 0.839-6.85 3.5c-0.699 2.66 5.6 7.13 11.5 6.22l-3.71 5.6s-1.96-2.17-2.6-1.75c-0.629 0.419 0.49 2.1 0.49 2.1s-3.29-0.35-3.15 0.629c0.14 0.979 2.94 0.77 2.94 0.77 0 0-1.75 1.12-1.12 1.82 1.24 0.253 2.54-0.963 3.63-1.54 0.559-0.28 5.73-6.57 5.73-6.57l6.69 2.06s-3.39 1-2.71 3.89c0.579 2.45 4.85 2.58 8.39 2.07l-5.74 1.28s-1.82-1.54-2.45-0.979c-0.629 0.559 1.47 1.89 1.47 1.89s-2.6-0.069-2.6 0.84c0 0.91 2.87-0.0703 2.87-0.07s-1.33 1.4-0.699 1.68c0.629 0.28 1.82-1.47 1.82-1.47 2.31-2.52 13.6-1.87 12-5.65-0.263-0.617-1.22-0.897-2.47-0.986 3-0.801 5.63-2.29 5.69-5.04 0.28-11.7-20.6-9.79-20.6-9.79s-1.54-4.41-4.61-4.54c-0.0961-4e-3 -0.189-4e-3 -0.281 0zm0.49 2.31a1.68 1.68 0 0 1 1.68 1.68 1.68 1.68 0 0 1-1.68 1.68 1.68 1.68 0 0 1-1.68-1.68 1.68 1.68 0 0 1 1.68-1.68zm0 0.84a0.479 0.839 0 0 0-0.48 0.838 0.479 0.839 0 0 0 0.479 0.84 0.479 0.839 0 0 0 0.48-0.84 0.479 0.839 0 0 0-0.48-0.838z"/>
	</g>
</svg>
