<?xml version="1.0" encoding="UTF-8" standalone="no"?>
<!-- Created with Inkscape (http://www.inkscape.org/) -->

<svg
   width="786.9881"
   height="583.73932"
   viewBox="0 0 786.98814 583.73932"
   version="1.1"
   id="svg8"
   sodipodi:docname="image.svg"
   inkscape:version="1.2.1 (9c6d41e410, 2022-07-14)"
   xml:space="preserve"
   xmlns:inkscape="http://www.inkscape.org/namespaces/inkscape"
   xmlns:sodipodi="http://sodipodi.sourceforge.net/DTD/sodipodi-0.dtd"
   xmlns="http://www.w3.org/2000/svg"
   xmlns:svg="http://www.w3.org/2000/svg"
   xmlns:rdf="http://www.w3.org/1999/02/22-rdf-syntax-ns#"
   xmlns:cc="http://creativecommons.org/ns#"
   xmlns:dc="http://purl.org/dc/elements/1.1/"><defs
     id="defs2" /><sodipodi:namedview
     id="base"
     pagecolor="#ffffff"
     bordercolor="#666666"
     borderopacity="1.0"
     inkscape:pageopacity="0.0"
     inkscape:pageshadow="2"
     inkscape:zoom="0.7"
     inkscape:cx="397.85714"
     inkscape:cy="211.42857"
     inkscape:document-units="px"
     inkscape:current-layer="layer1"
     showgrid="false"
     units="px"
     inkscape:window-width="1920"
     inkscape:window-height="1017"
     inkscape:window-x="1272"
     inkscape:window-y="505"
     inkscape:window-maximized="1"
     inkscape:showpageshadow="2"
     inkscape:pagecheckerboard="0"
     inkscape:deskcolor="#d1d1d1" /><metadata
     id="metadata5"><rdf:RDF><cc:Work
         rdf:about=""><dc:format>image/svg+xml</dc:format><dc:type
           rdf:resource="http://purl.org/dc/dcmitype/StillImage" /></cc:Work></rdf:RDF></metadata><g
     inkscape:label="Layer 1"
     inkscape:groupmode="layer"
     id="layer1"
     transform="translate(817.04308,-58.754942)"><path
       style="fill:#000000"
       d="m -111.71397,482.90517 c 22.27686,-24.13392 51.54531,-37.74652 78.598089,-53.97291 17.149531,-28.54096 -42.69014,-26.49815 -57.549139,-16.83423 -28.76551,17.31831 -56.43,37.87176 -86.79266,51.7556 l 48.82258,-62.37367 c 8.28646,-16.52343 65.628776,-45.61683 25.6183,-53.63374 -28.14769,4.18707 -55.94036,14.39507 -75.25282,36.06509 -27.22428,23.20224 -49.96692,52.98781 -82.0137,69.66221 -47.18815,15.81992 -94.58716,37.06069 -145.0746,37.86223 -26.81989,7.95415 -66.1922,-31.8226 -25.04441,-41.35726 36.04385,-0.19031 74.96627,7.65123 107.45594,-12.79211 17.36485,-3.2098 51.96344,-41.60019 14.78457,-38.45182 -61.23051,-10.20107 -120.46418,-29.01191 -180.64204,-43.67341 -24.38152,-4.96189 -49.22168,-7.72567 -74.1063,-8.01649 -67.40498,-0.3447 -136.13971,16.06534 -193.72652,51.59952 -51.44391,37.27781 -63.39796,106.69948 -59.82096,166.32531 2.5536,27.21415 11.4897,53.83484 25.14319,77.42478 30.19271,-48.21855 78.37826,-86.92753 135.88442,-94.82016 29.84259,-6.6627 60.01381,0.95259 87.15991,13.47078 52.33052,15.59737 104.01978,35.77927 158.33477,42.94725 41.96544,-1.56459 82.42343,-17.49344 121.13579,-32.34494 56.43414,-21.65023 86.10976,-29.29049 177.08559,-88.84203 z"
       id="path339"
       sodipodi:nodetypes="ccccccccccccccccccccsc" /><path
       id="path337"
       style="fill:#000000"
       d="m -170.84401,58.800341 c -8.64011,0.218353 -16.82877,1.227893 -22.1875,3.111328 -14.69992,5.166605 -40.32617,27.567684 -40.32617,35.25 0,0.552937 -1.51087,4.230761 -3.35742,8.173831 -1.84656,3.94305 -3.96994,8.86037 -4.7168,10.92578 -1.77437,4.90689 -2.12262,5.15412 -17.92578,12.66601 -32.419,15.41008 -48.82182,27.47334 -67.40039,49.57617 -2.80534,3.3375 -9.14961,10.7859 -14.09961,16.55078 -4.94997,5.76488 -10.8,12.70147 -13,15.41407 -2.2,2.71261 -6.28147,7.41424 -9.06836,10.44921 -2.78686,3.03497 -9.06952,10.24456 -13.96094,16.01954 -4.89139,5.77499 -10.93494,12.76956 -13.43164,15.54492 -6.09425,6.77452 -10.36664,11.68666 -16.92578,19.45508 -3.01846,3.57499 -7.54139,8.79299 -10.05078,11.5957 -2.50939,2.80269 -8.8375,9.95632 -14.0625,15.89844 -5.22497,5.94212 -15.12501,16.92931 -22,24.41601 -21.25158,23.14252 -21.24895,23.099 -1.30859,16.13281 8.14422,-2.84519 18.63362,-6.22124 23.30859,-7.5039 4.675,-1.28263 12.55003,-3.5504 17.5,-5.03906 42.30837,-12.72387 54.99483,-13.50801 79,-4.88477 28.47483,10.22885 28.89216,10.34455 41.89844,11.57031 l 12.60156,1.1875 v 2.82422 c 0,1.55322 0.64608,6.98093 1.4375,12.0625 2.59366,16.65342 2.50296,21.18209 -0.4375,21.57031 -5.37918,0.71021 -17.55847,16.21562 -16.82031,21.41407 3.49097,1.40143 8.72844,-5.67854 11.70898,-9.99219 2.98056,-4.31367 12.16896,-3.52002 20.29883,14.52148 1.98433,4.40355 3.8125,4.81625 3.8125,0.86133 0,-11.09261 23.08312,-23.50505 28.45117,-15.13476 3.87237,6.03809 4.54402,7.8168 8.6211,8.46875 l 3.90625,-5.00782 c -0.64653,-1.20804 -3.98872,-5.42202 -7.42774,-9.36523 -3.439,-3.94325 -6.73262,-8.06569 -7.31836,-9.16016 -3.67178,-6.86082 -4.29608,-40.43554 -0.75195,-40.43554 0.665,0 1.98678,-0.85963 2.9375,-1.91016 0.95072,-1.05054 2.90294,-2.20626 4.33789,-2.56641 2.81024,-0.70533 5.52028,-1.9945 17.41797,-8.28906 22.14116,-11.71398 32.64558,-23.34855 45.79297,-50.71875 12.19716,-25.39204 20.61785,-52.70536 27.95898,-90.6875 2.95669,-15.29761 7.69671,-22.95571 23.29297,-37.63477 3.32752,-3.13182 7.94828,-7.49336 10.26758,-9.69335 2.31929,-2.19999 9.908723,-9.35111 16.865232,-15.89063 13.4811,-12.673009 14.182775,-13.76833 9.898437,-15.443355 -1.512496,-0.591337 -6.350014,-2.46012 -10.75,-4.154297 -4.399987,-1.694174 -9.800006,-4.180322 -12,-5.523437 -2.199999,-1.343127 -5.658419,-3.345945 -7.683599,-4.451172 -2.02517,-1.105217 -3.97996,-2.494158 -4.3457,-3.085938 -0.36574,-0.591787 -1.75809,-1.490229 -3.09375,-1.998046 -2.46968,-0.938969 -2.76787,-1.417381 -3.78906,-6.103516 -0.69199,-3.175471 -4.43538,-4.738481 -9.80078,-4.089844 -2.67082,0.32289 -4.72162,-0.174603 -7.3086,-1.773437 -5.90967,-3.652384 -21.56463,-5.486969 -35.96484,-5.123047 z m 26.98633,34.355469 c 2.20487,0.07391 4.30259,0.946932 5.91015,2.857421 4.24836,5.048889 3.01657,15.804479 -2.16015,18.855469 -2.12407,1.35891 -9.99834,5.40593 -16.21875,-7.29492 -1.73125,-7.676123 5.85414,-14.639694 12.46875,-14.41797 z m -1.09961,9.43164 c -0.53853,0.009 -1.14057,0.16269 -1.7832,0.49609 -2.00174,1.03851 -2.26475,2.80557 -1.38086,3.68946 1.66314,1.66314 4.72179,1.43533 5.42773,-0.4043 0.77104,-2.00929 -0.34036,-3.81427 -2.26367,-3.78125 z m -103.25586,227.8457 c 2.1458,-0.82342 2.85547,4.93261 2.85547,23.17383 0,17.10931 -0.43187,18.44477 -9.00586,27.9375 -6.78115,7.50778 -7.99414,8.40538 -7.99414,5.91211 0,-0.90499 -0.68956,-3.7537 -1.53125,-6.33203 -1.3605,-4.16757 -1.36597,-5.23484 -0.0469,-9.60938 0.81612,-2.7064 4.23695,-7.80562 3.95507,-8.26172 -0.96184,-1.55631 -2.07,-1.97988 -3.89843,-0.1582 -4.82485,4.807 -4.95964,5.17855 -6.10352,-16.35352 l -0.67383,-12.69336 2.39844,-0.51172 c 1.31966,-0.28138 6.01655,-0.9586 10.4375,-1.50585 4.42099,-0.54726 8.74459,-1.26656 9.60742,-1.59766 z" /></g></svg>
