<svg width="267" height="294" version="1.1" viewBox="0 0 267 294" xmlns="http://www.w3.org/2000/svg">
	<g transform="translate(-246 -36)">
		<path d="m256 133c3-122 153-105 153-13-1e-5 60-29 75-29 125-0 45-18 72-54 74.4s-39-24.5-39-24.5" style="fill:none;stroke-linecap:round;stroke-linejoin:round;stroke-width:20;stroke:#000"/>
		<path d="m346 249c-6.33-69 64.5-121 10.3-164-30-24-63.3 11-64.5 32 0 0 25.7-14 40-5 14 8.7-6.33 73.6-6.33 73.6" style="fill:none;stroke-linecap:round;stroke-linejoin:round;stroke-width:20;stroke:#000"/>
		<path d="m472 73c-0 60-35 49-35 94s70 44 70 0-34-34-35-94z" style="stroke-linecap:round;stroke-linejoin:round;stroke-width:10;stroke:#000"/>
	</g>
</svg>
