<svg width="164" height="122" version="1.1" viewBox="0 0 164 122" xmlns="http://www.w3.org/2000/svg">
	<path d="m0 0 0.318 92.3s16.5 17.1 26.5 18c9.99 0.842 4.46-3.69 16.3 0.971s12.8 0.613 20.1 5.33c7.28 4.71 20.5 3.12 20.5 3.12s14-10.5 12.9-13.4c-1.11-2.88-5.25-0.533-5.25-0.533s-2.36-9.4-5.27-13.7c-2.91-4.27-6.13-7.19-6.13-7.19l-3.11-22.3 11.2-5.77 12.2 2.1s-9.59-9.61-15.5-11.9c-5.94-2.33-11.4-5.89-11.4-5.89l26.3 0.754 9.17 3.53s-8-16.2-19.9-17.6c-11.9-1.38-20.5-2.48-20.5-2.48zm60.8 61.6c2.88 0 5.21 2.33 5.21 5.21s-2.33 5.21-5.21 5.21-5.21-2.33-5.21-5.21 2.33-5.21 5.21-5.21z"/>
	<circle cx="116" cy="116" r="6"/>
	<circle cx="61.5" cy="67.5" r="2.5"/>
	<circle cx="132" cy="116" r="6"/>
	<circle cx="124" cy="107" r="6"/>
	<circle cx="144" cy="116" r="6"/>
	<circle cx="158" cy="116" r="6"/>
	<circle cx="138" cy="106" r="6"/>
</svg>
