<svg width="627.5" height="511.2" version="1.1" viewBox="0 0 161.5 143.8" xmlns="http://www.w3.org/2000/svg">
	<defs>
		<marker id="a" style="overflow:visible" markerHeight="3.4679999" markerWidth="2.99982" orient="auto-start-reverse" preserveAspectRatio="xMidYMid" viewBox="0 0 5.3244081 6.1553851">
			<path transform="scale(.5)" d="m5.77 0-8.65 5v-10z" style="fill-rule:evenodd;fill:context-stroke;stroke-width:1pt;stroke:context-stroke"/>
		</marker>
	</defs>
	<path d="m68.75 139.9c-1.38-1.038-1.991-4.563-3.942-3.757-4.728 1.665-9.456 3.33-14.18 4.995-1.079-5.205-2-10.44-2.721-15.7-3.392-0.5671-6.839-0.7692-10.26-1.082-0.6111-2.445-1.442-4.846-1.604-7.379 5.541-1.509 11.08-3.01 16.63-4.502 0.9372-3.189 1.827-6.391 2.684-9.603-3.238-1.075-6.519-1.999-9.845-2.758-4.112 4.109-8.225 8.219-12.34 12.33-1.794-1.703-3.562-3.433-5.308-5.184 1.397-3.153 2.718-6.337 3.962-9.554l-12.08-10.12c4.073-3.42 8.146-6.84 12.22-10.26-1.383-3.137-2.749-6.282-4.1-9.433 1.744-1.748 3.514-3.469 5.317-5.156 4.11 4.106 8.219 8.213 12.33 12.32 3.32-0.7694 6.603-1.672 9.853-2.698l-2.773-9.577c-5.589-1.674-11.23-3.162-16.85-4.723 0.5812-2.166 1.151-4.335 1.718-6.505 3.393-1.128 6.95-1.296 10.45-1.819 0.7191-5.266 1.642-10.5 2.724-15.7 5.038 1.777 10.08 3.554 15.12 5.33 1.964-2.712 3.973-5.389 6.034-8.028 2.376 0.5138 4.69 1.222 6.923 2.186-1.419 5.505-2.806 11.02-4.158 16.54 2.259 2.545 4.57 5.042 6.955 7.47 2.397-2.425 4.718-4.92 6.986-7.465-1.351-5.521-2.737-11.03-4.158-16.54 2.304-0.7336 4.607-1.467 6.911-2.201 2.065 2.636 4.075 5.313 6.035 8.028 5.043-1.776 10.09-3.552 15.13-5.328 1.086 5.208 2.015 10.44 2.743 15.71 3.381 0.5842 6.824 0.7747 10.24 1.073 0.6111 2.445 1.442 4.846 1.604 7.379-5.541 1.509-11.08 3.01-16.63 4.502-0.9372 3.189-1.827 6.391-2.684 9.603 3.238 1.075 6.519 1.999 9.845 2.758 4.116-4.113 8.232-8.226 12.35-12.34 1.789 1.71 3.553 3.446 5.297 5.201-1.399 3.152-2.72 6.337-3.962 9.554l12.08 10.11c-4.074 3.42-8.148 6.84-12.22 10.26 1.383 3.137 2.749 6.282 4.1 9.433-1.744 1.748-3.514 3.469-5.317 5.156-4.11-4.106-8.219-8.213-12.33-12.32-3.32 0.7694-6.603 1.672-9.853 2.698 0.9244 3.192 1.849 6.385 2.773 9.577 5.593 1.675 11.24 3.164 16.86 4.726-0.628 2.401-1.288 4.793-1.975 7.178-3.349 0.3298-6.692 0.7077-10.03 1.128-0.8561 5.259-1.825 10.5-2.896 15.72-5.04-1.777-10.08-3.555-15.12-5.332-1.964 2.712-3.973 5.389-6.034 8.028-2.308-0.7163-4.616-1.433-6.923-2.149 1.431-5.509 2.818-11.03 4.162-16.56-2.26-2.551-4.577-5.048-6.975-7.47-2.398 2.422-4.714 4.92-6.975 7.47 1.343 5.528 2.73 11.05 4.162 16.55-2.304 0.7212-4.607 1.442-6.911 2.164-1.013-1.313-2.026-2.625-3.039-3.938zm0.2298-25.04c1.765-0.9394 4.437-1.045 4.501-3.547 2.451-7.512 4.902-15.02 7.354-22.54-5.842 6.299-11.63 12.65-17.36 19.05 0.3639 2.847 0.9675 5.648 1.643 8.436 1.286-0.4678 2.573-0.9356 3.859-1.403zm29.92-2.886c0.1284-1.985 1.476-4.331-0.6901-5.635-5.279-5.909-10.63-11.75-16.02-17.56 2.66 8.149 5.319 16.3 7.979 24.45 2.552 0.9827 5.104 1.965 7.655 2.948l1.073-4.197zm-31.09-21.64c4.102-0.9214 8.203-1.843 12.3-2.764-8.327-1.781-16.65-3.563-24.98-5.344-2.22 1.783-4.439 3.566-6.659 5.349l6.609 5.334c4.242-0.858 8.484-1.716 12.73-2.574zm43.61 0.0164c1.192-1.359 4.643-2.771 1.579-4.031-1.831-1.239-3.48-3.251-5.422-4.022-8.218 1.761-16.44 3.522-24.66 5.283 8.234 1.772 16.47 3.543 24.7 5.315 1.266-0.8484 2.531-1.697 3.797-2.545zm-34.4-16.13c-1.444-4.129-2.888-8.257-4.332-12.39-2.58-0.9206-5.16-1.841-7.741-2.762-0.5656 2.736-1.065 5.483-1.466 8.248 5.74 6.439 11.54 12.82 17.4 19.15-1.288-4.084-2.575-8.167-3.863-12.25zm13.91 2.675c2.87-3.186 5.741-6.373 8.611-9.559-0.3898-2.77-0.8848-5.522-1.45-8.262-2.642 0.9543-5.284 1.909-7.926 2.863-2.697 8.149-5.395 16.3-8.092 24.45 2.952-3.163 5.904-6.326 8.856-9.489z" style="stroke-width:.2812"/>
	<path d="m3.349 58.97a83.2 83.2 0 0 1 92.63-53.48 83.2 83.2 0 0 1 68.76 81.94" style="fill:none;marker-start:url(#a);stroke-linecap:round;stroke-linejoin:round;stroke-width:8.438;stroke:#000"/>
</svg>
