<svg width="106" height="49" version="1.1" viewBox="0 0 106 49" xmlns="http://www.w3.org/2000/svg">
	<g transform="translate(4.78 -16.3)">
		<path d="m17.7 19.7a22.5 22.5 0 0 0-22.5 22.5 22.5 22.5 0 0 0 22.5 22.5 22.5 22.5 0 0 0 22.5-22.5 22.5 22.5 0 0 0-22.5-22.5zm-8.16 11.5a4.22 4.22 0 0 1 4.22 4.22 4.22 4.22 0 0 1-4.22 4.22 4.22 4.22 0 0 1-4.22-4.22 4.22 4.22 0 0 1 4.22-4.22zm16.3 0a4.22 4.22 0 0 1 4.22 4.22 4.22 4.22 0 0 1-4.22 4.22 4.22 4.22 0 0 1-4.22-4.22 4.22 4.22 0 0 1 4.22-4.22zm-1.18 3.6a1.68 1.68 0 0 0-1.68 1.68 1.68 1.68 0 0 0 1.68 1.68 1.68 1.68 0 0 0 1.68-1.68 1.68 1.68 0 0 0-1.68-1.68zm-16.3 0.102a1.73 1.73 0 0 0-1.73 1.73 1.73 1.73 0 0 0 1.73 1.73 1.73 1.73 0 0 0 1.73-1.73 1.73 1.73 0 0 0-1.73-1.73z" style="stroke-width:2.54"/>
		<path d="m60.6 16.3c-3.26 0.0459-6.59 1.09-8.18 3.04-3 3.67-5.12 9.34-0.556 18 2.03 3.34 5.87 9.13 10.6 8.56 1.12 4.01 2.8 4.87 4.87 5.31 3.59 2.2 2.19 4.39 1.37 6.77-0.71 2.07-0.73 3.19-0.392 4.66 0.478 2.07 1.78 2.11 5.77 2.29 0.621 0.0285 4.78 0.751 4.95 0.0836 0.167-0.667-1.11-0.89-1.11-0.89s1.64 0.25 1.7-0.417c0.0284-0.341-0.523-0.536-1.07-0.646 0.938-0.111 1.17-0.268 1.17-0.639 0-0.551-0.983-0.55-0.983-0.55s0.983 2.5e-5 0.787-0.865c-0.0068-0.0298-0.0143-0.0575-0.0225-0.084 0.392-0.115 0.693-0.615 0.86-0.961 0.0203 0.0018 0.0398 0.0025 0.0588 0.0033-0.106 0.475-0.228 1.31 0.143 1.6 0.528 0.417 1.61-0.778 1.61-0.778s-0.0836 1.42 0.862 1.5c0.945 0.0834 1.17-1.5 1.17-1.5s0.779 1.5 1.56 1.25c0.779-0.25 0.473-1.72 0.473-1.72s0.417 1.59 1.45 1.08c1.03-0.501 0.278-1.72-0.194-2.31-0.473-0.584-2.64-3.48-3.7-5.01-0.916-1.33-2.45-4.69-2.85-5.57 1.33-0.886 2.38-1.78 3.1-2.42 1.45-1.28 2.34-2.98 2.34-2.98s1.61 1.84 2.17 2.81c0.556 0.973 3.09 8.7 3.09 8.7s-1.81 2.86-2.25 3.73c-0.445 0.862-0.528 1.14 0.028 1.78 0.556 0.64 2-1.2 2-1.2s0.501 0.361 0.667 1.28c0.167 0.918-0.723 2.75 0.222 3.03 0.945 0.278 1.45-1.22 1.45-1.22s-0.139 1.5 1.06 1.72c1.2 0.222 1.33-1.53 1.33-1.53s0.223 1.08 1.28 1.2c1.06 0.111 0.528-1.2 0.528-1.2s1 0.862 1.75 0.028c0.751-0.834-3.7-4.51-5.51-7.7-1.81-3.2-2.2-8.68-2.45-11.7-0.246-3 0.683-3.49-0.017-7.21 1.22-0.454 2.29-1.04 2.8-1.77 0.988-1.42 1.02-2.23 0.683-3.35 0.421 0.257 0.905 0.481 1.4 0.567 1.45 0.25 3.25 0.222 4.03-2.2 0.779-2.42-0.0831-4.64-2.25-5.28-2.17-0.64-3 0.834-3.59 0.89-0.29 0.0276-0.491-0.103-0.62-0.241 0.294-1.49 0.617-2.82-1.16-4.9-2.89-3.39-12.5-0.834-13.3 0.89-0.259 0.535-0.453 1.41-0.615 2.42-0.445-0.419-1.68-1.49-2.67-1.42-1.22 0.0834-2.86 0.64-3.31 2.75-0.445 2.11 0.167 3.73 1.45 4.48 1.18 0.692 2.67 1.03 3.54 1.08-0.73 2.13-5.85 3.06-8.47 4.15-2.49 1.04-8.09 4.6-7.64 10.3-0.78-0.29-8.47-3.38-10.2-13.1-1.78-10.2 5.01-13 9.12-12.9 4.12 0.111 9.01 3.34 6.01 7.45-3 4.12-6.45 1.78-5.34 0.111 1.11-1.67 0.556-2.78-0.667-3.34-1.22-0.556-4.56 0.557-4.45 2.56 0.111 2 1.67 4.34 4.23 5.01 2.56 0.667 6.67-8.4e-5 8.12-2.89 1.45-2.89 2.34-5.01-1-8.34-1.56-1.56-4.4-2.3-7.28-2.26zm24.3 6.62c0.0555 0.0021 0.11 0.0096 0.164 0.0225 0.619 0.15 0.951 0.974 0.741 1.84-0.21 0.866-0.882 1.45-1.5 1.3-0.619-0.15-0.951-0.974-0.741-1.84 0.189-0.779 0.759-1.34 1.34-1.32zm5.01 0.445c0.0555 0.0021 0.11 0.0096 0.164 0.0225 0.619 0.15 0.951 0.974 0.741 1.84-0.21 0.866-0.882 1.45-1.5 1.3-0.619-0.15-0.951-0.974-0.741-1.84 0.189-0.779 0.759-1.34 1.34-1.32zm-3.07 3.03c0.0444-5.26e-4 0.0904-9e-5 0.137 0.0016 1.5 0.0556 1.7 1.31 1.7 1.31s-1.22 0.25-1.36 0.445c-0.139 0.195-0.278 1.28-0.278 1.28s-0.278-1.22-0.584-1.53c-0.306-0.306-1.17-0.417-1.17-0.417s0.182-1.07 1.56-1.09zm-8.46 23.6c0.359 0.318 0.71 0.717 1.04 1.22 1.04 1.59 1.38 2.78 1.45 3.62-1.04-0.325-2.79-0.589-3.07-0.961-0.262-0.341-0.633-2.46-0.77-3.28 0.472-0.186 0.926-0.385 1.36-0.595zm-3.24 1.14c0.203 1.9 0.66 5.78 1.07 6.55 0.269 0.499 1.23 1.14 2.2 1.62-0.122 0.0164-5.89 1.68-6.48 1.03-0.603-0.658 1.3-2.65 1.12-4.56-0.0718-0.752-0.644-3.62-0.762-4.2 1.13-0.107 2.14-0.286 2.85-0.427z" style="stroke-width:1.69"/>
	</g>
</svg>
