<?xml version="1.0" encoding="UTF-8"?>
<!-- Created with Inkscape (http://www.inkscape.org/) -->
<svg width="811.8" height="587.7" version="1.1" viewBox="0 0 811.8 587.7" xml:space="preserve" xmlns="http://www.w3.org/2000/svg" xmlns:cc="http://creativecommons.org/ns#" xmlns:dc="http://purl.org/dc/elements/1.1/" xmlns:rdf="http://www.w3.org/1999/02/22-rdf-syntax-ns#"><metadata><rdf:RDF><cc:Work rdf:about=""><dc:format>image/svg+xml</dc:format><dc:type rdf:resource="http://purl.org/dc/dcmitype/StillImage"/></cc:Work></rdf:RDF></metadata><path d="m610.1 424.8c-6.882-2.04-7.151-3.221-6.949-30.51 0.2012-27.22-0.4086-25.39 9.355-28.07 3.077-0.8468 9.299-2.934 12.59-4.645 10.65-6.321 22.85-3.271 31.6-6.421 3.379-1.245 10.74-3.29 16.41-4.441 5.662-1.151 13.84-2.973 18.17-4.049 20.56-5.108 24.79-1.263 21.74 19.74-3.388 23.32-3.764 29.51-2.291 37.67 3.278 18.16 3.032 18.25-49.34 19.17-21.51 0.3775-46.96 1.014-47.79 1.415s-2.4 0.4614-3.5 0.1352zm-607.7-3.843c1.081 0-0.01619-5 0.03455-7.75 0.05081-2.75-0.5523-8.987-1.34-13.86-1.317-8.146-1.374-9.877-0.7006-21.5 0.4026-6.952 0.5299-16.59 0.283-21.42-0.4734-9.259 0.2077-11.84 3.898-14.78 6.34-5.047 46.54-4.082 48.74 1.17 1.215 2.903 3.037 78.93 1.916 79.98-2.871 2.683-54.82-1.835-52.83-1.835zm186.5 0.0451c-25.62-3.904-33.87 4.754-21.58-49.8 4.016-17.82 2.998-21.98 9.492-22.31 4.286-0.2177 8.178-0.0281 11.59 1.212 3.68 1.336 8.823 2.599 11.29 3.047 5.977 1.083 11.97 3.743 17.41 4.01 13.77 0.6757 3.705 7.158 3.655 18.44-0.0183 4.075 0.5854 6.515-0.5126 12.48-0.8215 4.463-2.008 13.97-2.637 21.12-1.354 15.39-3.095 15.7-28.71 11.8zm541.5-0.1369c-7.272-6.971-8.596-19.1-4.108-37.61 1.441-5.944 3.038-14.24 3.549-18.43 3.011-24.7 0.8181-23.52 43.85-23.58 0 0 23.24-10.16 29.76-0.0415s8.338 26.9 7.583 43.58 3.826 34.95-16.11 36.29-62.53 1.7-64.53-0.2112zm-651.5 1.202c-16.11-4.603-12.95-35.6-9.806-42.85 3.142-7.252-5.201-36 1.871-45.46 7.071-9.458 8.397-11.35 42.26-2.521 5.217 1.36 14.72 3.786 21.11 5.391 17.11 4.295 17.69 9.686 12.05 55.58-3.706 30.17-2.01 32.22-15.09 34.74s-44.35-2.572-52.41-4.874zm528.1-69.31c-3.938-2.401-4.675-3.756-7.124-13.1-1.073-4.097-2.625-9.923-8.523-34.54-5.898-24.62-5.898-24.62 0.4424-31.02 8.14-8.213 16.62-12.07 27.9 4.017 11.28 16.09 8.682 21.09 9.477 29.09 0.4367 4.4 1.127 11.38 1.534 15.5s1.126 9.21 1.598 11.3c2.778 12.3-14.22 25.51-25.3 18.75zm41.8-24.19c-2.775-16.71-3.838-33.01-2.285-35.03 3.302-4.299 21.79-11.81 29.09-11.82 7.184-0.0101 7.375 0.3896 9.764 20.49 0.5882 4.95 1.841 13.82 2.783 19.71 0.9424 5.89 1.513 11.02 1.268 11.4-1.305 2.028-12.89 5.54-22.98 6.966-6.193 0.8754-12.17 2.199-14.13 0.5325-1.957-1.667-2.656-7.104-3.511-12.25zm-454.6 12.78c-3.076-3.118-3.991-8.072-1.899-16.18 8.306-32.19 7.319-51.43 28.15-35.9 13.99 10.43 12.94 8.844 10.52 20.72-6.534 31.97 0.167 32.32-19.1 33.01-14.77 0.5425-15.56 0.4875-17.66-1.65zm-186.9-46.82c0.01945-12.28-0.1756-23.95-0.4334-25.95-0.5228-4.047 0.4575-7.6 3.33-12.07 7.317-11.39 55.89-4.53 61.77 8.728 2.511 5.657 2.487 20.16-0.04458 27.39-0.8226 2.348 4.963 13.88-3.638 27.83s-14.42 4.352-33.62 4.055c-17.51-0.2707-19.32-0.1425-23.3-2.564-3.981-2.421-4.109-3.73-4.072-27.41zm158.9 32.79c-0.2095-0.2125-6.425-0.9201-11.64-1.572-5.217-0.6524-17.72-2.71-27.79-4.572s-22.06-3.699-26.65-4.082c-10.19-0.8498-9.534 0.5723-10.29-22.39-0.3004-9.075-0.7362-18.3-0.9684-20.5-2.075-19.65 86.73-21.45 92.04-1.835 1.851 6.833 0.7604 28.36-2.018 39.84-1.332 5.5-2.666 11.24-2.964 12.75-0.4988 2.527-7.813 4.304-9.726 2.364zm547.5-1.019c-10.32-3.963-13.84-11.94-13.82-31.29 0.0155-17.28 1.229-18.59 22.51-24.29 4.423-1.185 12.24-3.493 17.37-5.129 25.37-8.089 30.65-5.043 30.46 17.57-0.2408 28.89-3.162 35.28-16.68 36.48-6.922 0.6152-7.226 0.7418-10.46 4.349-3.624 4.046-21.25 5.432-29.38 2.31zm64.62-7.334c-3.862-9.174 5.863-52.94 14.78-64.98s20.7 24.17 18.43 32.05c-2.272 7.872-6.443 30.29-11.49 35.18-3.49 3.033-20.56 0.4569-21.71-2.24zm-549.2-30.54c-16.42-10.8-18.15-12.49-17.96-22.22 0.089-4.508-2.837-12.14 0.1393-15.17 3.151-3.207 8.892-11.55 12.89-18.83 6.359-11.58 19.09-21.27 23.85-18.16 14.71 9.638 23.81 23.92 17.19 31.69s-7.154 13.05-9.573 16.37-10.35 11.66-12.81 16.09c-5.922 10.68-4.233 16.47-13.74 10.22zm410.6-15.46c-5.031-11.26-8.661-15.59-10.76-26.01-2.533-12.57 0.7224-12.5 16.55-20.57 80.01-40.79 100.3-42.67 104.6-9.685 1.55 11.82 1.208 16.45-1.704 23.02-3.059 6.903-2.651 6.781-36.77 10.98-9.583 1.178-11.53 7.71-20.77 12.54-9.238 4.826-20.9 7.396-32.23 12.79s-13.92 8.195-18.95-3.068zm-64.23-13.38c-11.06 0-9.895-12.9-20.88-29.78-10.39-16.78-13.19-10.79-0.0157-23.28 15.24-14.45 13.48-13.99 22.62-5.835 4.277 3.82 9.591 9.775 11.81 13.23s5.957 9.255 8.309 12.88c2.353 3.624 4.583 7.385 9.195 17.18s0.7611 16.94-12.05 21.05c-12.81 4.109-13.35 4.078-18.98-5.441zm-396.6-5.983c-3.375-0.4806-15.28-3.51-22.1-6.731-6.815-3.222-14.37-6.439-16.79-7.151-5.946-1.746-5.871-1.419-3.031-13.15 4.306-17.78 7.8-27.3 10.17-27.71 3.851-0.6604 22.34 8.166 38.63 11.53s21.09 11.07 16.3 27.38c-4.008 13.65-10.08 17.69-23.18 15.82zm-105.3-4.238c-2.351-3.694-36.24-13.28-56.37-12.35-18.45 0.8471-3.272-19.49 2.756-31.3 11.35-22.23 33.42-46.2 35.65-41.1 2.227 5.099 14.17 13.02 15.02 14.64 0.7248 1.388 7.291 3.907 16.87 6.472 6.477 1.734 33.01 12.54 35.55 14.47 2.391 1.825 2.575 4.046 1.035 12.51-0.5501 3.025-1.004 9.63-1.008 14.68-0.0117 13.29-0.1766 13.46-18.07 17.43-17.89 3.971-30.83 5.49-31.43 4.544zm686.6-26.69c0.3704-9.631 0.6226-22.75 0.3933-24.98-0.8214-7.984 0.8366-9.668 13.34-13.55 4.894-1.518 9.273-3.341 10.29-3.763s4.65-1.202 13.13-3.647c3.312-0.9547 4.595 59.29 1.287 60.43-0.7962 0.2723-6.514 1.203-12.71 2.068-11.73 1.639-15.36 2.26-21.23 5.97-5.861 3.71-4.879-12.9-4.509-22.53zm-500.7-9.902c-14.39-4.469-6.17-20.44 13.19-33.01 6.884-4.47 16.63-5.968 20.41-11.54 4.408-6.508 10.87-4.396 14.77 3.747 3.451 7.207 13.09 16.25 13.82 24.11 0.251 2.682-14.79 12.52-22.93 15.34-6.042 2.089-10.78 6.51-15.98 9.775-2.423 1.521-5.26 4.523-7.112 5.717-4.538 2.924-7.467-11.42-16.17-14.13zm360.4 2.959c-8.48-3.849-22.23-20.55-22.23-27 0-5.208 31.63-20.44 52.13-32.38 38.9-22.66 42.29-20.85 38.2 20.36-1.907 19.18-0.6156 17.34-16.1 22.96-13.32 4.836-25.1 10.92-34.16 15.12-7.294 3.385-11.86 3.64-17.83 0.931zm-86.37-10.63c-11.71-8.074-24.25-11.68-32.44-16.55-10.86-6.469-8.709-6.011-7.533-14.93 1.879-14.25 3.134-15.05 7.076-25.34 1.29-3.369 1.251-3.388 9.068-0.6137 19.46 6.905 54.49 34.04 48.96 38.37-0.8296 0.649-3.756 3.88-6.503 7.18-11.76 14.13-12.13 16.55-18.63 11.89zm-325.9-9.449c-16.17-5.577-50.8-15.94-54.04-15.94-2.183 0-2.459-4.182-1.093-16.59 1.475-13.4 1.18-16.61-1.76-28.91-1.906-7.972-7.565-13.91-7.592-22.87-0.0491-16.09 4.071-19.08 13.29-21.75 5.749-1.664 13.15-10.98 20.84-14.98 15.47-8.037 34.51-15.42 39.44-5.356 8.433 17.22 12.15 50.27 12.47 59.21 0.6607 18.89 6.628 31.42 14.93 42.33 5.587 7.346 5.641 6.518-1.006 15.5-13.38 18.09-11.54 17.61-35.47 9.359zm105.6-34.86c0.7286-3.643 6.156-7.428 12.57-9.752 6.413-2.324 11.4-3.718 15.48-5.422 10.17-4.244 10.1-4.227 15.48-7.426 5.385-3.2 8.319 0.1706 10.48 15.52 2.316 16.48 1.812 24.89-1.706 25.53-3.518 0.6437-11.25 5.774-14.19 7.418-2.936 1.645-11.94 6.3-20.36 4.709-8.418-1.591-18.83-25.17-17.75-30.59zm57.96-3.492c-3.048-18.33 2.977-26.7 43.63-26.76l14-0.0188-0.5981 17.44c-0.6381 18.61-0.9048 20.75-9.496 23.07-8.592 2.317-15.03 0.8112-19.54 3.089-1.531 0.773-4.779 1.64-7.218 1.926s-9.179 0.426-13.43-1.124-4.306 0.703-7.354-17.62zm93.11 21.27c-4.101-5.436-6.31-5.078-12.78-5.064-22.81 0.0518-19.1 2.83-17.87-27.54 0.5759-14.25 0.5759-14.25 5.542-14.25 10.8 0 33.74 2.537 51.96 10.6 5.046 2.232-0.7769 9.004-0.1198 14.71 1.385 12.03-4.242 21.6-14.8 22.69-6.878 0.7143-9.832 1.625-11.93-1.15zm234.7 2.528c0.0181-14.43 3.206-37.38 6.152-44.3 2.841-6.672 33.07-33.08 37.87-33.08 5.669 0 36.86 38.19 45.09 55.21 3.506 7.249 3.5 7.26-4.405 8.217-8.422 1.019-21.21 4.096-31.32 7.538-10.42 3.548-20.86 5.532-36.98 7.029-6.37 0.5916-12.67 1.341-13.99 1.666-2.318 0.5675-2.413 0.4774-2.409-2.287zm-581.2-4.501c-1.549-0.4075-6.427-2.528-10.84-4.712s-12.44-6.052-17.85-8.595c-14.52-6.837-23.12-3.086-15.04-17.24 13.85-24.26 30.35-38.64 50.91-36.73 9.194 0.8513 7.885 17.68 11.21 40.92 1.337 9.344 2.603 18.19 2.814 19.65 0.4469 3.097-4.678 5.479-10.66 4.955-1.71-0.1497-4.149 0.3529-5.42 1.117-1.556 0.9356-3.229 1.147-5.126 0.6481zm449.3-12.05c-6.381-6.134-12-11.9-12.49-12.82-1.172-2.191 10.58-55.55 14.72-67.26 8.596-24.33 34.6-56.38 45.75-56.38 16.09 0 37.28 12.37 38.03 19.33 1.284 11.88-0.6478 38.12-4.452 60.48-1.759 10.34-2.331 15.76-2.331 22.1-6e-5 8.399 2.202 7.329-11.22 15.13-7.382 4.293-20.75 11.53-29 16.07-29.84 16.44-25.74 16.09-39 3.344zm-306.8-3.742c-1.637-1.945-3.376-6.633-5.224-14.08-1.964-7.916-3.729-12.11-6.061-16.76-6.793-13.55-10.04-75.18-4.558-86.76 3.724-7.863 40.37-17.38 48.61-17.38 2.533 0 12.29 32.8 16.54 54.21 4.213 21.23 13.27 57.32 10.6 58.24-8.151 2.798-15.47 6.058-33.53 14.93-24.13 11.86-23.05 11.55-26.36 7.605zm256.6-31.84c-17.63-9.614-16.45-5.76-13.73-44.89 5.66-81.48 7.024-85.74 26-81.07 13.86 3.414 42.47 11.98 49.34 16.12 5.808 3.506 6.578 1.083-6.065 19.08-9.41 13.4-26.86 58.63-27.59 78.17-0.2534 6.756-0.7924 7.667-7.978 13.47-6.692 5.408-8.566 5.323-19.97-0.8977zm-187-22.69c-1.911-20.53-6.73-27.35-7.349-36.55-0.9862-14.64-4.581-18.38-7.89-30.63-4.768-17.66-2.386-19.05 4.258-23.48 20.41-13.62 45.45-2.614 45.59 33.91 0.028 7.346 3.796 23.99 6.29 37.24 2.494 13.26 2.733 25.27 2.975 26.7 0.5139 3.033-3.227 3.864-16.55 6.951-7.127 1.651-20.94 7.843-24.19 7.005-3.249-0.838-1.226-0.6297-3.137-21.16zm330.1 25.08c-0.0906-5.814 2.358-11.06 3.298-16.63 4.6-27.29 19.42-50.55 28.46-46.46 6.823 3.083 10.64 5.646 17.98 10.44 7.338 4.797 13.92 22.64 11.6 24.05-2.418 1.468-16.49 14-19.72 17.56-1.202 1.326-2.997 2.411-3.988 2.411-1.815 0-16.96 3.293-25.4 6.879-7.142 3.033-12.2 3.832-12.23 1.755zm-271.6-21.37c-3.836-13.73-6.39-28.78-7.267-42.58-0.4784-7.534-1.335-16.47-1.903-21.44-4.148-36.28-3.374-39.07 11.73-42.29 29.29-6.241 42.97-5.042 45.05 6.748 1.408 7.967-3.15 90.23-4.629 94.17-1.366 3.635-1.637 4.424-16.5 5.759-14.72 1.321-22.93 12.33-26.48-0.3654zm80.43 2.366c-4.295-1.624-9.163-2.379-15.33-2.38l-9.037-8.3e-4 0.7516-15.46c2.914-59.94-4.524-88.58 28.87-91.89 16.99-1.684 23.16 22.63 14.68 57.04-2.785 11.29-3.239 15.45-3.284 30.07-0.074 24.14-2.804 27.85-16.64 22.62z"/><path d="m428.3 588.1c-20.88-40.65-65.3-62.87-94.04-70.57-98.36-25.54-141.1-45.7-118.5-78.72 12.71-18.61 34.25-27.71 104-43.91 39.14-9.093 42.4-14.7 10.68-18.4-72.56-8.464-75.56-14.65-18.03-37.19 48.06-18.83 57.57-29.19 41.32-33.01-14.14-3.323-16.76-3.463-17.01-5.199-0.4975-3.434 7.64-5.202 19.89-6.833 25.62-3.41 20.13-9.2-11.67-12.32-4.535-0.4443-8.506-1.309-8.902-1.869-0.7537-1.065 3.802-2.686 7.054-3.556 17.46-4.557 43.44-12.58 45.89-14.18 3.47-2.26 2.702-3.071-5.689-6.008-8.927-3.125-10.2-4.675-4.284-5.927 7.904-1.673 69.52-1.742 71.26 0 2.338 2.337-2.459 5.905-11.71 8.408-12.71 3.44-10.34 4.452 24.35 10.44 43.74 7.549 44.26 10.99 3.54 23.18-36.14 10.81-38.05 15.33-9.253 21.87 30.32 6.889 28.8 11.92-5.469 18.16-26.64 4.851-25.47 5.74 20.14 15.36 106.8 22.53 134.9 38.74 94.06 54.12-27.82 10.47-31.26 14.99-17.06 24.65 23.09 15.71-1.267 21.46-62.06 24.34-91.8 4.338-72.03 20.65 76.09 62.75 89.49 25.44 162.9 74.41 162.9 74.41z" stroke-width="1.219"/></svg>
