<?xml version="1.0" encoding="UTF-8"?>
<svg width="400" height="400" version="1.1" viewBox="0 0 400 400" xmlns="http://www.w3.org/2000/svg">
	<path d="m156 181-6.21 12.4 5.21 12.7c12.1 29.7 11.7 64.4 11.7 65.6 14.7-7.79-2.22-71.1-10.7-90.7zm-6.68 13.4-13.1 26.3c23.2 32.8 16.3 57.4 30.1 51.3l-0.4-8e-3s0.67-35.5-11.6-65.5z"/>
	<path d="m183 29.6a113 113 0 0 0-113 113 113 113 0 0 0 74.6 106c-1.17-16.8-2.17-57.6 15.7-59.8 23.5-2.93 29.6 41.8 31.2 66.4a113 113 0 0 0 105-113 113 113 0 0 0-113-113zm12.8 45 11.4 11.4 11.4-11.4 4.24 4.24-11.4 11.4 11.4 11.4-4.24 4.24-11.4-11.4-11.4 11.4-4.24-4.24 11.4-11.4-11.4-11.4zm36.9 77.8 11.4 11.4 11.4-11.4 4.24 4.24-11.4 11.4 11.4 11.4-4.24 4.24-11.4-11.4-11.4 11.4-4.24-4.24 11.4-11.4-11.4-11.4z"/>
	<path d="m48.7 233s-37.5-67.9-2.85-87.9c34.6-20 70.7 20.5 70.7 20.5s13.6-65.7 43.3-55.4c29.7 10.3 27.9 33.5 27.9 33.5s31.5-45.9 74.8-31.2c43.3 14.7 43.9 72.3 43.9 72.3s38.2-14.8 46.9 5.48c8.74 20.2-2.19 43.9-2.19 43.9s38.4 4.75 42 39.8c3.6 35.1-63.7 22.9-63.7 22.9s33.3 38.1 3.73 57.7c-29.6 19.6-71.1-11.1-71.1-11.1s9.4 44.8-22.4 52.7c-31.8 7.85-60.4-68.7-60.4-68.7s-22.9 80.6-64 66.3c-41.1-14.3-26.5-73-26.5-73s-58.6 26.6-79-24.4c-20.4-51 39-63.5 39-63.5z" fill-opacity=".4"/>
</svg>
