<svg width="367" height="241" version="1.1" viewBox="0 0 367 241" xmlns="http://www.w3.org/2000/svg">
	<rect x="247" y="128" width="120" height="100" rx="10" ry="10" style="-inkscape-stroke:none;paint-order:markers fill stroke;stop-color:#000000;stroke-dashoffset:3.2;stroke-linejoin:round;stroke-width:20"/>
	<path d="m117 94.7s-27.7-11.9-35.6-8.7-22.9 64.1-13.4 74.4c9.49 10.3 43.5 18.2 53.8 12.7 10.3-5.54 38.8-60.1 36.4-69.6-2.37-9.49-41.1-8.7-41.1-8.7z" style="-inkscape-stroke:none;paint-order:markers fill stroke;stop-color:#000000;stroke-dashoffset:3.2;stroke-linejoin:round;stroke-width:20"/>
	<path d="m157 133c19.8-16.6 72.8-15 81.5-8.7 8.7 6.33 7.91 91.8-3.16 100-11.1 8.7-105 9.49-108-3.16-2.37-12.7-11.9-38.8-2.37-45.9s18.2-34 31.6-42.7z" style="-inkscape-stroke:none;paint-order:markers fill stroke;stop-color:#000000;stroke-dashoffset:3.2;stroke-linejoin:round;stroke-width:20"/>
	<path d="m21.6 159c31.6 1.57 44.8 3.36 53 7.87 8.23 4.51 45.9 51.2 34.8 59-11.1 7.87-87.8 22-98.9 11-11.1-11-20.6-79.5 11.1-77.9z" style="-inkscape-stroke:none;paint-order:markers fill stroke;stop-color:#000000;stroke-dashoffset:3.2;stroke-linejoin:round;stroke-width:20"/>
	<path d="m234 116c-13.4-14.2 3.16-65.7 12.7-71.2s41.1-9.49 52.2-3.16c11.1 6.33 30.8 66.4 15.8 76.7-15 10.3-68.8 7.12-80.7-2.37z" style="-inkscape-stroke:none;paint-order:markers fill stroke;stop-color:#000000;stroke-dashoffset:3.2;stroke-linejoin:round;stroke-width:20"/>
	<path d="m185 116c18.2-0.791 54.6-48.3 49.8-60.9-4.75-12.7-51.4-56.2-65.7-50.6-14.2 5.54-41.1 48.3-39.6 60.9 1.58 12.7 44.3 51.4 55.4 50.6z" style="-inkscape-stroke:none;paint-order:markers fill stroke;stop-color:#000000;stroke-dashoffset:3.2;stroke-linejoin:round;stroke-width:20"/>
</svg>
