<svg width="203.1" height="76.32" version="1.1" viewBox="0 0 52.28 21.46" xmlns="http://www.w3.org/2000/svg">
	<path d="m-2.387 21.3v-15.61h4.401v15.61zm-0.027-18.25v-3.051h4.428v3.051z" style="stroke-width:.2812"/>
	<path d="m9.576 21.46q-1.755 0-2.727-0.513-0.945-0.513-1.296-1.485-0.351-0.999-0.351-2.403v-8.478h-1.512v-2.889h1.512v-4.752h4.455v4.752h2.214v2.889h-2.214v8.046q0 0.675 0.378 0.972 0.405 0.297 0.999 0.297 0.351 0 0.648-0.027 0.297-0.054 0.54-0.081v3.456q-0.351 0.054-1.107 0.135t-1.539 0.081z" style="stroke-width:.2812"/>
	<path d="m21.54 9.501v-2.673h8.559v2.673zm0 5.13v-2.673h8.559v2.673z" style="stroke-width:.2812"/>
	<path d="m40.12 21.3v-15.61h4.401v15.61zm-0.027-18.25v-3.051h4.428v3.051z" style="stroke-width:.2812"/>
	<path d="m52.08 21.46q-1.755 0-2.727-0.513-0.945-0.513-1.296-1.485-0.351-0.999-0.351-2.403v-8.478h-1.512v-2.889h1.512v-4.752h4.455v4.752h2.214v2.889h-2.214v8.046q0 0.675 0.378 0.972 0.405 0.297 0.999 0.297 0.351 0 0.648-0.027 0.297-0.054 0.54-0.081v3.456q-0.351 0.054-1.107 0.135t-1.539 0.081z" style="stroke-width:.2812"/>
</svg>
