<?xml version="1.0" encoding="UTF-8"?>
<!-- Created with Inkscape (http://www.inkscape.org/) -->
<svg width="232" height="235" version="1.1" viewBox="0 0 232 235" xmlns="http://www.w3.org/2000/svg">
	<g transform="translate(-27 -7)">
		<path d="m52 103c-13-0.15-17 41-18 73-1.1 32-10 25-6.4 44 3.6 19 88 23 120 21 31-1.5 78-10 95-9.6 16 0.9 20 13 16-37s4.1-58 0.11-76c-4-18-19-20-26-13-6.9 7.5 1.1 57-25 61-26 3.9-23-0.9-38-4.2-15-3.3-32 9.3-64 8.7-32-0.6-29-38-32-56-2.6-14-7.6-11-21-12z"/>
		<path d="m62 7-6.7 2 23 75-13 3.9c0 1e-6 9.8 40 27 36 17-4.7 5.4-45 5.4-45l-13 3.8z"/>
		<path d="m129 142c-6.7-0.15-14 5.8-14 11 0.63 7.8 4.3 11 6.8 10 0.83 2.2 1.3 5.5 3.2 4.9 1.8-0.61 0.42-4.6 0.42-4.6s1.9 4.6 3.4 3.7c1.5-0.84 0.26-4.6 0.26-4.6s1.3 4.1 3.4 3.5c2.1-0.63 0.68-4.2 0.68-4.2s8.8-0.63 4.1-14c-1.6-4.5-4.8-6.2-8.3-6.3zm-2.7 8.9c1.2-5e-4 2.3 1 2.3 2.3 5.1e-4 1.2-1 2.3-2.3 2.3s-2.3-1-2.3-2.3c-5e-4 -1.2 1-2.3 2.3-2.3zm-6.4 1.8c1.2 6.8e-4 2.2 0.97 2.2 2.2 6.7e-4 1.2-0.97 2.2-2.2 2.2-1.2 6.7e-4 -2.2-0.97-2.2-2.2 6.8e-4 -1.2 0.97-2.2 2.2-2.2z"/>
		<path d="m173 147 30 4.4s4.4-6.2 6.4-3.2c3.9 6-4 7.6-4 7.6s5.7 2.7 0.24 7.6c-3.5 3.2-6.7-4.4-6.7-4.4l-27-5.8s-4.2 7.3-7.6 3.3c-3.4-4 2.6-6.7 2.6-6.7s-3.5-5 1.5-8.5c3.3-2.3 4.3 5.7 4.3 5.7z"/>
		<path d="m98 169 5 0.67 0.52-9.2s3.3-1.4 1.6-3.8-3.8 1.6-3.8 1.6 0.14-4.6-2.9-2.5c-3.1 2.1 0.25 4.8 0.25 4.8z"/>
		<path d="m138 165c0.7-7.5 1.2-11 4.6-17 4.4-7.7 8.6-9.5 8.6-9.5s-3.3 4.7-5.6 13c-2.4 8.3-1.9 11-1.9 11s6-8.7 8.4-11c2.4-2.7 5-4.7 5-4.7l1.2 2.7 3.3-1.2s-6.6 4.5-8.9 8.2c-2.4 3.9-2.1 5.8-2.1 5.8-4.1 1.3-8.3 2.4-13 3.5z"/>
		<path d="m103 132s-3.7-4.5-1.3-7c2.4-2.5 5.5 3.7 5.5 3.7l32 4.2s3.6-5.9 6.6-3.1c2.9 2.7-1.6 5.7-1.6 5.7s4.5 2.2 1.4 4.1-5.9-2.2-5.9-2.2l-32-2.8s-2.4 5.7-5.9 3.7c-3.5-2.1 0.97-6.2 0.97-6.2z"/>
		<rect transform="rotate(-17)" x="101" y="194" width="7" height="5" rx="2" ry="1" stop-color="#000000" style="paint-order:markers fill stroke"/>
		<path d="m116 138c-0.22-0.29-0.55-0.52-1-0.63-2.5-0.61-3 2.9-3 2.9s-20 9.7-25 15c0 0-2.1-2.3-3.4 0.23-1.3 2.6 1.9 2.6 1.9 2.6s-1.8 2.4 0.8 3.1c2.6 0.71 2.5-2 2.5-2 4.9 0.68 24-15 24-15s3.4 2.9 4.5 0.53c1-2.3-2-3.3-2-3.3s1-2.5 0.035-3.8zm-7.5 6.7s-6 4.5-9.5 6.8c-3.5 2.3-8.7 4.4-8.7 4.4s4.1-3.2 9.7-6.5c4.5-2.7 8.5-4.7 8.5-4.7z" stop-color="#000000" style="paint-order:markers fill stroke"/>
		<path d="m221 133s3.4-3.5-0.64-4.3c-4-0.79-3.9 3.8-3.9 3.8l-19 7.5s-3-4.6-5.1 0.37c-1.7 4 4.9 3.3 4.9 3.3s-4.5 3.7-0.49 4.9c4.6 1.4 3.7-3.5 3.7-3.5l17-7.4s4.9 4.2 6 0.47c1.1-3.7-2.4-5.1-2.4-5.1z"/>
	</g>
</svg>
