<?xml version="1.0" encoding="UTF-8" standalone="no"?>
<!-- Created with Inkscape (http://www.inkscape.org/) -->

<svg
   version="1.1"
   id="svg1"
   width="1127.641"
   height="997.88129"
   viewBox="0 0 1127.641 997.88129"
   sodipodi:docname="crocodile-crying.svg"
   xml:space="preserve"
   inkscape:version="1.3 (0e150ed6c4, 2023-07-21)"
   xmlns:inkscape="http://www.inkscape.org/namespaces/inkscape"
   xmlns:sodipodi="http://sodipodi.sourceforge.net/DTD/sodipodi-0.dtd"
   xmlns="http://www.w3.org/2000/svg"
   xmlns:svg="http://www.w3.org/2000/svg"><defs
     id="defs1" /><sodipodi:namedview
     id="namedview1"
     pagecolor="#ffffff"
     bordercolor="#666666"
     borderopacity="1.0"
     inkscape:showpageshadow="2"
     inkscape:pageopacity="0.0"
     inkscape:pagecheckerboard="0"
     inkscape:deskcolor="#d1d1d1"
     inkscape:zoom="0.40087891"
     inkscape:cx="568.7503"
     inkscape:cy="457.74421"
     inkscape:window-width="1280"
     inkscape:window-height="961"
     inkscape:window-x="-8"
     inkscape:window-y="657"
     inkscape:window-maximized="1"
     inkscape:current-layer="g1" /><g
     inkscape:groupmode="layer"
     inkscape:label="Image"
     id="g1"
     transform="translate(1.4524685,-26.118692)"><path
       id="path1"
       style="fill:#000000"
       d="M 951.95378 26.118692 C 886.47709 25.967877 832.32012 63.805161 825.86589 120.99955 C 824.08124 136.81439 815.97038 146.82288 804.00066 152.7476 C 719.43039 194.60756 633.31884 230.51988 545.50066 265.37846 C 518.19203 276.21834 510.25975 279.35271 467.25066 280.93119 C 403.2283 283.28088 387.12392 283.12709 385.23308 280.1519 C 373.93151 262.36901 365.62562 255.91333 346.11394 249.74369 C 336.1596 246.59612 329.57675 246.19415 304.59636 247.21635 C 297.69161 247.49889 297.69081 247.49959 295.56511 243.71244 C 266.00672 191.05138 174.95228 240.02985 191.58073 299.64604 C 192.10997 301.54343 191.67584 301.8709 187.8405 302.45658 C 176.75264 304.14979 146.42371 312.68372 130.50066 317.94291 C 85.972977 332.64989 47.764446 344.94997 10.352219 373.82963 C -6.2065555 386.61188 -5.2073827 427.37041 12.490891 456.99955 C 30.620437 487.35069 29.876036 484.34961 19.637375 485.73393 C -2.499691 488.72692 0.0006565 454.23057 0.0006565 756.56986 C 0.0006565 1023.9975 0.0023656808 1023.9996 177.98894 1023.9996 C 355.97549 1023.9996 355.15693 1023.3447 358.48308 1020.0288 C 383.81141 994.77896 378.6966 978.69561 364.00066 947.49955 C 356.45978 931.49209 358.49005 928.72067 415.11198 873.45658 C 429.50027 859.41337 429.50005 859.41308 452.0905 858.19096 C 611.36837 849.5742 791.09747 770.71755 794.57683 768.99955 C 847.30093 742.96611 900.02565 711.08 949.73503 679.38041 C 976.45891 662.33864 994.39887 652.67614 1014.0007 643.09721 C 1125.6668 588.52822 1149.7453 515.08534 1104.9264 483.22221 C 1097.284 477.7891 1083.7646 459.96886 1074.8854 443.62065 C 1055.2518 407.47264 1036.311 409.08333 1035.5202 446.9683 C 1034.7559 483.58831 1016.0692 483.80828 1004.2389 448.21244 L 1004.2389 448.27494 C 990.19282 415.12212 963.85938 425.01923 960.01238 471.51518 C 959.79875 474.09714 951.3311 477.99955 947.67644 477.99955 C 946.2434 477.99955 943.14251 478.63117 940.78581 479.40385 C 926.46515 484.09907 917.14073 485.35108 888.00066 486.49174 C 872.31577 487.10571 851.72353 490.10252 842.50066 492.53861 C 824.24929 497.35949 821.15154 504.03098 815.56902 491.54838 C 805.83544 469.78402 790.62879 473.72206 782.68816 489.7183 C 774.07662 507.06604 749.00066 512.44726 749.00066 500.0015 C 749.00066 480.79976 719.27592 469.07284 706.77605 486.94291 C 695.53766 503.00952 690.33625 503.80419 669.75261 503.36283 C 642.69936 502.78274 606.83578 505.79558 569.00066 511.8433 C 532.80647 517.62874 474.99186 515.46886 461.04948 507.8101 C 453.67418 503.7587 453.63107 503.43494 460.36003 502.64408 C 488.30384 499.35985 502.04884 492.48247 512.903 476.34916 C 517.46587 469.56708 518.33468 468.99955 524.16863 468.99955 C 527.68622 468.99955 528.92291 469.71338 534.33659 474.86674 C 558.06645 497.4554 574.58001 484.3808 563.59441 451.70072 C 558.5767 436.77401 545.26416 422.05243 555.32683 414.07572 C 565.79142 405.78045 579.36874 416.25594 591.45964 431.3765 C 622.0809 469.67071 642.3037 442.06805 617.88933 395.30229 C 610.36051 380.88079 607.17195 369.04515 616.33269 364.07768 C 625.98525 358.8435 633.8079 365.19168 643.01042 383.4019 C 669.17029 435.16774 707.02372 415.80371 677.22527 363.8101 C 669.41744 350.1867 669.51754 337.51032 683.38152 333.03275 C 702.58209 326.83166 707.43474 335.11019 713.57878 358.67924 C 718.01461 375.69532 728.09774 386.99955 740.26823 386.99955 C 754.66284 386.99955 757.59671 378.58699 753.00066 350.49955 C 749.60087 329.72281 738.59343 310.25733 752.80144 306.02885 C 772.28068 300.23153 777.65756 336.69585 785.91081 357.22611 C 792.23307 372.95298 811.67931 367.58859 820.25261 359.94877 C 830.20087 351.0837 828.66596 339.54719 821.68816 319.99955 C 803.16303 268.10323 832.09765 258.01933 856.64519 290.85307 C 873.86771 313.88917 886.27985 313.35009 898.01042 304.74955 C 908.96676 296.71664 904.71236 282.42319 897.25261 263.99955 C 885.47748 234.91806 883.57764 217.77807 891.37175 204.79447 C 904.38958 183.10915 934.87002 186.16713 952.90886 210.9683 C 963.8265 225.9787 974.64156 243.93398 988.24284 238.01713 C 1002.1316 231.9752 1002.3814 216.32147 992.63347 192.79057 C 987.82461 181.18226 983.28656 167.10561 984.19402 166.61283 C 984.36234 166.52143 987.64381 165.65538 991.48503 164.689 C 1023.4364 156.65074 1036.5565 123.35597 1037.0964 95.829629 C 1037.5807 71.144111 1025.0488 39.69192 998.64519 32.521036 C 982.77644 28.211278 967.06382 26.153495 951.95378 26.118692 z M 333.17448 299.814 C 351.69088 304.7932 384.34451 328.64464 379.10808 350.95072 C 377.03235 359.79287 370.5308 367.54005 362.15886 373.8394 C 353.49947 373.8681 342.59778 374.44195 332.93425 376.5894 C 323.36146 378.71667 316.3793 383.50956 311.69011 387.90385 C 311.69011 387.90385 362.36662 491.087 310.22917 489.92143 C 258.09172 488.75585 311.69011 387.90385 311.69011 387.90385 C 306.52735 387.14226 301.60983 385.86001 297.50066 383.33744 C 280.61293 372.97034 284.82421 347.64292 286.44792 341.62455 C 296.75065 338.5129 302.98147 335.6461 309.66277 330.189 C 319.57918 322.08955 324.33688 307.56232 333.17448 299.814 z M 288.51042 529.01518 C 288.51042 529.01518 339.18894 632.19832 287.05144 631.03275 C 234.91394 629.86719 288.51042 529.01518 288.51042 529.01518 z M 276.16472 670.1265 C 276.16472 670.1265 326.84133 773.30965 274.70378 772.14408 C 222.56623 770.9785 276.16472 670.1265 276.16472 670.1265 z " /><path
       style="fill:#000000;fill-opacity:1;stroke:none;stroke-width:1px;stroke-linecap:butt;stroke-linejoin:miter;stroke-opacity:1"
       d="m 315.73336,314.49259 c 12.99021,-8.1035 19.46814,0.31835 24.69017,13.06623 5.22203,12.74787 4.63784,36.46808 -3.73819,39.57052 -8.37604,3.10245 -22.60117,-16.50392 -25.90907,-27.01633 -3.3079,-10.51241 -8.03312,-17.51691 4.95709,-25.62042 z"
       id="path3"
       sodipodi:nodetypes="zzzzz" /></g></svg>
