<?xml version="1.0" encoding="UTF-8" standalone="no"?>
<!-- Created with Inkscape (http://www.inkscape.org/) -->

<svg
   width="884.63245"
   height="820.92169"
   viewBox="0 0 884.63249 820.92169"
   version="1.1"
   id="svg8"
   sodipodi:docname="foot-with-shoe.svg"
   inkscape:version="1.2.1 (9c6d41e410, 2022-07-14)"
   xml:space="preserve"
   xmlns:inkscape="http://www.inkscape.org/namespaces/inkscape"
   xmlns:sodipodi="http://sodipodi.sourceforge.net/DTD/sodipodi-0.dtd"
   xmlns="http://www.w3.org/2000/svg"
   xmlns:svg="http://www.w3.org/2000/svg"
   xmlns:rdf="http://www.w3.org/1999/02/22-rdf-syntax-ns#"
   xmlns:cc="http://creativecommons.org/ns#"
   xmlns:dc="http://purl.org/dc/elements/1.1/"><defs
     id="defs2" /><sodipodi:namedview
     id="base"
     pagecolor="#ffffff"
     bordercolor="#666666"
     borderopacity="1.0"
     inkscape:pageopacity="0.0"
     inkscape:pageshadow="2"
     inkscape:zoom="0.7"
     inkscape:cx="602.85714"
     inkscape:cy="461.42857"
     inkscape:document-units="px"
     inkscape:current-layer="layer1"
     showgrid="false"
     units="px"
     inkscape:window-width="1920"
     inkscape:window-height="1017"
     inkscape:window-x="1272"
     inkscape:window-y="505"
     inkscape:window-maximized="1"
     inkscape:showpageshadow="2"
     inkscape:pagecheckerboard="0"
     inkscape:deskcolor="#d1d1d1" /><metadata
     id="metadata5"><rdf:RDF><cc:Work
         rdf:about=""><dc:format>image/svg+xml</dc:format><dc:type
           rdf:resource="http://purl.org/dc/dcmitype/StillImage" /></cc:Work></rdf:RDF></metadata><g
     inkscape:label="Layer 1"
     inkscape:groupmode="layer"
     id="layer1"
     transform="translate(71.060314,-191.63931)"><path
       style="fill:#000000"
       d="m 421.85961,720.0793 c -4.47684,7.61149 -19.01528,14.2274 -26.22478,3.7488 -3.32834,-4.8376 -8.28031,-15.64693 -10.71465,-24.0922 -4.20999,-14.60539 -6.86347,-30.24865 -6.49032,-45.13589 0.32836,-13.10029 -1.34448,-11.13314 28.25337,-27.33633 11.34195,-6.20909 17.02977,-8.37998 22.56869,-3.18016 23.39835,21.96587 32.22784,28.63387 -7.39231,95.99578 z m 40.002,-73.84335 c 16.33073,-71.49998 14.95162,-123.00099 3.23438,-220 -1.36199,-11.275 -3.41501,-28.6 -4.56227,-38.5 -1.14725,-9.9 -2.97165,-23.58956 -4.0542,-30.42124 -1.66223,-10.48977 -6.29694,-53.2632 -9.92302,-91.57876 -0.84312,-8.90906 -3.38638,-45.09064 -4.50371,-64.07204 -0.41629,-7.07203 -0.41629,-7.07203 2.41276,-6.65681 1.55599,0.22837 9.75386,-0.0589 18.2175,-0.6383 58.17819,-3.98297 149.43753,-3.54281 186.88843,0.90139 12.53461,1.48745 21.21129,1.13738 21.21129,1.13738 0,0 -1.12745,10.87462 -1.44836,16.32984 -0.92347,18.79138 -1.96301,28.12074 -10.6411,95.49854 -10.20282,79.21592 -13.06101,107.40239 -15.61609,154 -0.82935,15.125 -1.75192,29.525 -2.05017,32 -2.64703,21.96642 -2.0597,91.38945 1.01767,120.29156 2.24032,21.04056 14.3487,88.18429 16.54303,91.73479 0.95301,1.542 21.94269,-9.0161 49.73373,-25.0168 8.3731,-4.82075 8.43126,-4.9424 3.4568,-7.23078 -12.55036,-5.77349 -8.92062,-25.08743 5.6831,-30.23992 7.67459,-2.70776 34.35058,0.73726 43.6101,5.63194 18.80693,9.94153 15.56555,37.18416 -4.59777,38.64266 -7.17137,0.5187 -7.6683,1.4703 2.58591,17.24656 10.25421,15.77626 11.02265,21.20864 6.26186,21.75644 -3.32829,0.3829 -3.35581,-0.4292 0.25535,7.5351 31.04803,68.4749 45.02378,136.7575 36.41142,177.8984 -0.56055,2.6778 -0.45745,2.75 3.92199,2.75 8.02063,0 7.66153,-0.8606 7.65881,18.357 -0.0117,82.3946 -0.83213,82.669 -229.49757,76.7735 -157.76685,-0.7496 -320.55807,1.0448 -490,0.9098 h -5e-5 l -148.253595,1.2549 -8.460028,-3.7898 c 0,0 -1.146919,-78.5326 -1.492103,-78.8777 -0.345184,-0.3452 1.247393,-0.6276 3.539059,-0.6276 5.331511,0 5.351712,-1.1448 0.171762,-9.7332 -21.274837,-35.2742 -9.564831,-80.3765 25.574125,-98.5015 18.92184,-9.76 36.04896,-12.0649 79.23818,-10.6635 60.68583,1.969 95.82849,-5.1382 145.09864,-29.3447 18.92169,-9.2963 16.71743,-9.6245 23.97329,3.5691 4.42758,8.0509 7.94401,16.7627 11.00458,27.2637 6.37925,21.8874 30.91953,24.7649 37.32283,4.3763 0.9442,-3.0064 2.62979,-11.9654 3.74576,-19.9088 4.72439,-33.6282 13.2145,-56.6687 16.51093,-44.8075 4.60584,16.5727 8.55405,25.3399 18.57406,41.2446 3.40157,5.3992 6.77295,11.2248 7.49196,12.9456 7.18145,17.1876 39.4548,2.4863 44.28857,-20.1746 0.80265,-3.7629 0.80656,-3.7653 5.4816,-3.4661 8.08465,0.5175 16.37964,-4.451 20.40652,-12.2231 1.7699,-3.416 4.7671,-22.5105 6.46895,-41.2125 1.19538,-13.1361 1.19538,-13.1361 3.5716,-8.0072 9.33506,20.1487 29.31659,20.94731 38.67966,0.7664 0,0 28.70712,-48.21121 34.85383,-75.12305 z M 275.57143,717.8558 c -6.06346,-17.5847 -2.21427,-18.52518 12.10808,-24.7083 37.72696,-11.91674 30.09403,15.13298 39.08793,32.5863 3.44124,6.6674 7.68962,17.3019 10.78626,27 2.80987,8.8 6.04807,18.25 7.196,21 3.0791,7.3764 3.28807,10.6573 1.00717,15.8137 -6.25007,14.1293 -23.57271,23.2146 -30.3853,15.9363 -10.45497,-11.1697 -23.77549,-37.1973 -30.96293,-60.5 m -8.68976,-3 c -5.12257,14.59469 -11.84378,32.4996 -15.17943,56.4799 -3.15925,22.7122 -8.52187,29.5063 -20.34872,25.7806 v 2e-4 c -5.92955,-1.8679 -9.5217,-6.8301 -11.5901,-16.0105 -1.59043,-7.059 -7.59176,-20.2612 -16.26102,-35.7721 -7.63025,-13.6519 -7.613,-13.381 -1.00784,-15.8221 12.35974,-5.76745 29.81125,-14.79683 37.02013,-23.636 7.20888,-8.83917 15.34439,-11.50095 20.56675,-4.7698 2.83177,4.25741 8.49361,8.92518 6.80023,13.7498 z m 78.11513,34.1346 c -4.5368,-1.3104 -5.30037,-3.1175 -13.47306,-31.8844 -0.54689,-1.925 -3.95247,-10.025 -7.56796,-18 -9.02631,-19.9102 -8.87551,-79.8603 -1.16712,-84.00005 10.39366,-5.58186 19.27698,-12.33243 25.44253,-10.82374 6.16555,1.50869 14.8057,42.14677 17.43962,53.29609 0.64607,2.7348 2.48403,8.2423 4.08437,12.239 2.90377,7.2518 2.90784,7.2927 1.99503,20.0276 -1.36434,19.0344 -4.85027,47.0778 -6.16191,49.5709 -4.90906,9.3309 -11.24153,12.2754 -20.5915,9.5746 z"
       id="path246"
       sodipodi:nodetypes="ssassasasssssscsccsssssssssscscssscccccsscssssssssssssssssacccsssscssccssczcssssszsssss" /></g></svg>
