<?xml version="1.0" encoding="UTF-8"?>
<svg width="1128" height="998" version="1.1" viewBox="0 0 1128 998" xml:space="preserve"
	xmlns="http://www.w3.org/2000/svg">
	<defs>
		<mask id="mask-powermask-path-effect19" maskUnits="userSpaceOnUse">
			<path id="mask-powermask-path-effect19_box" d="m205 167h715v715h-715z" fill="#fff"/>
			<g fill="none" stroke="#000" stroke-linecap="round" stroke-width="20">
				<path d="m435 730a164 122 0 0 1 126-43.5 164 122 0 0 1 126 43.5"/>
				<path d="m502 487a90.8 82 0 0 1-78.7 41 90.8 82 0 0 1-78.7-41"/>
				<path d="m782 487a90.8 82 0 0 1-78.7 41 90.8 82 0 0 1-78.7-41"/>
			</g>
		</mask>
	</defs>
	<g transform="translate(1.45 -26.1)">
		<path d="m919 525a357 357 0 0 1-357 357 357 357 0 0 1-357-357 357 357 0 0 1 357-357 357 357 0 0 1 357 357z" mask="url(#mask-powermask-path-effect19)"/>
		<g fill="none" stroke="#000" stroke-linecap="round" stroke-width="20">
			<path d="m202 421c-79.6-23.1-124-53-124-84.2-1e-6 -40.1 73.4-77.9 198-102"/>
			<path d="m789 226c42.7 5.6 82.5 12.7 116 21.5 90.8 23.6 142 55.7 142 89.1 0 29.4-39.5 57.8-111 80.3"/>
			<path d="m115 438c-109-34.3-109-123-54.8-164"/>
			<path d="m883 197c11.6 2.65 22.9 5.4 33.9 8.26 132 34.2 191 80.7 191 127 0 34.2-25.1 66.1-82 93.7"/>
		</g>
	</g>
</svg>
