<svg width="121" height="109" version="1.1" viewBox="0 0 121 109" xmlns="http://www.w3.org/2000/svg">
	<path d="m24 103c-24-15 0.35-38 18-36 18 2.1 31 14 31 14s22-18 37-15c15 3 15 42-2.1 36-6.7 4.5-73 7.1-84 0z" style="fill-opacity:.4"/>
	<path d="m24 103s-17-59 14-56c31 3.9 28 60 16 60-15-0.62-26-1.6-30-4.4z" style="fill-opacity:.4"/>
	<path d="m66 107s-27-70 7.8-69c35 0.71 26 67 26 67-8.8 1.6-34 2.3-34 2.3z" style="fill-opacity:.4"/>
	<path d="m20 25c19-3.9 53 11 31 34-23 24-28 22-43 6.7-16-15-6.4-37 13-41z" style="fill-opacity:.4"/>
	<path d="m32 25c4.2-34 52-31 59-4.1 6.7 27-18 39-40 39-22-0.2-21-16-19-35z" style="fill-opacity:.4"/>
	<path d="m108 103c29-92 1.8-89-18-82-20 7-41 88-24 87s33-0.9 42-4.4z" style="fill-opacity:.4"/>
	<path d="m13 105c-4.2-6 34-29 46-29s54 22 51 28c-3.1 5.9-92 6.4-96 0.38z"/>
</svg>
