<svg width="290" height="296" version="1.1" viewBox="0 0 290 296" xmlns="http://www.w3.org/2000/svg" xmlns:xlink="http://www.w3.org/1999/xlink">
	<defs>
		<pattern id="a" xlink:href="#b" patternTransform="matrix(10 0 0 18.6 356 -188)"/>
		<pattern id="b" width="10" height="10" patternTransform="translate(0) scale(10)" patternUnits="userSpaceOnUse">
			<circle cx="2.57" cy=".8" r=".15"/>
			<circle cx="3.05" cy="2.33" r=".15"/>
			<circle cx="4.42" cy="2.42" r=".15"/>
			<circle cx="1.84" cy="3.03" r=".15"/>
			<circle cx="6.08" cy="1.36" r=".15"/>
			<circle cx="5.82" cy="4.4" r=".15"/>
			<circle cx="4.3" cy="4.05" r=".15"/>
			<circle cx="5.54" cy="3.04" r=".15"/>
			<circle cx="4.78" cy="5.53" r=".15"/>
			<circle cx="2.67" cy="5.18" r=".15"/>
			<circle cx="7.96" cy="1.45" r=".15"/>
			<circle cx="7.05" cy="5.05" r=".15"/>
			<circle cx="4.34" cy=".895" r=".15"/>
			<circle cx="7.12" cy=".34" r=".15"/>
			<circle cx="9.55" cy="1.05" r=".15"/>
			<circle cx="7" cy="2.7" r=".15"/>
			<circle cx="8.9" cy="2.7" r=".15"/>
			<circle cx="9.32" cy="4.4" r=".15"/>
			<circle cx="7.82" cy="3.87" r=".15"/>
			<circle cx="8.27" cy="5.95" r=".15"/>
			<circle cx="7.97" cy="7.43" r=".15"/>
			<circle cx="9.34" cy="8.07" r=".15"/>
			<circle cx="8.2" cy="9.32" r=".15"/>
			<circle cx="9.68" cy="9.48" r=".15"/>
			<circle cx="9.7" cy="6.19" r=".15"/>
			<circle cx="3.38" cy="6.3" r=".15"/>
			<circle cx="2.87" cy="8.2" r=".15"/>
			<circle cx="4.59" cy="8.72" r=".15"/>
			<circle cx="3.18" cy="9.67" r=".15"/>
			<circle cx="5.73" cy="7.32" r=".15"/>
			<circle cx="6.7" cy="6.5" r=".15"/>
			<circle cx="5.73" cy="9.67" r=".15"/>
			<circle cx="6.54" cy="8.37" r=".15"/>
			<circle cx="4.37" cy="7.15" r=".15"/>
			<circle cx=".622" cy="7.25" r=".15"/>
			<circle cx=".83" cy="5.68" r=".15"/>
			<circle cx="1.26" cy="8.52" r=".15"/>
			<circle cx="2" cy="6.88" r=".15"/>
			<circle cx=".374" cy="3.18" r=".15"/>
			<circle cx="1.17" cy="1.66" r=".15"/>
			<circle cx="1.15" cy=".093" r=".15"/>
			<circle cx="1.15" cy="10.1" r=".15"/>
			<circle cx="1.3" cy="4.45" r=".15"/>
			<circle cx="3.05" cy="3.76" r=".15"/>
		</pattern>
	</defs>
	<g transform="translate(-123 .708)">
		<path d="m229 135c-13.3 0.12-27.9 4.17-38.4 11.1-1.17 0.77-2.24 1.4-2.38 1.4-0.143 0-0.26 0.1-0.26 0.227 0 0.125-1.03 0.979-2.3 1.9-4.04 2.95-9.2 7.91-11.8 11.4-0.647 0.851-1.46 1.86-1.81 2.25-1.49 1.65-5.92 8.92-7.97 13.1-10.6 21.5-10.2 48.4 1.68 69.1 1.11 1.94 2.67 3.05 4.29 4.62-3.4 2.3-7.19 4.07-10.5 5.86s-9.71 6.21-14.6 10.2c-5.63 4.59-12.1 11.5-16.4 17.5-2.3 3.85-5.55 6.7-5.55 11l84.7-4e-3c46.6-2e-3 84.7-0.056 84.7-0.12-4.54-9.11-13.7-14.5-20.1-21.9 8.77-6.62 18.8-18.6 23.2-38.1 16.8 5.62 28.1-7.33 20.1-20.3-4.62-7.51-10.9-12.8-18.7-16.3l-0.13-1.76c-0.336-4.59-2.43-13.4-4.49-18.8-3.31-8.71-11.9-20.6-18.8-25.8-0.851-0.655-2.18-1.7-2.95-2.31-3.75-3-15.4-9.55-17-9.55-0.274 0-0.618-0.111-0.765-0.247-0.537-0.495-5.71-1.97-11.1-3.16-3.95-0.87-8.24-1.27-12.7-1.23zm53.3 60.6c1.1-0.0745 0.925 0.389-0.478 2.78-1.6 2.73-2.94 4.02-5.37 5.21-6 2.92-15-1.47-12.1-5.91 1.31-2 6.87-2.82 6.87-1.01 0 1 1.13 2.42 2.14 2.68 1.77 0.444 3.49-1 3.49-2.93 0-0.515 0.178-0.571 1.79-0.571 0.984 0 2.38-0.08 3.1-0.18 0.208-0.03 0.39-0.05 0.547-0.06z"/>
		<path d="m255-0.708c-14.4-0.00365-24.5 4.91-33.5 16.4-4.2 5.36-7.06 13.3-7.62 21.2-0.377 5.33-0.0136 4.55-2.27 4.91-15.9 4.76-22.9 16.1-23 27.2 0.648 10.8 5.04 15.8 10.7 20.7s18.4 7.82 27.2 4.2l1.47-0.643c6.38 9.39 17.6 15.9 27 17.4 9.2 1.36 20.5-1.3 27.2-6.43l0.905-0.691 0.125 0.658c0.0685 0.362 0.273 1.67 0.455 2.91 0.416 2.83 1.98 7.61 3.27 9.95 5.64 10.3 17.7 18.1 29.6 19.2 7.42 0.671 16.3-0.781 21.1-3.44 0.851-0.473 2.34-1.28 3.31-1.79 4.85-2.57 9.11-6.64 12.6-12 1.9-2.95 1.89-2.96-1.42-4.55-1.77-0.853-2.73-1.44-6.12-3.78-0.993-0.684-5.87-4.95-7.05-6.17-1.92-2-0.841-1.59 1.45 0.526 29 26.9 74.7 5.7 72.1-33.5-0.525-7.8-3.7-16.2-7.98-21.1-0.488-0.561-1.65-1.93-2.57-3.04-1.4-1.7-4.25-4.17-8.06-7.05-5.51-4.17-17.4-7.33-25.7-6.85l-3.15 0.18-0.497-2.08c-6.02-25.2-40.6-35.3-53.8-15.7-0.48 0.71-1.36 2.03-1.96 2.93-1.29 1.94-4.14 4.97-4.68 4.97-1.14 0-0.984-0.674 0.29-1.27 1.78-0.836 3.42-2.71 5.64-6.46 0.458-0.773 1.35-1.91 2-2.52 0.634-0.611 1.15-1.33 1.15-1.6 0-0.267 0.221-0.529 0.492-0.582 0.486-0.0963-2.89-1.04-5.78-1.62-5-1-13.9 0.652-17.7 3.29-3.73 2.56-3.73 2.56-3.73 2.06 0-0.575-2.33-3.72-3.72-5.02-8.45-7.93-16-10.9-27.8-10.9zm49.9 77.2c3.46 0.0233 6.56 0.547 7.03 1.32 0.212 0.343-0.126 0.35-1.39 0.0286-0.464-0.118-2.42-0.229-4.34-0.248-1.92-0.0183-4.33-0.187-5.34-0.374l-1.85-0.341 2.39-0.235c1.15-0.113 2.34-0.16 3.49-0.153z"/>
		<g transform="rotate(-14 283 257)">
			<rect x="283" y="246" width="55.6" height="10.5" rx="4.5" ry="4.5" style="fill-opacity:0;stroke-width:2.25;stroke:#000"/>
			<path d="m293 246v5.06" style="stroke-width:2.25;stroke:#000"/>
			<path d="m298 246v5.06" style="stroke-width:2.25;stroke:#000"/>
			<path d="m304 246v5.06" style="stroke-width:2.25;stroke:#000"/>
			<path d="m310 246v5.06" style="stroke-width:2.25;stroke:#000"/>
			<path d="m315 246v5.06" style="stroke-width:2.25;stroke:#000"/>
			<rect x="318" y="246" width="19.8" height="10.5" rx="1.16" ry="1.38"/>
		</g>
		<path d="m347 157 16-5.4-5 33 27-49-13 4 6-20s-7.36 0.55-11.8 0.2c-4.47-0.35-8.6-1.8-8.6-1.8z"/>
		<rect transform="rotate(19.6)" x="209" y="-20.4" width="175" height="86" style="fill:url(#a)"/>
	</g>
</svg>
