<svg xmlns="http://www.w3.org/2000/svg" width="410" height="410" viewBox="0 0 410 410">
  <g transform="translate(-46 -41)">
    <path d="M251 41A205 205 0 0 0 46 246a205 205 0 0 0 205 205 205 205 0 0 0 205-205A205 205 0 0 0 251 41zm-97 72.2h0c14.7-.2 27.5 7.5 38 14.6a151 151 0 0 0 25.6 15c11.4.7 21.3-9 21.3-9l14.5 13.8s-15 16.6-37.2 15c-14.5-.8-24.3-10.8-35.4-18.2-11-7.4-21.5-12.3-29.8-10.8l-3.6-19.7c2-.4 4.3-.7 6.4-.7zm153 25.2h-0s.8 7 6.6 13.2c6.2 6.7 23.2 11 39 12 15.8.8 29.4-1 29.4-1l2.5 20s-15 2-33 1c-17.8-1-39.2-3.7-52.7-18.4-10.2-11.2-11.7-24.3-11.7-24.3l20-2.3zm-120 20a28.5 28.5 0 0 1 28.5 28.5 28.5 28.5 0 0 1-28.5 28.5 28.5 28.5 0 0 1-28.5-28.5 28.5 28.5 0 0 1 28.5-28.5zm130 24.8a28.5 28.5 0 0 1 28.5 28.5 28.5 28.5 0 0 1-28.5 28.5 28.5 28.5 0 0 1-28.5-28.5 28.5 28.5 0 0 1 28.5-28.5zm-86 164a91 91 0 0 1 15 1c58 9 51.4 53.2 51.4 53.2s-9.7-27.4-55-33-64.8 23.3-64.8 23.3h-0s8.8-43 53.5-44.4z"/>
    <circle cx="189" cy="190" r="11"/>
    <circle cx="315" cy="214" r="11"/>
  </g>
</svg>
