<?xml version="1.0" encoding="UTF-8" standalone="no"?>
<!-- Created with Inkscape (http://www.inkscape.org/) -->

<svg
   width="300"
   height="300"
   viewBox="0 0 300 300.00001"
   version="1.1"
   id="svg5"
   xml:space="preserve"
   sodipodi:docname="dead-bird.svg"
   inkscape:version="1.2.2 (732a01da63, 2022-12-09)"
   xmlns:inkscape="http://www.inkscape.org/namespaces/inkscape"
   xmlns:sodipodi="http://sodipodi.sourceforge.net/DTD/sodipodi-0.dtd"
   xmlns="http://www.w3.org/2000/svg"
   xmlns:svg="http://www.w3.org/2000/svg"><sodipodi:namedview
     id="namedview7"
     pagecolor="#ffffff"
     bordercolor="#666666"
     borderopacity="1.0"
     inkscape:showpageshadow="2"
     inkscape:pageopacity="0.0"
     inkscape:pagecheckerboard="0"
     inkscape:deskcolor="#d1d1d1"
     inkscape:document-units="mm"
     showgrid="false"
     inkscape:zoom="1.9728279"
     inkscape:cx="227.59208"
     inkscape:cy="151.0522"
     inkscape:window-width="1920"
     inkscape:window-height="1017"
     inkscape:window-x="1272"
     inkscape:window-y="505"
     inkscape:window-maximized="1"
     inkscape:current-layer="layer1" /><defs
     id="defs2" /><g
     inkscape:label="Layer 1"
     inkscape:groupmode="layer"
     id="layer1"><path
       id="path354"
       style="fill:#000000;fill-opacity:1;stroke:none;stroke-width:1.00000002;stroke-linecap:butt;stroke-linejoin:miter;stroke-opacity:1;stroke-dasharray:none"
       d="M 168.07617 42.714844 C 165.91062 42.811024 163.31306 47.102052 162.67383 51.435548 C 161.88712 56.769088 163.07813 68.208986 163.07813 68.208986 C 163.07813 68.208986 157.84641 52.465877 155.24024 49.458985 C 152.20735 45.959787 148.05731 53.258024 148.6836 60.896485 C 149.27394 68.09656 151.9336 73.593751 151.9336 73.593751 C 151.9336 73.593751 142.72574 64.31242 139.83594 63.347657 C 137.19325 62.465393 135.24259 68.97418 136.91602 74.513673 C 138.71279 80.461432 144.15235 87.51758 144.15235 87.51758 C 144.15235 87.51758 133.75659 78.911954 131.5586 78.183595 C 128.9851 77.330805 126.90892 83.502373 131.95899 97.251955 C 128.5178 93.960037 124.67085 90.508971 123.29688 90.14258 C 120.60871 89.425733 118.27915 95.161016 120.42969 104.30078 C 122.3095 112.28993 125.90039 114.39063 125.90039 114.39063 C 125.90039 114.39063 114.62158 108.04467 112.00781 107.34766 C 109.92333 106.79179 105.10222 114.23206 114.29297 126.44922 C 109.90487 124.93348 105.96911 123.67969 104.92578 123.67969 C 102.9426 123.67969 102.01919 132.4071 108.02149 140.10547 C 88.279608 145.77756 73.960939 152.59571 73.960939 152.59571 C 73.960939 152.59571 24.801718 116.25223 19.070313 115.9336 C 18.885429 115.92332 18.745694 115.95045 18.654297 116.01758 C 15.729603 118.1656 27.478516 128.59961 27.478516 128.59961 C 27.478516 128.59961 15.245829 119.09136 13.394531 121.17578 C 12.006045 122.73911 17.127969 128.09285 19.775391 130.67188 C 18.307425 129.36836 16.208217 127.90671 15.525391 129.84766 C 8.8241644 148.89505 95.755402 216.17359 152.48633 230.38868 C 209.21724 244.60374 275.69464 225.94813 285.27149 194.67774 C 294.84834 163.40737 257.38477 149.32422 257.38477 149.32422 C 257.38477 149.32422 256.77938 146.20593 254.85352 140.54297 C 252.92765 134.88003 247.5 131.03125 247.5 131.03125 L 246.35157 134.6543 C 245.20193 138.27796 251.4209 158.06682 232.40625 156.82032 C 216.06699 155.74917 223.42277 151.9162 197.53321 141.84961 C 197.53036 141.84223 197.52628 141.83552 197.52344 141.82813 C 189.94953 122.12217 194.31385 101.70418 191.85547 85.759767 C 189.39709 69.815352 192.64255 48.86363 191.78907 45.046876 C 190.93566 41.230127 183.479 41.775681 178.46289 53.275392 C 175.80408 59.370902 175.33008 65.939454 175.33008 65.939454 C 175.33008 65.939454 171.73969 45.906897 169.47657 43.369141 C 169.05223 42.893313 168.57592 42.692649 168.07617 42.714844 z M 251.73438 165.0918 L 257.39063 170.74805 L 263.04688 165.0918 L 265.16797 167.21289 L 259.51172 172.86914 L 265.16797 178.52539 L 263.04688 180.64649 L 257.39063 174.99024 L 251.73438 180.64649 L 249.61329 178.52539 L 255.26954 172.86914 L 249.61329 167.21289 L 251.73438 165.0918 z " /></g></svg>
