<?xml version="1.0" encoding="UTF-8"?>
<svg width="295" height="248" version="1.1" viewBox="0 0 295 248" xml:space="preserve" xmlns="http://www.w3.org/2000/svg" xmlns:xlink="http://www.w3.org/1999/xlink"><path id="path354" d="m85.6 142c-1.2 0.0531-2.63 2.42-2.98 4.82-0.435 2.95 0.223 9.27 0.223 9.27s-2.89-8.7-4.33-10.4c-1.68-1.93-3.97 2.1-3.62 6.32 0.326 3.98 1.8 7.01 1.8 7.01s-5.09-5.13-6.68-5.66c-1.46-0.487-2.54 3.11-1.61 6.17 0.993 3.29 4 7.18 4 7.18s-5.74-4.75-6.96-5.16c-1.42-0.471-2.57 2.94 0.221 10.5-1.9-1.82-4.03-3.72-4.78-3.93-1.48-0.396-2.77 2.77-1.58 7.82 1.04 4.41 3.02 5.57 3.02 5.57s-6.23-3.51-7.67-3.89c-1.15-0.307-3.81 3.8 1.26 10.6-2.42-0.837-4.6-1.53-5.17-1.53-1.1 0-1.61 4.82 1.71 9.07-10.9 3.13-18.8 6.9-18.8 6.9s-27.2-20.1-30.3-20.3c-0.102-6e-3 -0.179 9e-3 -0.23 0.0464-1.62 1.19 4.87 6.95 4.87 6.95s-6.76-5.25-7.78-4.1c-0.767 0.864 2.06 3.82 3.52 5.25-0.811-0.72-1.97-1.53-2.35-0.455-3.7 10.5 44.3 47.7 75.7 55.5 31.3 7.85 68.1-2.45 73.3-19.7 5.29-17.3-15.4-25.1-15.4-25.1s-0.334-1.72-1.4-4.85c-1.06-3.13-4.06-5.25-4.06-5.25l-0.634 2c-0.635 2 2.8 12.9-7.7 12.2-9.03-0.592-4.96-2.71-19.3-8.27-2e-3 -4e-3 -4e-3 -8e-3 -5e-3 -0.0119-4.18-10.9-1.77-22.2-3.13-31-1.36-8.81 0.435-20.4-0.0367-22.5-0.471-2.11-4.59-1.81-7.36 4.55-1.47 3.37-1.73 7-1.73 7s-1.98-11.1-3.23-12.5c-0.234-0.263-0.498-0.374-0.774-0.361zm46.2 67.6 3.12 3.12 3.12-3.12 1.17 1.17-3.12 3.12 3.12 3.12-1.17 1.17-3.12-3.12-3.12 3.12-1.17-1.17 3.12-3.12-3.12-3.12z"/><use transform="translate(144,-55.8)" xlink:href="#path354"/><path d="m200 13.8c6.14-7.22 16.2-6.9 24.4-8.67 5.7-3.2 13.7-8.46 19.4-2.44 4.44 5.12 12 3.78 16.7 8.44 5.34 5.52 5.74 14.4 1.68 20.8-4.11 6.96 1.84 17.5-7.52 22.2-8.82 4.74-17.1 11.9-27.5 12.5-9.95 0.598-14.8-8.78-21.1-14-7.47-3.66-9.95-11.8-8.06-19.4 0.0883-6.5-4.44-14.4 2.03-19.4z"/><path id="path2471" d="m30.3 84.2s19.4-20.1 58.8-39.4c39.4-19.4 78.9-22.9 78.9-22.9" fill="none" stroke="#000" stroke-width="2"/><use id="use2473" transform="translate(8,20)" xlink:href="#path2471"/><use transform="translate(8,20)" xlink:href="#use2473"/></svg>
