<svg width="337" height="207" version="1.1" viewBox="0 0 337 207" xmlns="http://www.w3.org/2000/svg">
	<g transform="translate(-24.6 -100)">
		<path d="m77.6 307c-10.9-1.86-64.2-57.2-50.9-109s11.4-97.5 91.3-97.5c79.9-0.0303 82.8 46.4 93.1 96.9 10.2 50.5-40 108-50.9 109 0 0 7.45-31.6 6.67-39.9-0.782-8.28-20.8-34.1-25.3-50.3-4.51-16-7.35-52-22.6-52.1-15.3-0.0434-18.1 36.5-22.7 52.6-4.55 16.2-24.5 42-25.3 50.3-0.782 8.28 6.67 39.9 6.67 39.9z"/>
		<path d="m309 251c0-18.4 1.95-21.4 18.6-33.1 25.9-18.4 33.4-30.6 33.4-54 0-37.8-28.4-64-69.3-64-23.9 0-42.6 8.34-54.5 24.8-9.18 12.2-12.8 25.6-13.1 48.4h37.8c0-25 11.7-40.3 30.9-40.3 16.4 0 28.9 13.6 28.9 32 0 12.5-3.34 17.8-19.5 31.1-22.2 18.9-28.6 31.4-27.8 55.1zm4.45 15.3h-41.7v40.6h41.7z"/>
	</g>
</svg>
